<svg preserveAspectRatio="none" width="100%" height="100%" overflow="visible" style="display: block;" viewBox="0 0 12 12" fill="none" xmlns="http://www.w3.org/2000/svg">
<g id="icon Verified">
<path id="Star 8" d="M5.40644 0.603849C5.63008 0.364569 6.00954 0.364568 6.23317 0.603849L7.26818 1.71126C7.37972 1.83061 7.5374 1.89592 7.70066 1.8904L9.21558 1.8392C9.54291 1.82814 9.81123 2.09646 9.80017 2.42379L9.74897 3.93871C9.74346 4.10197 9.80877 4.25965 9.92811 4.37119L11.0355 5.4062C11.2748 5.62984 11.2748 6.0093 11.0355 6.23293L9.92811 7.26794C9.80877 7.37948 9.74346 7.53716 9.74897 7.70042L9.80017 9.21534C9.81123 9.54267 9.54291 9.81099 9.21558 9.79993L7.70066 9.74873C7.5374 9.74322 7.37972 9.80853 7.26818 9.92787L6.23317 11.0353C6.00954 11.2746 5.63008 11.2746 5.40644 11.0353L4.37143 9.92787C4.25989 9.80853 4.10221 9.74322 3.93895 9.74873L2.42403 9.79993C2.0967 9.81099 1.82838 9.54267 1.83944 9.21534L1.89064 7.70042C1.89616 7.53716 1.83085 7.37948 1.7115 7.26794L0.604089 6.23293C0.364808 6.0093 0.364808 5.62984 0.604088 5.4062L1.7115 4.37119C1.83085 4.25965 1.89616 4.10197 1.89064 3.93871L1.83944 2.42379C1.82838 2.09646 2.0967 1.82814 2.42403 1.8392L3.93895 1.8904C4.10221 1.89592 4.25989 1.83061 4.37143 1.71126L5.40644 0.603849Z" fill="url(#paint0_linear_3201_1652)"/>
<path id="Star 8 (Stroke)" fill-rule="evenodd" clip-rule="evenodd" d="M5.09614 0.314056C5.4875 -0.104685 6.15156 -0.104686 6.54292 0.314055L7.57793 1.42147C7.60581 1.45131 7.64523 1.46763 7.68605 1.46625L9.20097 1.41506C9.7738 1.3957 10.2434 1.86525 10.224 2.43809L10.1728 3.95301C10.1714 3.99382 10.1878 4.03324 10.2176 4.06113L11.325 5.09614C11.7437 5.4875 11.7437 6.15156 11.325 6.54292L10.2176 7.57793C10.1878 7.60581 10.1714 7.64523 10.1728 7.68605L10.224 9.20097C10.2434 9.7738 9.7738 10.2434 9.20097 10.224L7.68605 10.1728C7.64523 10.1714 7.60581 10.1878 7.57793 10.2176L6.54292 11.325C6.15156 11.7437 5.4875 11.7437 5.09614 11.325L4.06113 10.2176C4.03324 10.1878 3.99382 10.1714 3.95301 10.1728L2.43809 10.224C1.86526 10.2434 1.3957 9.7738 1.41506 9.20097L1.46625 7.68605C1.46763 7.64523 1.45131 7.60581 1.42147 7.57793L0.314056 6.54292C-0.104685 6.15156 -0.104686 5.4875 0.314055 5.09614L1.42147 4.06113C1.45131 4.03324 1.46763 3.99382 1.46625 3.95301L1.41506 2.43809C1.3957 1.86526 1.86525 1.3957 2.43809 1.41506L3.95301 1.46625C3.99382 1.46763 4.03324 1.45131 4.06113 1.42147L5.09614 0.314056ZM5.92287 0.893565C5.86696 0.833745 5.7721 0.833745 5.71619 0.893565L4.68118 2.00098C4.48598 2.20983 4.21005 2.32413 3.92434 2.31447L2.40942 2.26327C2.32759 2.26051 2.26051 2.32759 2.26327 2.40942L2.31447 3.92434C2.32413 4.21005 2.20983 4.48598 2.00098 4.68118L0.893565 5.71619C0.833745 5.7721 0.833745 5.86696 0.893565 5.92287L2.00098 6.95788C2.20983 7.15308 2.32413 7.42901 2.31447 7.71471L2.26327 9.22964C2.26051 9.31147 2.32759 9.37855 2.40942 9.37578L3.92434 9.32459C4.21005 9.31493 4.48598 9.42923 4.68118 9.63808L5.71619 10.7455C5.7721 10.8053 5.86696 10.8053 5.92287 10.7455L6.95788 9.63808C7.15308 9.42923 7.42901 9.31493 7.71471 9.32459L9.22964 9.37578C9.31147 9.37855 9.37855 9.31147 9.37578 9.22964L9.32459 7.71471C9.31493 7.42901 9.42923 7.15308 9.63808 6.95788L10.7455 5.92287C10.8053 5.86696 10.8053 5.7721 10.7455 5.71619L9.63808 4.68118C9.42923 4.48598 9.31493 4.21005 9.32459 3.92434L9.37578 2.40942C9.37855 2.32759 9.31147 2.26051 9.22964 2.26327L7.71471 2.31447C7.42901 2.32413 7.15308 2.20983 6.95788 2.00098L5.92287 0.893565Z" fill="url(#paint1_linear_3201_1652)"/>
<path id="Vector 239 (Stroke)" fill-rule="evenodd" clip-rule="evenodd" d="M8.27659 3.64118C8.46408 3.7818 8.50207 4.04778 8.36146 4.23527L5.98002 7.41052C5.79377 7.65885 5.42454 7.66831 5.22582 7.42984L3.65538 5.54532C3.50534 5.36527 3.52967 5.09769 3.70971 4.94766C3.88975 4.79762 4.15733 4.82195 4.30737 5.00199L5.58009 6.52926L7.6825 3.72605C7.82311 3.53856 8.0891 3.50056 8.27659 3.64118Z" fill="var(--fill-0, white)"/>
</g>
<defs>
<linearGradient id="paint0_linear_3201_1652" x1="0.424628" y1="5.81957" x2="11.215" y2="5.81957" gradientUnits="userSpaceOnUse">
<stop stop-color="#049A0E"/>
<stop offset="1" stop-color="#02B346"/>
</linearGradient>
<linearGradient id="paint1_linear_3201_1652" x1="0" y1="5.81953" x2="11.6391" y2="5.81953" gradientUnits="userSpaceOnUse">
<stop stop-color="#049A0E"/>
<stop offset="1" stop-color="#02B346"/>
</linearGradient>
</defs>
</svg>
