<svg preserveAspectRatio="none" width="100%" height="100%" overflow="visible" style="display: block;" viewBox="0 0 89 18" fill="none" xmlns="http://www.w3.org/2000/svg">
<g id="RATING">
<path id="STAR" d="M8.00311 1.87948C8.30898 1.16922 9.31602 1.16922 9.62189 1.87948L10.9883 5.05235C11.1158 5.3486 11.3951 5.55148 11.7163 5.58127L15.1561 5.90031C15.9261 5.97172 16.2373 6.92947 15.6563 7.43985L13.061 9.71983C12.8186 9.93271 12.712 10.261 12.7829 10.5756L13.5424 13.9457C13.7125 14.7001 12.8977 15.292 12.2328 14.8972L9.26243 13.1334C8.98508 12.9687 8.63992 12.9687 8.36257 13.1334L5.39218 14.8972C4.72725 15.292 3.91254 14.7001 4.08256 13.9457L4.84211 10.5756C4.91303 10.261 4.80636 9.93271 4.56403 9.71983L1.96869 7.43985C1.38772 6.92947 1.69891 5.97172 2.46892 5.90031L5.90873 5.58127C6.22991 5.55148 6.50915 5.3486 6.63673 5.05235L8.00311 1.87948Z" fill="var(--fill-0, #FFD400)"/>
<path id="STAR_2" d="M25.6281 1.87948C25.9339 1.16922 26.941 1.16922 27.2468 1.87948L28.6132 5.05235C28.7408 5.3486 29.02 5.55148 29.3412 5.58127L32.781 5.90031C33.551 5.97172 33.8622 6.92947 33.2813 7.43985L30.6859 9.71983C30.4436 9.93271 30.3369 10.261 30.4078 10.5756L31.1674 13.9457C31.3374 14.7001 30.5227 15.292 29.8578 14.8972L26.8874 13.1334C26.61 12.9687 26.2649 12.9687 25.9875 13.1334L23.0171 14.8972C22.3522 15.292 21.5375 14.7001 21.7075 13.9457L22.4671 10.5756C22.538 10.261 22.4313 9.93271 22.189 9.71983L19.5936 7.43985C19.0127 6.92947 19.3239 5.97172 20.0939 5.90031L23.5337 5.58127C23.8549 5.55148 24.1341 5.3486 24.2617 5.05235L25.6281 1.87948Z" fill="var(--fill-0, #FFD400)"/>
<path id="STAR_3" d="M43.2533 1.87948C43.5592 1.16922 44.5662 1.16922 44.8721 1.87948L46.2384 5.05235C46.366 5.3486 46.6453 5.55148 46.9664 5.58127L50.4063 5.90031C51.1763 5.97172 51.4875 6.92947 50.9065 7.43985L48.3111 9.71983C48.0688 9.93271 47.9621 10.261 48.0331 10.5756L48.7926 13.9457C48.9626 14.7001 48.1479 15.292 47.483 14.8972L44.5126 13.1334C44.2353 12.9687 43.8901 12.9687 43.6127 13.1334L40.6424 14.8972C39.9774 15.292 39.1627 14.7001 39.3327 13.9457L40.0923 10.5756C40.1632 10.261 40.0565 9.93271 39.8142 9.71983L37.2189 7.43985C36.6379 6.92947 36.9491 5.97172 37.7191 5.90031L41.1589 5.58127C41.4801 5.55148 41.7593 5.3486 41.8869 5.05235L43.2533 1.87948Z" fill="var(--fill-0, #FFD400)"/>
<path id="STAR_4" d="M60.878 1.87948C61.1839 1.16922 62.1909 1.16922 62.4968 1.87948L63.8632 5.05235C63.9908 5.3486 64.27 5.55148 64.5912 5.58127L68.031 5.90031C68.801 5.97172 69.1122 6.92947 68.5312 7.43985L65.9359 9.71983C65.6935 9.93271 65.5869 10.261 65.6578 10.5756L66.4173 13.9457C66.5874 14.7001 65.7727 15.292 65.1077 14.8972L62.1373 13.1334C61.86 12.9687 61.5148 12.9687 61.2375 13.1334L58.2671 14.8972C57.6022 15.292 56.7875 14.7001 56.9575 13.9457L57.717 10.5756C57.7879 10.261 57.6813 9.93271 57.4389 9.71983L54.8436 7.43985C54.2626 6.92947 54.5738 5.97172 55.3438 5.90031L58.7836 5.58127C59.1048 5.55148 59.3841 5.3486 59.5116 5.05235L60.878 1.87948Z" fill="var(--fill-0, #FFD400)"/>
<path id="STAR_5" d="M78.9083 2.05371C79.0613 1.69883 79.5639 1.69883 79.7169 2.05371L81.0841 5.22656C81.2755 5.67089 81.6942 5.97485 82.1759 6.01953L85.6154 6.33887C86.0003 6.37457 86.1558 6.8532 85.8654 7.1084L83.2706 9.38867C82.9071 9.708 82.7473 10.2009 82.8537 10.6729L83.6124 14.043C83.6971 14.4199 83.2905 14.7156 82.9581 14.5186L79.9874 12.7549C79.5714 12.5079 79.0539 12.5079 78.6378 12.7549L75.6671 14.5186C75.3348 14.7156 74.9281 14.4199 75.0128 14.043L75.7716 10.6729C75.878 10.2009 75.7181 9.708 75.3546 9.38867L72.7599 7.1084C72.4695 6.8532 72.6249 6.37457 73.0099 6.33887L76.4494 6.01953C76.9311 5.97485 77.3498 5.67089 77.5412 5.22656L78.9083 2.05371Z" stroke="var(--stroke-0, #FFD400)" stroke-width="0.88125"/>
</g>
</svg>
