<svg preserveAspectRatio="none" width="100%" height="100%" overflow="visible" style="display: block;" viewBox="0 0 16 16" fill="none" xmlns="http://www.w3.org/2000/svg">
<g id="Group">
<g id="Group_2">
<path id="Vector" fill-rule="evenodd" clip-rule="evenodd" d="M4.1239 8.39532e-06C4.42095 8.39532e-06 4.66176 0.240821 4.66176 0.537874V1.6136C4.66176 1.91066 4.42095 2.15147 4.1239 2.15147C3.82684 2.15147 3.58603 1.91066 3.58603 1.6136V0.537874C3.58603 0.240821 3.82684 8.39532e-06 4.1239 8.39532e-06Z" fill="var(--fill-0, #939393)"/>
<path id="Vector_2" fill-rule="evenodd" clip-rule="evenodd" d="M11.294 8.39532e-06C11.591 8.39532e-06 11.8318 0.240821 11.8318 0.537874V1.6136C11.8318 1.91066 11.591 2.15147 11.294 2.15147C10.9969 2.15147 10.7561 1.91066 10.7561 1.6136V0.537874C10.7561 0.240821 10.9969 8.39532e-06 11.294 8.39532e-06Z" fill="var(--fill-0, #939393)"/>
<path id="Vector_3" fill-rule="evenodd" clip-rule="evenodd" d="M0 5.19938C0 4.90233 0.240813 4.66151 0.537865 4.66151H14.8809C15.178 4.66151 15.4188 4.90233 15.4188 5.19938C15.4188 5.49643 15.178 5.73724 14.8809 5.73724H0.537865C0.240813 5.73724 0 5.49643 0 5.19938Z" fill="var(--fill-0, #939393)"/>
</g>
<path id="Vector_4" fill-rule="evenodd" clip-rule="evenodd" d="M6.2348 1.07573H9.18433C10.5023 1.07571 11.5462 1.07571 12.3632 1.18555C13.204 1.29859 13.8846 1.53677 14.4213 2.07346C14.9579 2.61016 15.1961 3.2907 15.3092 4.1315C15.419 4.94849 15.419 5.99239 15.419 7.31037V8.82558C15.419 10.1436 15.419 11.1875 15.3092 12.0044C15.1961 12.8452 14.9579 13.5258 14.4213 14.0625C13.8846 14.5992 13.204 14.8373 12.3632 14.9504C11.5462 15.0602 10.5023 15.0602 9.18433 15.0602H6.23481C4.91685 15.0602 3.87294 15.0602 3.05595 14.9504C2.21514 14.8373 1.5346 14.5992 0.997903 14.0625C0.461213 13.5258 0.223032 12.8452 0.109994 12.0044C0.000148034 11.1875 0.00015525 10.1436 0.000169593 8.82558V7.31037C0.00015525 5.99239 0.000148034 4.94849 0.109994 4.1315C0.223032 3.2907 0.461213 2.61016 0.997903 2.07346C1.5346 1.53677 2.21514 1.29859 3.05595 1.18555C3.87294 1.07571 4.91685 1.07571 6.2348 1.07573ZM3.19928 2.25169C2.47776 2.34869 2.06207 2.53061 1.75856 2.83412C1.45505 3.13762 1.27313 3.55332 1.17613 4.27484C1.07704 5.01183 1.0759 5.98335 1.0759 7.35082V8.78513C1.0759 10.1526 1.07704 11.1241 1.17613 11.8611C1.27313 12.5826 1.45505 12.9983 1.75856 13.3018C2.06207 13.6053 2.47776 13.7873 3.19928 13.8842C3.93628 13.9833 4.90778 13.9845 6.27526 13.9845H9.14388C10.5113 13.9845 11.4829 13.9833 12.2199 13.8842C12.9414 13.7873 13.3571 13.6053 13.6606 13.3018C13.9641 12.9983 14.146 12.5826 14.243 11.8611C14.3421 11.1241 14.3432 10.1526 14.3432 8.78513V7.35082C14.3432 5.98335 14.3421 5.01183 14.243 4.27484C14.146 3.55332 13.9641 3.13762 13.6606 2.83412C13.3571 2.53061 12.9414 2.34869 12.2199 2.25169C11.4829 2.1526 10.5113 2.15146 9.14388 2.15146H6.27526C4.90778 2.15146 3.93628 2.1526 3.19928 2.25169Z" fill="var(--fill-0, #939393)"/>
<path id="Vector_5" fill-rule="evenodd" clip-rule="evenodd" d="M10.9346 10.0402C10.6376 10.0402 10.3968 10.281 10.3968 10.5781C10.3968 10.8751 10.6376 11.1159 10.9346 11.1159C11.2317 11.1159 11.4725 10.8751 11.4725 10.5781C11.4725 10.281 11.2317 10.0402 10.9346 10.0402ZM9.32105 10.5781C9.32105 9.68692 10.0435 8.96446 10.9346 8.96446C11.8258 8.96446 12.5482 9.68692 12.5482 10.5781C12.5482 11.4692 11.8258 12.1917 10.9346 12.1917C10.0435 12.1917 9.32105 11.4692 9.32105 10.5781Z" fill="var(--fill-0, #939393)"/>
</g>
</svg>
