<svg preserveAspectRatio="none" width="100%" height="100%" overflow="visible" style="display: block;" viewBox="0 0 10 10" fill="none" xmlns="http://www.w3.org/2000/svg">
<g id="Group" filter="url(#filter0_d_3186_1457)">
<g id="Group_2">
<path id="Vector" fill-rule="evenodd" clip-rule="evenodd" d="M2.58849 0C2.77502 0 2.92622 0.151208 2.92622 0.337729V1.01319C2.92622 1.19971 2.77502 1.35092 2.58849 1.35092C2.40197 1.35092 2.25076 1.19971 2.25076 1.01319V0.337729C2.25076 0.151208 2.40197 0 2.58849 0Z" fill="var(--fill-0, white)"/>
<path id="Vector_2" fill-rule="evenodd" clip-rule="evenodd" d="M7.09402 0C7.28054 0 7.43175 0.151208 7.43175 0.337729V1.01319C7.43175 1.19971 7.28054 1.35092 7.09402 1.35092C6.9075 1.35092 6.75629 1.19971 6.75629 1.01319V0.337729C6.75629 0.151208 6.9075 0 7.09402 0Z" fill="var(--fill-0, white)"/>
<path id="Vector_3" fill-rule="evenodd" clip-rule="evenodd" d="M0 3.26475C0 3.07823 0.151208 2.92702 0.337729 2.92702H9.34385C9.53036 2.92702 9.68158 3.07823 9.68158 3.26475C9.68158 3.45127 9.53036 3.60248 9.34385 3.60248H0.337729C0.151208 3.60248 0 3.45127 0 3.26475Z" fill="var(--fill-0, white)"/>
</g>
<path id="Vector_4" fill-rule="evenodd" clip-rule="evenodd" d="M3.91569 0.675447H5.76772C6.59529 0.675438 7.25076 0.675434 7.76374 0.744407C8.29168 0.815384 8.71902 0.96494 9.05603 1.30193C9.393 1.63893 9.54254 2.06624 9.61356 2.59419C9.6825 3.10718 9.6825 3.76265 9.6825 4.59023V5.54163C9.6825 6.3692 9.6825 7.02467 9.61356 7.53766C9.54254 8.0656 9.393 8.49294 9.05603 8.82995C8.71902 9.16691 8.29168 9.31646 7.76374 9.38747C7.25076 9.45641 6.59529 9.45641 5.76772 9.45641H3.9157C3.08814 9.45641 2.43266 9.45641 1.91967 9.38747C1.39172 9.31646 0.964399 9.16691 0.627404 8.82995C0.290413 8.49294 0.140858 8.0656 0.0698803 7.53766C0.00090693 7.02467 0.000911461 6.3692 0.000920467 5.54163V4.59023C0.000911461 3.76265 0.00090693 3.10718 0.0698803 2.59419C0.140858 2.06624 0.290413 1.63893 0.627404 1.30193C0.964399 0.96494 1.39172 0.815384 1.91967 0.744407C2.43266 0.675434 3.08814 0.675438 3.91569 0.675447ZM2.00967 1.41384C1.55662 1.47475 1.2956 1.58898 1.10503 1.77955C0.914452 1.97013 0.800222 2.23115 0.739314 2.68419C0.677095 3.14696 0.676379 3.75698 0.676379 4.61562V5.51624C0.676379 6.37488 0.677095 6.98491 0.739314 7.44769C0.800222 7.90069 0.914452 8.16174 1.10503 8.35231C1.2956 8.54288 1.55662 8.65712 2.00967 8.718C2.47243 8.78023 3.08244 8.78095 3.9411 8.78095H5.74232C6.60096 8.78095 7.21099 8.78023 7.67377 8.718C8.12678 8.65712 8.38782 8.54288 8.57839 8.35231C8.76896 8.16174 8.8832 7.90069 8.94409 7.44769C9.00632 6.98491 9.00704 6.37488 9.00704 5.51624V4.61562C9.00704 3.75698 9.00632 3.14696 8.94409 2.68419C8.8832 2.23115 8.76896 1.97013 8.57839 1.77955C8.38782 1.58898 8.12678 1.47475 7.67377 1.41384C7.21099 1.35162 6.60096 1.35091 5.74232 1.35091H3.9411C3.08244 1.35091 2.47243 1.35162 2.00967 1.41384Z" fill="var(--fill-0, white)"/>
<path id="Vector_5" fill-rule="evenodd" clip-rule="evenodd" d="M6.8689 6.30425C6.68238 6.30425 6.53117 6.45546 6.53117 6.64198C6.53117 6.8285 6.68238 6.97971 6.8689 6.97971C7.05541 6.97971 7.20662 6.8285 7.20662 6.64198C7.20662 6.45546 7.05541 6.30425 6.8689 6.30425ZM5.85571 6.64198C5.85571 6.08243 6.30935 5.62879 6.8689 5.62879C7.42845 5.62879 7.88208 6.08243 7.88208 6.64198C7.88208 7.20153 7.42845 7.65517 6.8689 7.65517C6.30935 7.65517 5.85571 7.20153 5.85571 6.64198Z" fill="var(--fill-0, white)"/>
</g>
<defs>
<filter id="filter0_d_3186_1457" x="0" y="0" width="9.6825" height="9.99428" filterUnits="userSpaceOnUse" color-interpolation-filters="sRGB">
<feFlood flood-opacity="0" result="BackgroundImageFix"/>
<feColorMatrix in="SourceAlpha" type="matrix" values="0 0 0 0 0 0 0 0 0 0 0 0 0 0 0 0 0 0 127 0" result="hardAlpha"/>
<feOffset dy="0.537865"/>
<feComposite in2="hardAlpha" operator="out"/>
<feColorMatrix type="matrix" values="0 0 0 0 0 0 0 0 0 0 0 0 0 0 0 0 0 0 0.15 0"/>
<feBlend mode="normal" in2="BackgroundImageFix" result="effect1_dropShadow_3186_1457"/>
<feBlend mode="normal" in="SourceGraphic" in2="effect1_dropShadow_3186_1457" result="shape"/>
</filter>
</defs>
</svg>
