<svg preserveAspectRatio="none" width="100%" height="100%" overflow="visible" style="display: block;" viewBox="0 0 184 37" fill="none" xmlns="http://www.w3.org/2000/svg">
<g id="RATING">
<path id="STAR" d="M16.71 3.92424C17.3487 2.44127 19.4513 2.44127 20.09 3.92425L22.9429 10.549C23.2093 11.1676 23.7923 11.5912 24.4629 11.6534L31.645 12.3195C33.2528 12.4686 33.9025 14.4683 32.6895 15.534L27.2706 20.2944C26.7646 20.7389 26.5419 21.4243 26.69 22.0813L28.2758 29.1178C28.6308 30.6929 26.9298 31.9288 25.5414 31.1045L19.3394 27.4218C18.7603 27.078 18.0397 27.078 17.4606 27.4218L11.2586 31.1045C9.87023 31.9288 8.16916 30.6929 8.52416 29.1178L10.11 22.0813C10.2581 21.4243 10.0354 20.7389 9.52944 20.2944L4.11051 15.534C2.89747 14.4683 3.54723 12.4686 5.15497 12.3195L12.3371 11.6534C13.0077 11.5912 13.5907 11.1676 13.8571 10.549L16.71 3.92424Z" fill="var(--fill-0, #D7D7D7)" fill-opacity="0.5"/>
<path id="STAR_2" d="M53.51 3.92424C54.1487 2.44127 56.2513 2.44127 56.8899 3.92425L59.7429 10.549C60.0093 11.1676 60.5923 11.5912 61.2629 11.6534L68.445 12.3195C70.0528 12.4686 70.7025 14.4683 69.4895 15.534L64.0705 20.2944C63.5646 20.7389 63.3419 21.4243 63.4899 22.0813L65.0758 29.1178C65.4308 30.6929 63.7298 31.9288 62.3414 31.1045L56.1394 27.4218C55.5603 27.078 54.8397 27.078 54.2606 27.4218L48.0586 31.1045C46.6702 31.9288 44.9692 30.6929 45.3242 29.1178L46.91 22.0813C47.0581 21.4243 46.8354 20.7389 46.3294 20.2944L40.9105 15.534C39.6975 14.4683 40.3472 12.4686 41.955 12.3195L49.1371 11.6534C49.8077 11.5912 50.3907 11.1676 50.6571 10.549L53.51 3.92424Z" fill="var(--fill-0, #D7D7D7)" fill-opacity="0.5"/>
<path id="STAR_3" d="M90.31 3.92424C90.9487 2.44127 93.0513 2.44127 93.6899 3.92425L96.5429 10.549C96.8092 11.1676 97.3923 11.5912 98.0629 11.6534L105.245 12.3195C106.853 12.4686 107.503 14.4683 106.289 15.534L100.871 20.2944C100.365 20.7389 100.142 21.4243 100.29 22.0813L101.876 29.1178C102.231 30.6929 100.53 31.9288 99.1414 31.1045L92.9394 27.4218C92.3603 27.078 91.6396 27.078 91.0606 27.4218L84.8586 31.1045C83.4702 31.9288 81.7691 30.6929 82.1242 29.1178L83.71 22.0813C83.8581 21.4243 83.6354 20.7389 83.1294 20.2944L77.7105 15.534C76.4975 14.4683 77.1472 12.4686 78.755 12.3195L85.9371 11.6534C86.6077 11.5912 87.1907 11.1676 87.4571 10.549L90.31 3.92424Z" fill="var(--fill-0, #D7D7D7)" fill-opacity="0.5"/>
<path id="STAR_4" d="M127.11 3.92424C127.749 2.44127 129.851 2.44127 130.49 3.92425L133.343 10.549C133.609 11.1676 134.192 11.5912 134.863 11.6534L142.045 12.3195C143.653 12.4686 144.303 14.4683 143.089 15.534L137.671 20.2944C137.165 20.7389 136.942 21.4243 137.09 22.0813L138.676 29.1178C139.031 30.6929 137.33 31.9288 135.941 31.1045L129.739 27.4218C129.16 27.078 128.44 27.078 127.861 27.4218L121.659 31.1045C120.27 31.9288 118.569 30.6929 118.924 29.1178L120.51 22.0813C120.658 21.4243 120.435 20.7389 119.929 20.2944L114.511 15.534C113.297 14.4683 113.947 12.4686 115.555 12.3195L122.737 11.6534C123.408 11.5912 123.991 11.1676 124.257 10.549L127.11 3.92424Z" fill="var(--fill-0, #D7D7D7)" fill-opacity="0.5"/>
<path id="STAR_5" d="M163.91 3.92424C164.549 2.44127 166.651 2.44127 167.29 3.92425L170.143 10.549C170.409 11.1676 170.992 11.5912 171.663 11.6534L178.845 12.3195C180.453 12.4686 181.103 14.4683 179.889 15.534L174.471 20.2944C173.965 20.7389 173.742 21.4243 173.89 22.0813L175.476 29.1178C175.831 30.6929 174.13 31.9288 172.741 31.1045L166.539 27.4218C165.96 27.078 165.24 27.078 164.661 27.4218L158.459 31.1045C157.07 31.9288 155.369 30.6929 155.724 29.1178L157.31 22.0813C157.458 21.4243 157.235 20.7389 156.729 20.2944L151.31 15.534C150.097 14.4683 150.747 12.4686 152.355 12.3195L159.537 11.6534C160.208 11.5912 160.791 11.1676 161.057 10.549L163.91 3.92424Z" fill="var(--fill-0, #D7D7D7)" fill-opacity="0.5"/>
</g>
</svg>
