<svg preserveAspectRatio="none" width="100%" height="100%" overflow="visible" style="display: block;" viewBox="0 0 16 16" fill="none" xmlns="http://www.w3.org/2000/svg">
<g id="Group">
<g id="Group_2">
<path id="Vector" fill-rule="evenodd" clip-rule="evenodd" d="M4.1239 0C4.42095 0 4.66176 0.240813 4.66176 0.537865V1.6136C4.66176 1.91065 4.42095 2.15146 4.1239 2.15146C3.82684 2.15146 3.58603 1.91065 3.58603 1.6136V0.537865C3.58603 0.240813 3.82684 0 4.1239 0Z" fill="var(--fill-0, #939393)"/>
<path id="Vector_2" fill-rule="evenodd" clip-rule="evenodd" d="M11.296 0C11.593 0 11.8338 0.240813 11.8338 0.537865V1.6136C11.8338 1.91065 11.593 2.15146 11.296 2.15146C10.9989 2.15146 10.7581 1.91065 10.7581 1.6136V0.537865C10.7581 0.240813 10.9989 0 11.296 0Z" fill="var(--fill-0, #939393)"/>
<path id="Vector_3" fill-rule="evenodd" clip-rule="evenodd" d="M0 5.19937C0 4.90232 0.240813 4.6615 0.537865 4.6615H14.8809C15.178 4.6615 15.4188 4.90232 15.4188 5.19937C15.4188 5.49642 15.178 5.73724 14.8809 5.73724H0.537865C0.240813 5.73724 0 5.49642 0 5.19937Z" fill="var(--fill-0, #939393)"/>
</g>
<path id="Vector_4" fill-rule="evenodd" clip-rule="evenodd" d="M6.23506 1.07574H9.18459C10.5026 1.07572 11.5465 1.07572 12.3634 1.18556C13.2042 1.2986 13.8848 1.53678 14.4215 2.07347C14.9582 2.61017 15.1963 3.29071 15.3094 4.13152C15.4192 4.9485 15.4192 5.9924 15.4192 7.31039V8.82559C15.4192 10.1436 15.4192 11.1875 15.3094 12.0044C15.1963 12.8452 14.9582 13.5258 14.4215 14.0625C13.8848 14.5992 13.2042 14.8373 12.3634 14.9504C11.5465 15.0602 10.5026 15.0602 9.18459 15.0602H6.23507C4.91711 15.0602 3.8732 15.0602 3.05621 14.9504C2.2154 14.8373 1.53486 14.5992 0.998161 14.0625C0.461472 13.5258 0.223291 12.8452 0.110253 12.0044C0.000406737 11.1875 0.000413953 10.1436 0.000428296 8.82559V7.31039C0.000413953 5.9924 0.000406737 4.9485 0.110253 4.13152C0.223291 3.29071 0.461472 2.61017 0.998161 2.07347C1.53486 1.53678 2.2154 1.2986 3.05621 1.18556C3.8732 1.07572 4.91711 1.07572 6.23506 1.07574ZM3.19954 2.2517C2.47802 2.3487 2.06232 2.53062 1.75882 2.83413C1.45531 3.13763 1.27339 3.55333 1.17639 4.27485C1.0773 5.01184 1.07616 5.98336 1.07616 7.35083V8.78514C1.07616 10.1526 1.0773 11.1241 1.17639 11.8612C1.27339 12.5826 1.45531 12.9983 1.75882 13.3018C2.06232 13.6053 2.47802 13.7873 3.19954 13.8842C3.93653 13.9834 4.90804 13.9845 6.27552 13.9845H9.14414C10.5116 13.9845 11.4831 13.9834 12.2202 13.8842C12.9416 13.7873 13.3573 13.6053 13.6608 13.3018C13.9643 12.9983 14.1463 12.5826 14.2432 11.8612C14.3424 11.1241 14.3435 10.1526 14.3435 8.78514V7.35083C14.3435 5.98336 14.3424 5.01184 14.2432 4.27485C14.1463 3.55333 13.9643 3.13763 13.6608 2.83413C13.3573 2.53062 12.9416 2.3487 12.2202 2.2517C11.4831 2.15261 10.5116 2.15147 9.14414 2.15147H6.27552C4.90804 2.15147 3.93653 2.15261 3.19954 2.2517Z" fill="var(--fill-0, #939393)"/>
<path id="Vector_5" fill-rule="evenodd" clip-rule="evenodd" d="M10.9369 10.0402C10.6399 10.0402 10.399 10.281 10.399 10.5781C10.399 10.8751 10.6399 11.1159 10.9369 11.1159C11.234 11.1159 11.4748 10.8751 11.4748 10.5781C11.4748 10.281 11.234 10.0402 10.9369 10.0402ZM9.32331 10.5781C9.32331 9.68693 10.0458 8.96447 10.9369 8.96447C11.828 8.96447 12.5505 9.68693 12.5505 10.5781C12.5505 11.4692 11.828 12.1917 10.9369 12.1917C10.0458 12.1917 9.32331 11.4692 9.32331 10.5781Z" fill="var(--fill-0, #939393)"/>
</g>
</svg>
