<svg preserveAspectRatio="none" width="100%" height="100%" overflow="visible" style="display: block;" viewBox="0 0 10 9" fill="none" xmlns="http://www.w3.org/2000/svg">
<g id="Group">
<path id="Vector" fill-rule="evenodd" clip-rule="evenodd" d="M7.6767 5.19575C7.73237 4.98005 7.95243 4.85032 8.16813 4.90603C8.60085 5.01773 8.9842 5.27002 9.25799 5.62323C9.53178 5.97641 9.68055 6.41055 9.68087 6.85747V7.66455C9.68087 7.88735 9.50027 8.06795 9.27747 8.06795C9.05468 8.06795 8.87407 7.88735 8.87407 7.66455V6.85804C8.87407 6.85808 8.87407 6.858 8.87407 6.85804C8.87383 6.58994 8.7846 6.32938 8.62034 6.11752C8.45607 5.90557 8.22605 5.75422 7.96643 5.68717C7.75073 5.6315 7.621 5.41149 7.6767 5.19575Z" fill="var(--fill-0, #02B346)"/>
<path id="Vector_2" fill-rule="evenodd" clip-rule="evenodd" d="M0.590766 5.43161C0.969025 5.05335 1.48206 4.84084 2.017 4.84084H5.24419C5.77914 4.84084 6.29218 5.05335 6.6704 5.43161C7.04867 5.80984 7.26118 6.32288 7.26118 6.85783V7.66463C7.26118 7.88743 7.08058 8.06803 6.85778 8.06803C6.63499 8.06803 6.45438 7.88743 6.45438 7.66463V6.85783C6.45438 6.53689 6.32687 6.22905 6.09992 6.0021C5.87297 5.77515 5.56513 5.64763 5.24419 5.64763H2.017C1.69603 5.64763 1.38821 5.77515 1.16126 6.0021C0.9343 6.22905 0.806798 6.53689 0.806798 6.85783V7.66463C0.806798 7.88743 0.626188 8.06803 0.403399 8.06803C0.180608 8.06803 0 7.88743 0 7.66463V6.85783C0 6.32288 0.212504 5.80984 0.590766 5.43161Z" fill="var(--fill-0, #02B346)"/>
<path id="Vector_3" fill-rule="evenodd" clip-rule="evenodd" d="M6.06337 0.355776C6.11864 0.13995 6.33841 0.00978095 6.55423 0.0650426C6.98812 0.176131 7.37264 0.428457 7.64728 0.782242C7.92187 1.13603 8.07093 1.57115 8.07093 2.01901C8.07093 2.46686 7.92187 2.90199 7.64728 3.25579C7.37264 3.60957 6.98812 3.86189 6.55423 3.97299C6.33841 4.02822 6.11864 3.89808 6.06337 3.68222C6.00815 3.4664 6.13828 3.24663 6.35414 3.19138C6.61445 3.12474 6.84516 2.97334 7.00995 2.76107C7.17469 2.54879 7.26413 2.28772 7.26413 2.01901C7.26413 1.75029 7.17469 1.48922 7.00995 1.27695C6.84516 1.06468 6.61445 0.913282 6.35414 0.846628C6.13828 0.791367 6.00815 0.571607 6.06337 0.355776Z" fill="var(--fill-0, #02B346)"/>
<path id="Vector_4" fill-rule="evenodd" clip-rule="evenodd" d="M3.63015 0.806798C2.96178 0.806798 2.41995 1.34862 2.41995 2.017C2.41995 2.68537 2.96178 3.22719 3.63015 3.22719C4.29854 3.22719 4.84035 2.68537 4.84035 2.017C4.84035 1.34862 4.29854 0.806798 3.63015 0.806798ZM1.61316 2.017C1.61316 0.903041 2.5162 0 3.63015 0C4.7441 0 5.64715 0.903041 5.64715 2.017C5.64715 3.13095 4.7441 4.03399 3.63015 4.03399C2.5162 4.03399 1.61316 3.13095 1.61316 2.017Z" fill="var(--fill-0, #02B346)"/>
</g>
</svg>
