<svg preserveAspectRatio="none" width="100%" height="100%" overflow="visible" style="display: block;" viewBox="0 0 14 14" fill="none" xmlns="http://www.w3.org/2000/svg">
<g id="Component/icon/ic_Activity">
<path id="Combined Shape" d="M6.6543 0C10.3293 0 13.3085 2.97935 13.3086 6.6543C13.3086 10.3293 10.3293 13.3086 6.6543 13.3086C2.97964 13.3081 3.29868e-05 10.3291 0 6.6543C0.000128006 2.97962 2.9797 0.000450548 6.6543 0ZM6.65625 1.21094C3.64958 1.21117 1.21191 3.64855 1.21191 6.65527C1.21215 9.6618 3.64972 12.0994 6.65625 12.0996C9.66282 12.0994 12.1003 9.66183 12.1006 6.65527C12.1006 3.64852 9.66297 1.21111 6.65625 1.21094ZM6.6543 2.41992C6.98822 2.42012 7.25879 2.69142 7.25879 3.02539V6.35938L9.74707 8.29492C10.0108 8.50004 10.0586 8.87983 9.85352 9.14355C9.64846 9.40704 9.26854 9.45479 9.00488 9.25L6.28223 7.13184C6.13511 7.01722 6.04883 6.84081 6.04883 6.6543V3.02539C6.04883 2.69129 6.3202 2.41992 6.6543 2.41992Z" fill="var(--fill-0, #775DA6)"/>
</g>
</svg>
