<svg preserveAspectRatio="none" width="100%" height="100%" overflow="visible" style="display: block;" viewBox="0 0 43 43" fill="none" xmlns="http://www.w3.org/2000/svg">
<g id="info">
<path id="Vector" d="M21.4746 39.3689C31.3577 39.3689 39.3696 31.3571 39.3696 21.474C39.3696 11.5909 31.3577 3.579 21.4746 3.579C11.5915 3.579 3.57964 11.5909 3.57964 21.474C3.57964 31.3571 11.5915 39.3689 21.4746 39.3689Z" fill="var(--fill-0, white)"/>
<g id="alert-circle" clip-path="url(#clip0_3186_1492)">
<path id="Vector_2" d="M21.4748 29.9955C26.1811 29.9955 29.9962 26.1803 29.9962 21.4741C29.9962 16.7678 26.1811 12.9527 21.4748 12.9527C16.7686 12.9527 12.9534 16.7678 12.9534 21.4741C12.9534 26.1803 16.7686 29.9955 21.4748 29.9955Z" stroke="var(--stroke-0, #FDB73E)" stroke-width="2.04514" stroke-linecap="round" stroke-linejoin="round"/>
<path id="Vector_3" d="M21.4755 18.0654V21.474" stroke="var(--stroke-0, #FDB73E)" stroke-width="2.04514" stroke-linecap="round" stroke-linejoin="round"/>
<path id="Vector_4" d="M21.4755 24.8826H21.4842" stroke="var(--stroke-0, #FDB73E)" stroke-width="2.04514" stroke-linecap="round" stroke-linejoin="round"/>
</g>
</g>
<defs>
<clipPath id="clip0_3186_1492">
<rect width="20.4514" height="20.4514" fill="white" transform="translate(11.2489 11.2483)"/>
</clipPath>
</defs>
</svg>
