<svg preserveAspectRatio="none" width="100%" height="100%" overflow="visible" style="display: block;" viewBox="0 0 16 16" fill="none" xmlns="http://www.w3.org/2000/svg">
<g id="Group">
<g id="Group_2">
<path id="Vector" fill-rule="evenodd" clip-rule="evenodd" d="M4.1239 0C4.42095 0 4.66176 0.240813 4.66176 0.537865V1.6136C4.66176 1.91065 4.42095 2.15146 4.1239 2.15146C3.82684 2.15146 3.58603 1.91065 3.58603 1.6136V0.537865C3.58603 0.240813 3.82684 0 4.1239 0Z" fill="var(--fill-0, #939393)"/>
<path id="Vector_2" fill-rule="evenodd" clip-rule="evenodd" d="M11.294 0C11.591 0 11.8318 0.240813 11.8318 0.537865V1.6136C11.8318 1.91065 11.591 2.15146 11.294 2.15146C10.9969 2.15146 10.7561 1.91065 10.7561 1.6136V0.537865C10.7561 0.240813 10.9969 0 11.294 0Z" fill="var(--fill-0, #939393)"/>
<path id="Vector_3" fill-rule="evenodd" clip-rule="evenodd" d="M0 5.19937C0 4.90232 0.240813 4.6615 0.537865 4.6615H14.8809C15.178 4.6615 15.4188 4.90232 15.4188 5.19937C15.4188 5.49642 15.178 5.73723 14.8809 5.73723H0.537865C0.240813 5.73723 0 5.49642 0 5.19937Z" fill="var(--fill-0, #939393)"/>
</g>
<path id="Vector_4" fill-rule="evenodd" clip-rule="evenodd" d="M6.2348 1.07573H9.18433C10.5023 1.07572 11.5462 1.07571 12.3632 1.18556C13.204 1.2986 13.8846 1.53678 14.4213 2.07347C14.9579 2.61016 15.1961 3.29071 15.3092 4.13151C15.419 4.9485 15.419 5.9924 15.419 7.31038V8.82559C15.419 10.1436 15.419 11.1875 15.3092 12.0044C15.1961 12.8452 14.9579 13.5258 14.4213 14.0625C13.8846 14.5992 13.204 14.8373 12.3632 14.9504C11.5462 15.0602 10.5023 15.0602 9.18433 15.0602H6.23481C4.91685 15.0602 3.87294 15.0602 3.05595 14.9504C2.21514 14.8373 1.5346 14.5992 0.997903 14.0625C0.461213 13.5258 0.223032 12.8452 0.109994 12.0044C0.000148034 11.1875 0.00015525 10.1436 0.000169593 8.82559V7.31038C0.00015525 5.9924 0.000148034 4.9485 0.109994 4.13151C0.223032 3.29071 0.461213 2.61016 0.997903 2.07347C1.5346 1.53678 2.21514 1.2986 3.05595 1.18556C3.87294 1.07571 4.91685 1.07572 6.2348 1.07573ZM3.19928 2.25169C2.47776 2.3487 2.06207 2.53062 1.75856 2.83412C1.45505 3.13763 1.27313 3.55333 1.17613 4.27485C1.07704 5.01184 1.0759 5.98336 1.0759 7.35083V8.78514C1.0759 10.1526 1.07704 11.1241 1.17613 11.8612C1.27313 12.5826 1.45505 12.9983 1.75856 13.3018C2.06207 13.6053 2.47776 13.7873 3.19928 13.8842C3.93628 13.9834 4.90778 13.9845 6.27526 13.9845H9.14388C10.5113 13.9845 11.4829 13.9834 12.2199 13.8842C12.9414 13.7873 13.3571 13.6053 13.6606 13.3018C13.9641 12.9983 14.146 12.5826 14.243 11.8612C14.3421 11.1241 14.3432 10.1526 14.3432 8.78514V7.35083C14.3432 5.98336 14.3421 5.01184 14.243 4.27485C14.146 3.55333 13.9641 3.13763 13.6606 2.83412C13.3571 2.53062 12.9414 2.3487 12.2199 2.25169C11.4829 2.1526 10.5113 2.15146 9.14388 2.15146H6.27526C4.90778 2.15146 3.93628 2.1526 3.19928 2.25169Z" fill="var(--fill-0, #939393)"/>
<path id="Vector_5" fill-rule="evenodd" clip-rule="evenodd" d="M10.9346 10.0402C10.6376 10.0402 10.3968 10.281 10.3968 10.5781C10.3968 10.8751 10.6376 11.1159 10.9346 11.1159C11.2317 11.1159 11.4725 10.8751 11.4725 10.5781C11.4725 10.281 11.2317 10.0402 10.9346 10.0402ZM9.32105 10.5781C9.32105 9.68693 10.0435 8.96447 10.9346 8.96447C11.8258 8.96447 12.5482 9.68693 12.5482 10.5781C12.5482 11.4692 11.8258 12.1917 10.9346 12.1917C10.0435 12.1917 9.32105 11.4692 9.32105 10.5781Z" fill="var(--fill-0, #939393)"/>
</g>
</svg>
