<svg width="38" height="38" viewBox="0 0 38 38" fill="none" xmlns="http://www.w3.org/2000/svg">
<g clip-path="url(#clip0_153_2082)">
<path d="M27.914 28.7008L26.1342 26.9209C25.5432 26.3299 25.2112 25.5284 25.2112 24.6927V20.4832M9.45486 33.0883H6.3036C4.56321 33.0883 3.15234 31.6775 3.15234 29.937V15.7563M3.15234 15.7563H11.0305M3.15234 15.7563V9.45383C3.15234 7.71343 4.56321 6.30257 6.3036 6.30257H9.45486M34.6649 10.2416V9.45383C34.6649 7.71343 33.2541 6.30257 31.5137 6.30257H28.3624M28.3624 6.30257V3.15131M28.3624 6.30257H18.9086M9.45486 6.30257H18.9086M9.45486 6.30257V3.15131M18.9086 6.30257V3.15131M36.2406 25.2101C36.2406 31.3015 31.3026 36.2395 25.2112 36.2395C19.1198 36.2395 14.1818 31.3015 14.1818 25.2101C14.1818 19.1187 19.1198 14.1807 25.2112 14.1807C31.3026 14.1807 36.2406 19.1187 36.2406 25.2101Z" stroke="#775DA6" stroke-width="2.36345" stroke-linecap="round" stroke-linejoin="round"/>
</g>
<defs>
<clipPath id="clip0_153_2082">
<rect width="37.8151" height="37.8151" fill="white"/>
</clipPath>
</defs>
</svg>
