<svg preserveAspectRatio="none" width="100%" height="100%" overflow="visible" style="display: block;" viewBox="0 0 38 38" fill="none" xmlns="http://www.w3.org/2000/svg">
<g id="calendar_12377295 1" clip-path="url(#clip0_3186_1528)">
<path id="Vector" d="M27.9133 28.7008L26.1334 26.9209C25.5424 26.3299 25.2104 25.5284 25.2104 24.6927V20.4832M9.45412 33.0883H6.30286C4.56246 33.0883 3.15159 31.6775 3.15159 29.937V15.7563M3.15159 15.7563H11.0297M3.15159 15.7563V9.45382C3.15159 7.71343 4.56246 6.30256 6.30286 6.30256H9.45412M34.6642 10.2416V9.45382C34.6642 7.71343 33.2534 6.30256 31.5129 6.30256H28.3617M28.3617 6.30256V3.1513M28.3617 6.30256H18.9079M9.45412 6.30256H18.9079M9.45412 6.30256V3.1513M18.9079 6.30256V3.1513M36.2398 25.2101C36.2398 31.3015 31.3018 36.2395 25.2104 36.2395C19.119 36.2395 14.181 31.3015 14.181 25.2101C14.181 19.1187 19.119 14.1807 25.2104 14.1807C31.3018 14.1807 36.2398 19.1187 36.2398 25.2101Z" stroke="var(--stroke-0, #02B346)" stroke-width="2.36345" stroke-linecap="round" stroke-linejoin="round"/>
</g>
<defs>
<clipPath id="clip0_3186_1528">
<rect width="37.8151" height="37.8151" fill="white"/>
</clipPath>
</defs>
</svg>
