<svg preserveAspectRatio="none" width="100%" height="100%" overflow="visible" style="display: block;" viewBox="0 0 15 15" fill="none" xmlns="http://www.w3.org/2000/svg">
<g id="Component/icon/ic_Activity">
<path id="Combined Shape" d="M7.38184 0C11.4584 1.94493e-05 14.7635 3.30432 14.7637 7.38086C14.7637 11.4575 11.4585 14.7627 7.38184 14.7627C3.30535 14.7625 0 11.4574 0 7.38086C0.000124951 3.30443 3.30543 0.000196433 7.38184 0ZM7.38281 1.3418C4.04765 1.34202 1.3439 4.04568 1.34375 7.38086C1.34375 10.7162 4.04756 13.4207 7.38281 13.4209C10.7183 13.4209 13.4219 10.7163 13.4219 7.38086C13.4217 4.04554 10.7182 1.3418 7.38281 1.3418ZM7.38184 2.68359C7.75223 2.68372 8.05256 2.98411 8.05273 3.35449V7.05273L10.8135 9.2002C11.1058 9.42777 11.1581 9.84914 10.9307 10.1416C10.7032 10.434 10.2818 10.4871 9.98926 10.2598L6.96973 7.91113C6.80627 7.784 6.71094 7.58794 6.71094 7.38086V3.35449C6.71111 2.98403 7.01134 2.68359 7.38184 2.68359Z" fill="var(--fill-0, #252525)" fill-opacity="0.5"/>
</g>
</svg>
