<svg preserveAspectRatio="none" width="100%" height="100%" overflow="visible" style="display: block;" viewBox="0 0 13 14" fill="none" xmlns="http://www.w3.org/2000/svg">
<g id="Component/icon/ic_File">
<path id="Shape" fill-rule="evenodd" clip-rule="evenodd" d="M2.41974 0H8.18575C8.54482 0 8.88533 0.159489 9.1152 0.43533L11.8183 3.67902C11.9995 3.89645 12.0987 4.17053 12.0987 4.45356V10.8888C12.0987 12.2252 11.0153 13.3086 9.67896 13.3086H2.41974C1.08335 13.3086 0 12.2252 0 10.8888V2.41974C0 1.08335 1.08335 0 2.41974 0ZM10.89 10.8891V4.83972H9.07524C8.40705 4.83972 7.86537 4.29804 7.86537 3.62985V1.21011H2.42095C1.75276 1.21011 1.21109 1.75178 1.21109 2.41998V10.8891C1.21109 11.5573 1.75276 12.0989 2.42095 12.0989H9.68017C10.3484 12.0989 10.89 11.5573 10.89 10.8891ZM10.2054 3.62975L9.07726 2.27593V3.62975H10.2054ZM3.63069 7.86411C3.29659 7.86411 3.02575 7.59327 3.02575 7.25917C3.02575 6.92507 3.29659 6.65424 3.63069 6.65424H8.47017C8.80426 6.65424 9.0751 6.92507 9.0751 7.25917C9.0751 7.59327 8.80426 7.86411 8.47017 7.86411H3.63069ZM3.63069 10.2837C3.29659 10.2837 3.02575 10.0129 3.02575 9.67876C3.02575 9.34467 3.29659 9.07383 3.63069 9.07383H7.2603C7.59439 9.07383 7.86523 9.34467 7.86523 9.67876C7.86523 10.0129 7.59439 10.2837 7.2603 10.2837H3.63069ZM3.63069 5.4445C3.29659 5.4445 3.02575 5.17367 3.02575 4.83957C3.02575 4.50547 3.29659 4.23463 3.63069 4.23463H5.44549C5.77959 4.23463 6.05043 4.50547 6.05043 4.83957C6.05043 5.17367 5.77959 5.4445 5.44549 5.4445H3.63069Z" fill="var(--fill-0, #775DA6)"/>
</g>
</svg>
