<svg preserveAspectRatio="none" width="100%" height="100%" overflow="visible" style="display: block;" viewBox="0 0 123 28" fill="none" xmlns="http://www.w3.org/2000/svg">
<g id="BTN">
<g id="Rectangle 1" filter="url(#filter0_i_3186_1439)">
<rect width="122.621" height="27.4527" rx="5.22909" fill="var(--fill-0, #775DA6)"/>
</g>
<g id="Vector 1" filter="url(#filter1_f_3186_1439)">
<path d="M1.549 3.88656C1.63637 2.7925 2.90392 2.90004 3.46405 3.00217C3.58478 3.02418 3.62871 3.16916 3.55126 3.26435C3.27638 3.60217 2.76294 4.31306 2.63794 5.04342C2.00142 8.76266 2.19624 15.2577 2.29723 17.6639C2.32324 18.2835 2.25968 18.9005 2.10014 19.4998L1.549 21.57C1.549 21.57 1.15303 8.84453 1.549 3.88656Z" fill="var(--fill-0, white)" fill-opacity="0.3"/>
<path d="M1.549 3.88656C1.63637 2.7925 2.90392 2.90004 3.46405 3.00217C3.58478 3.02418 3.62871 3.16916 3.55126 3.26435C3.27638 3.60217 2.76294 4.31306 2.63794 5.04342C2.00142 8.76266 2.19624 15.2577 2.29723 17.6639C2.32324 18.2835 2.25968 18.9005 2.10014 19.4998L1.549 21.57C1.549 21.57 1.15303 8.84453 1.549 3.88656Z" fill="url(#paint0_linear_3186_1439)"/>
</g>
<g id="Line 1" filter="url(#filter2_f_3186_1439)">
<path d="M4.21545 3.19222H119.172" stroke="var(--stroke-0, white)" stroke-width="0.163409" stroke-linecap="round"/>
</g>
</g>
<defs>
<filter id="filter0_i_3186_1439" x="-1.96091" y="-1.96091" width="124.582" height="29.4136" filterUnits="userSpaceOnUse" color-interpolation-filters="sRGB">
<feFlood flood-opacity="0" result="BackgroundImageFix"/>
<feBlend mode="normal" in="SourceGraphic" in2="BackgroundImageFix" result="shape"/>
<feColorMatrix in="SourceAlpha" type="matrix" values="0 0 0 0 0 0 0 0 0 0 0 0 0 0 0 0 0 0 127 0" result="hardAlpha"/>
<feOffset dx="-1.96091" dy="-1.96091"/>
<feGaussianBlur stdDeviation="1.63409"/>
<feComposite in2="hardAlpha" operator="arithmetic" k2="-1" k3="1"/>
<feColorMatrix type="matrix" values="0 0 0 0 0 0 0 0 0 0 0 0 0 0 0 0 0 0 0.3 0"/>
<feBlend mode="normal" in2="shape" result="effect1_innerShadow_3186_1439"/>
</filter>
<filter id="filter1_f_3186_1439" x="0.0657391" y="1.63409" width="4.83145" height="21.2432" filterUnits="userSpaceOnUse" color-interpolation-filters="sRGB">
<feFlood flood-opacity="0" result="BackgroundImageFix"/>
<feBlend mode="normal" in="SourceGraphic" in2="BackgroundImageFix" result="shape"/>
<feGaussianBlur stdDeviation="0.653636" result="effect1_foregroundBlur_3186_1439"/>
</filter>
<filter id="filter2_f_3186_1439" x="2.82647" y="1.80324" width="117.735" height="2.77795" filterUnits="userSpaceOnUse" color-interpolation-filters="sRGB">
<feFlood flood-opacity="0" result="BackgroundImageFix"/>
<feBlend mode="normal" in="SourceGraphic" in2="BackgroundImageFix" result="shape"/>
<feGaussianBlur stdDeviation="0.653636" result="effect1_foregroundBlur_3186_1439"/>
</filter>
<linearGradient id="paint0_linear_3186_1439" x1="1.37301" y1="3.43716" x2="2.76133" y2="4.18561" gradientUnits="userSpaceOnUse">
<stop stop-color="white"/>
<stop offset="1" stop-color="white" stop-opacity="0"/>
</linearGradient>
</defs>
</svg>
