<svg preserveAspectRatio="none" width="100%" height="100%" overflow="visible" style="display: block;" viewBox="0 0 123 28" fill="none" xmlns="http://www.w3.org/2000/svg">
<g id="BTN">
<g id="Rectangle 1" filter="url(#filter0_i_3186_1499)">
<rect width="122.621" height="27.4527" rx="5.22909" fill="var(--fill-0, #FDB73E)"/>
</g>
<g id="Vector 1" filter="url(#filter1_f_3186_1499)">
<path d="M1.54899 3.88657C1.63637 2.79252 2.90391 2.90005 3.46404 3.00218C3.58477 3.02419 3.62871 3.16917 3.55125 3.26436C3.27637 3.60218 2.76293 4.31307 2.63794 5.04343C2.00141 8.76267 2.19623 15.2577 2.29722 17.6639C2.32323 18.2835 2.25968 18.9005 2.10014 19.4998L1.54899 21.57C1.54899 21.57 1.15302 8.84454 1.54899 3.88657Z" fill="var(--fill-0, white)" fill-opacity="0.3"/>
<path d="M1.54899 3.88657C1.63637 2.79252 2.90391 2.90005 3.46404 3.00218C3.58477 3.02419 3.62871 3.16917 3.55125 3.26436C3.27637 3.60218 2.76293 4.31307 2.63794 5.04343C2.00141 8.76267 2.19623 15.2577 2.29722 17.6639C2.32323 18.2835 2.25968 18.9005 2.10014 19.4998L1.54899 21.57C1.54899 21.57 1.15302 8.84454 1.54899 3.88657Z" fill="url(#paint0_linear_3186_1499)"/>
</g>
<g id="Line 1" filter="url(#filter2_f_3186_1499)">
<path d="M4.21744 3.19223H119.174" stroke="var(--stroke-0, white)" stroke-width="0.163409" stroke-linecap="round"/>
</g>
</g>
<defs>
<filter id="filter0_i_3186_1499" x="-1.96091" y="-1.96091" width="124.582" height="29.4136" filterUnits="userSpaceOnUse" color-interpolation-filters="sRGB">
<feFlood flood-opacity="0" result="BackgroundImageFix"/>
<feBlend mode="normal" in="SourceGraphic" in2="BackgroundImageFix" result="shape"/>
<feColorMatrix in="SourceAlpha" type="matrix" values="0 0 0 0 0 0 0 0 0 0 0 0 0 0 0 0 0 0 127 0" result="hardAlpha"/>
<feOffset dx="-1.96091" dy="-1.96091"/>
<feGaussianBlur stdDeviation="1.63409"/>
<feComposite in2="hardAlpha" operator="arithmetic" k2="-1" k3="1"/>
<feColorMatrix type="matrix" values="0 0 0 0 0 0 0 0 0 0 0 0 0 0 0 0 0 0 0.3 0"/>
<feBlend mode="normal" in2="shape" result="effect1_innerShadow_3186_1499"/>
</filter>
<filter id="filter1_f_3186_1499" x="0.0657324" y="1.6341" width="4.83145" height="21.2432" filterUnits="userSpaceOnUse" color-interpolation-filters="sRGB">
<feFlood flood-opacity="0" result="BackgroundImageFix"/>
<feBlend mode="normal" in="SourceGraphic" in2="BackgroundImageFix" result="shape"/>
<feGaussianBlur stdDeviation="0.653636" result="effect1_foregroundBlur_3186_1499"/>
</filter>
<filter id="filter2_f_3186_1499" x="2.82847" y="1.80326" width="117.735" height="2.77795" filterUnits="userSpaceOnUse" color-interpolation-filters="sRGB">
<feFlood flood-opacity="0" result="BackgroundImageFix"/>
<feBlend mode="normal" in="SourceGraphic" in2="BackgroundImageFix" result="shape"/>
<feGaussianBlur stdDeviation="0.653636" result="effect1_foregroundBlur_3186_1499"/>
</filter>
<linearGradient id="paint0_linear_3186_1499" x1="1.373" y1="3.43717" x2="2.76132" y2="4.18562" gradientUnits="userSpaceOnUse">
<stop stop-color="white"/>
<stop offset="1" stop-color="white" stop-opacity="0"/>
</linearGradient>
</defs>
</svg>
