<svg preserveAspectRatio="none" width="100%" height="100%" overflow="visible" style="display: block;" viewBox="0 0 10 10" fill="none" xmlns="http://www.w3.org/2000/svg">
<g id="Group" filter="url(#filter0_d_3186_1410)">
<g id="Group_2">
<path id="Vector" fill-rule="evenodd" clip-rule="evenodd" d="M2.58849 0C2.77502 0 2.92622 0.151208 2.92622 0.337729V1.01319C2.92622 1.19971 2.77502 1.35092 2.58849 1.35092C2.40197 1.35092 2.25076 1.19971 2.25076 1.01319V0.337729C2.25076 0.151208 2.40197 0 2.58849 0Z" fill="var(--fill-0, white)"/>
<path id="Vector_2" fill-rule="evenodd" clip-rule="evenodd" d="M7.09402 0C7.28054 0 7.43175 0.151208 7.43175 0.337729V1.01319C7.43175 1.19971 7.28054 1.35092 7.09402 1.35092C6.9075 1.35092 6.75629 1.19971 6.75629 1.01319V0.337729C6.75629 0.151208 6.9075 0 7.09402 0Z" fill="var(--fill-0, white)"/>
<path id="Vector_3" fill-rule="evenodd" clip-rule="evenodd" d="M0 3.26475C0 3.07823 0.151208 2.92702 0.337729 2.92702H9.34385C9.53036 2.92702 9.68158 3.07823 9.68158 3.26475C9.68158 3.45127 9.53036 3.60248 9.34385 3.60248H0.337729C0.151208 3.60248 0 3.45127 0 3.26475Z" fill="var(--fill-0, white)"/>
</g>
<path id="Vector_4" fill-rule="evenodd" clip-rule="evenodd" d="M3.91537 0.675432H5.7674C6.59497 0.675423 7.25044 0.675418 7.76343 0.744391C8.29136 0.815369 8.71871 0.964924 9.05571 1.30192C9.39268 1.63891 9.54222 2.06623 9.61324 2.59418C9.68218 3.10717 9.68218 3.76264 9.68218 4.59021V5.54162C9.68218 6.36919 9.68218 7.02465 9.61324 7.53764C9.54222 8.06558 9.39268 8.49292 9.05571 8.82993C8.71871 9.16689 8.29136 9.31644 7.76343 9.38745C7.25044 9.4564 6.59497 9.4564 5.7674 9.4564H3.91538C3.08782 9.4564 2.43234 9.4564 1.91935 9.38745C1.3914 9.31644 0.964081 9.16689 0.627086 8.82993C0.290095 8.49292 0.140539 8.06558 0.0695623 7.53764C0.000588908 7.02465 0.000593439 6.36919 0.000602445 5.54162V4.59021C0.000593439 3.76264 0.000588908 3.10717 0.0695623 2.59418C0.140539 2.06623 0.290095 1.63891 0.627086 1.30192C0.964081 0.964924 1.3914 0.815369 1.91935 0.744391C2.43234 0.675418 3.08782 0.675423 3.91537 0.675432ZM2.00935 1.41383C1.5563 1.47473 1.29528 1.58896 1.10471 1.77954C0.914134 1.97011 0.799904 2.23113 0.738996 2.68418C0.676777 3.14694 0.676061 3.75696 0.676061 4.61561V5.51622C0.676061 6.37486 0.676777 6.98489 0.738996 7.44767C0.799904 7.90068 0.914134 8.16172 1.10471 8.35229C1.29528 8.54286 1.5563 8.6571 2.00935 8.71798C2.47211 8.78022 3.08213 8.78094 3.94078 8.78094H5.742C6.60065 8.78094 7.21068 8.78022 7.67345 8.71798C8.12646 8.6571 8.3875 8.54286 8.57807 8.35229C8.76864 8.16172 8.88289 7.90068 8.94377 7.44767C9.006 6.98489 9.00672 6.37486 9.00672 5.51622V4.61561C9.00672 3.75696 9.006 3.14694 8.94377 2.68418C8.88289 2.23113 8.76864 1.97011 8.57807 1.77954C8.3875 1.58896 8.12646 1.47473 7.67345 1.41383C7.21068 1.35161 6.60065 1.35089 5.742 1.35089H3.94078C3.08213 1.35089 2.47211 1.35161 2.00935 1.41383Z" fill="var(--fill-0, white)"/>
<path id="Vector_5" fill-rule="evenodd" clip-rule="evenodd" d="M6.86858 6.30423C6.68206 6.30423 6.53085 6.45545 6.53085 6.64196C6.53085 6.82848 6.68206 6.97969 6.86858 6.97969C7.05509 6.97969 7.20631 6.82848 7.20631 6.64196C7.20631 6.45545 7.05509 6.30423 6.86858 6.30423ZM5.85539 6.64196C5.85539 6.08241 6.30903 5.62878 6.86858 5.62878C7.42813 5.62878 7.88177 6.08241 7.88177 6.64196C7.88177 7.20151 7.42813 7.65515 6.86858 7.65515C6.30903 7.65515 5.85539 7.20151 5.85539 6.64196Z" fill="var(--fill-0, white)"/>
</g>
<defs>
<filter id="filter0_d_3186_1410" x="0" y="0" width="9.68218" height="9.99426" filterUnits="userSpaceOnUse" color-interpolation-filters="sRGB">
<feFlood flood-opacity="0" result="BackgroundImageFix"/>
<feColorMatrix in="SourceAlpha" type="matrix" values="0 0 0 0 0 0 0 0 0 0 0 0 0 0 0 0 0 0 127 0" result="hardAlpha"/>
<feOffset dy="0.537865"/>
<feComposite in2="hardAlpha" operator="out"/>
<feColorMatrix type="matrix" values="0 0 0 0 0 0 0 0 0 0 0 0 0 0 0 0 0 0 0.15 0"/>
<feBlend mode="normal" in2="BackgroundImageFix" result="effect1_dropShadow_3186_1410"/>
<feBlend mode="normal" in="SourceGraphic" in2="effect1_dropShadow_3186_1410" result="shape"/>
</filter>
</defs>
</svg>
