<svg preserveAspectRatio="none" width="100%" height="100%" overflow="visible" style="display: block;" viewBox="0 0 10 10" fill="none" xmlns="http://www.w3.org/2000/svg">
<g id="Group" filter="url(#filter0_d_3186_1465)">
<g id="Group_2">
<path id="Vector" fill-rule="evenodd" clip-rule="evenodd" d="M2.58939 0C2.77591 0 2.92712 0.151208 2.92712 0.337729V1.01319C2.92712 1.19971 2.77591 1.35092 2.58939 1.35092C2.40286 1.35092 2.25166 1.19971 2.25166 1.01319V0.337729C2.25166 0.151208 2.40286 0 2.58939 0Z" fill="var(--fill-0, white)"/>
<path id="Vector_2" fill-rule="evenodd" clip-rule="evenodd" d="M7.09291 0C7.27943 0 7.43064 0.151208 7.43064 0.337729V1.01319C7.43064 1.19971 7.27943 1.35092 7.09291 1.35092C6.9064 1.35092 6.75519 1.19971 6.75519 1.01319V0.337729C6.75519 0.151208 6.9064 0 7.09291 0Z" fill="var(--fill-0, white)"/>
<path id="Vector_3" fill-rule="evenodd" clip-rule="evenodd" d="M0.000892026 3.26475C0.000892026 3.07823 0.1521 2.92702 0.338621 2.92702H9.34474C9.53126 2.92702 9.68247 3.07823 9.68247 3.26475C9.68247 3.45127 9.53126 3.60248 9.34474 3.60248H0.338621C0.1521 3.60248 0.000892026 3.45127 0.000892026 3.26475Z" fill="var(--fill-0, white)"/>
</g>
<path id="Vector_4" fill-rule="evenodd" clip-rule="evenodd" d="M3.91477 0.675452H5.7668C6.59437 0.675443 7.24984 0.675439 7.76282 0.744412C8.29076 0.815389 8.7181 0.964945 9.05511 1.30194C9.39208 1.63893 9.54162 2.06625 9.61264 2.5942C9.68158 3.10719 9.68158 3.76266 9.68158 4.59023V5.54164C9.68158 6.36921 9.68158 7.02467 9.61264 7.53766C9.54162 8.0656 9.39208 8.49294 9.05511 8.82995C8.7181 9.16692 8.29076 9.31646 7.76282 9.38748C7.24984 9.45642 6.59437 9.45642 5.7668 9.45642H3.91478C3.08722 9.45642 2.43174 9.45642 1.91874 9.38748C1.3908 9.31646 0.963479 9.16692 0.626484 8.82995C0.289493 8.49294 0.139937 8.0656 0.06896 7.53766C-1.33329e-05 7.02467 -8.80204e-06 6.36921 2.0408e-07 5.54164V4.59023C-8.80204e-06 3.76266 -1.33329e-05 3.10719 0.06896 2.5942C0.139937 2.06625 0.289493 1.63893 0.626484 1.30194C0.963479 0.964945 1.3908 0.815389 1.91874 0.744412C2.43174 0.675439 3.08722 0.675443 3.91477 0.675452ZM2.00875 1.41385C1.5557 1.47475 1.29468 1.58898 1.10411 1.77956C0.913531 1.97013 0.799302 2.23115 0.738394 2.6842C0.676175 3.14696 0.675459 3.75699 0.675459 4.61563V5.51624C0.675459 6.37488 0.676175 6.98491 0.738394 7.44769C0.799302 7.9007 0.913531 8.16174 1.10411 8.35231C1.29468 8.54288 1.5557 8.65712 2.00875 8.71801C2.47151 8.78024 3.08152 8.78096 3.94018 8.78096H5.7414C6.60004 8.78096 7.21007 8.78024 7.67285 8.71801C8.12586 8.65712 8.3869 8.54288 8.57747 8.35231C8.76804 8.16174 8.88228 7.9007 8.94317 7.44769C9.0054 6.98491 9.00612 6.37488 9.00612 5.51624V4.61563C9.00612 3.75699 9.0054 3.14696 8.94317 2.6842C8.88228 2.23115 8.76804 1.97013 8.57747 1.77956C8.3869 1.58898 8.12586 1.47475 7.67285 1.41385C7.21007 1.35163 6.60004 1.35091 5.7414 1.35091H3.94018C3.08152 1.35091 2.47151 1.35163 2.00875 1.41385Z" fill="var(--fill-0, white)"/>
<path id="Vector_5" fill-rule="evenodd" clip-rule="evenodd" d="M6.86598 6.30425C6.67946 6.30425 6.52825 6.45547 6.52825 6.64198C6.52825 6.8285 6.67946 6.97971 6.86598 6.97971C7.05249 6.97971 7.20371 6.8285 7.20371 6.64198C7.20371 6.45547 7.05249 6.30425 6.86598 6.30425ZM5.85279 6.64198C5.85279 6.08243 6.30643 5.6288 6.86598 5.6288C7.42553 5.6288 7.87916 6.08243 7.87916 6.64198C7.87916 7.20153 7.42553 7.65517 6.86598 7.65517C6.30643 7.65517 5.85279 7.20153 5.85279 6.64198Z" fill="var(--fill-0, white)"/>
</g>
<defs>
<filter id="filter0_d_3186_1465" x="0" y="0" width="9.68247" height="9.99428" filterUnits="userSpaceOnUse" color-interpolation-filters="sRGB">
<feFlood flood-opacity="0" result="BackgroundImageFix"/>
<feColorMatrix in="SourceAlpha" type="matrix" values="0 0 0 0 0 0 0 0 0 0 0 0 0 0 0 0 0 0 127 0" result="hardAlpha"/>
<feOffset dy="0.537865"/>
<feComposite in2="hardAlpha" operator="out"/>
<feColorMatrix type="matrix" values="0 0 0 0 0 0 0 0 0 0 0 0 0 0 0 0 0 0 0.15 0"/>
<feBlend mode="normal" in2="BackgroundImageFix" result="effect1_dropShadow_3186_1465"/>
<feBlend mode="normal" in="SourceGraphic" in2="effect1_dropShadow_3186_1465" result="shape"/>
</filter>
</defs>
</svg>
