<svg preserveAspectRatio="none" width="100%" height="100%" overflow="visible" style="display: block;" viewBox="0 0 10 10" fill="none" xmlns="http://www.w3.org/2000/svg">
<g id="Group" filter="url(#filter0_d_3186_1549)">
<g id="Group_2">
<path id="Vector" fill-rule="evenodd" clip-rule="evenodd" d="M2.58849 0C2.77502 0 2.92622 0.151208 2.92622 0.337729V1.01319C2.92622 1.19971 2.77502 1.35092 2.58849 1.35092C2.40197 1.35092 2.25076 1.19971 2.25076 1.01319V0.337729C2.25076 0.151208 2.40197 0 2.58849 0Z" fill="var(--fill-0, white)"/>
<path id="Vector_2" fill-rule="evenodd" clip-rule="evenodd" d="M7.09402 0C7.28054 0 7.43175 0.151208 7.43175 0.337729V1.01319C7.43175 1.19971 7.28054 1.35092 7.09402 1.35092C6.9075 1.35092 6.75629 1.19971 6.75629 1.01319V0.337729C6.75629 0.151208 6.9075 0 7.09402 0Z" fill="var(--fill-0, white)"/>
<path id="Vector_3" fill-rule="evenodd" clip-rule="evenodd" d="M0 3.26475C0 3.07823 0.151208 2.92702 0.337729 2.92702H9.34385C9.53036 2.92702 9.68158 3.07823 9.68158 3.26475C9.68158 3.45127 9.53036 3.60248 9.34385 3.60248H0.337729C0.151208 3.60248 0 3.45127 0 3.26475Z" fill="var(--fill-0, white)"/>
</g>
<path id="Vector_4" fill-rule="evenodd" clip-rule="evenodd" d="M3.91537 0.675447H5.7674C6.59497 0.675438 7.25044 0.675434 7.76343 0.744407C8.29136 0.815384 8.71871 0.96494 9.05571 1.30193C9.39268 1.63893 9.54222 2.06624 9.61324 2.59419C9.68218 3.10718 9.68218 3.76265 9.68218 4.59023V5.54163C9.68218 6.3692 9.68218 7.02467 9.61324 7.53766C9.54222 8.0656 9.39268 8.49294 9.05571 8.82995C8.71871 9.16691 8.29136 9.31646 7.76343 9.38747C7.25044 9.45641 6.59497 9.45641 5.7674 9.45641H3.91538C3.08782 9.45641 2.43234 9.45641 1.91935 9.38747C1.3914 9.31646 0.964081 9.16691 0.627086 8.82995C0.290095 8.49294 0.140539 8.0656 0.0695623 7.53766C0.000588908 7.02467 0.000593439 6.3692 0.000602445 5.54163V4.59023C0.000593439 3.76265 0.000588908 3.10718 0.0695623 2.59419C0.140539 2.06624 0.290095 1.63893 0.627086 1.30193C0.964081 0.96494 1.3914 0.815384 1.91935 0.744407C2.43234 0.675434 3.08782 0.675438 3.91537 0.675447ZM2.00935 1.41384C1.5563 1.47475 1.29528 1.58898 1.10471 1.77955C0.914134 1.97013 0.799904 2.23115 0.738996 2.68419C0.676777 3.14696 0.676061 3.75698 0.676061 4.61562V5.51624C0.676061 6.37488 0.676777 6.98491 0.738996 7.44769C0.799904 7.90069 0.914134 8.16174 1.10471 8.35231C1.29528 8.54288 1.5563 8.65712 2.00935 8.718C2.47211 8.78023 3.08213 8.78095 3.94078 8.78095H5.742C6.60065 8.78095 7.21068 8.78023 7.67345 8.718C8.12646 8.65712 8.3875 8.54288 8.57807 8.35231C8.76864 8.16174 8.88289 7.90069 8.94377 7.44769C9.006 6.98491 9.00672 6.37488 9.00672 5.51624V4.61562C9.00672 3.75698 9.006 3.14696 8.94377 2.68419C8.88289 2.23115 8.76864 1.97013 8.57807 1.77955C8.3875 1.58898 8.12646 1.47475 7.67345 1.41384C7.21068 1.35162 6.60065 1.35091 5.742 1.35091H3.94078C3.08213 1.35091 2.47211 1.35162 2.00935 1.41384Z" fill="var(--fill-0, white)"/>
<path id="Vector_5" fill-rule="evenodd" clip-rule="evenodd" d="M6.86858 6.30425C6.68206 6.30425 6.53085 6.45546 6.53085 6.64198C6.53085 6.8285 6.68206 6.97971 6.86858 6.97971C7.05509 6.97971 7.20631 6.8285 7.20631 6.64198C7.20631 6.45546 7.05509 6.30425 6.86858 6.30425ZM5.85539 6.64198C5.85539 6.08243 6.30903 5.62879 6.86858 5.62879C7.42813 5.62879 7.88177 6.08243 7.88177 6.64198C7.88177 7.20153 7.42813 7.65517 6.86858 7.65517C6.30903 7.65517 5.85539 7.20153 5.85539 6.64198Z" fill="var(--fill-0, white)"/>
</g>
<defs>
<filter id="filter0_d_3186_1549" x="0" y="0" width="9.68218" height="9.99428" filterUnits="userSpaceOnUse" color-interpolation-filters="sRGB">
<feFlood flood-opacity="0" result="BackgroundImageFix"/>
<feColorMatrix in="SourceAlpha" type="matrix" values="0 0 0 0 0 0 0 0 0 0 0 0 0 0 0 0 0 0 127 0" result="hardAlpha"/>
<feOffset dy="0.537865"/>
<feComposite in2="hardAlpha" operator="out"/>
<feColorMatrix type="matrix" values="0 0 0 0 0 0 0 0 0 0 0 0 0 0 0 0 0 0 0.15 0"/>
<feBlend mode="normal" in2="BackgroundImageFix" result="effect1_dropShadow_3186_1549"/>
<feBlend mode="normal" in="SourceGraphic" in2="effect1_dropShadow_3186_1549" result="shape"/>
</filter>
</defs>
</svg>
