<svg preserveAspectRatio="none" width="100%" height="100%" overflow="visible" style="display: block;" viewBox="0 0 78 15" fill="none" xmlns="http://www.w3.org/2000/svg">
<g id="Group 1000003647">
<path id="STAR" d="M6.24061 1.87948C6.54648 1.16922 7.55352 1.16922 7.85939 1.87948L8.74922 3.94576C8.8768 4.24201 9.15604 4.44489 9.47722 4.47468L11.7173 4.68245C12.4874 4.75386 12.7985 5.71162 12.2176 6.222L10.5274 7.70679C10.2851 7.91967 10.1784 8.24794 10.2493 8.56261L10.744 10.7573C10.914 11.5117 10.0993 12.1036 9.43435 11.7088L7.49993 10.5602C7.22258 10.3955 6.87742 10.3955 6.60007 10.5602L4.66565 11.7088C4.00072 12.1036 3.18601 11.5117 3.35604 10.7573L3.85067 8.56261C3.92159 8.24794 3.81493 7.91967 3.5726 7.70679L1.88243 6.22199C1.30145 5.71162 1.61265 4.75386 2.38266 4.68245L4.62278 4.47468C4.94396 4.44489 5.2232 4.24201 5.35078 3.94576L6.24061 1.87948Z" fill="var(--fill-0, #FFD400)"/>
<path id="STAR_2" d="M22.1039 1.87948C22.4098 1.16922 23.4168 1.16922 23.7227 1.87948L24.6125 3.94576C24.7401 4.24201 25.0193 4.44489 25.3405 4.47468L27.5806 4.68245C28.3506 4.75386 28.6618 5.71162 28.0809 6.222L26.3907 7.70679C26.1483 7.91967 26.0417 8.24794 26.1126 8.56261L26.6072 10.7573C26.7773 11.5117 25.9626 12.1036 25.2976 11.7088L23.3632 10.5602C23.0859 10.3955 22.7407 10.3955 22.4634 10.5602L20.5289 11.7088C19.864 12.1036 19.0493 11.5117 19.2193 10.7573L19.714 8.56261C19.7849 8.24794 19.6782 7.91967 19.4359 7.70679L17.7457 6.22199C17.1647 5.71162 17.4759 4.75386 18.2459 4.68245L20.4861 4.47468C20.8072 4.44489 21.0865 4.24201 21.2141 3.94576L22.1039 1.87948Z" fill="var(--fill-0, #FFD400)"/>
<path id="STAR_3" d="M37.9652 1.87948C38.2711 1.16922 39.2781 1.16922 39.584 1.87948L40.4738 3.94576C40.6014 4.24201 40.8807 4.44489 41.2018 4.47468L43.442 4.68245C44.212 4.75386 44.5232 5.71162 43.9422 6.222L42.252 7.70679C42.0097 7.91967 41.903 8.24794 41.9739 8.56261L42.4686 10.7573C42.6386 11.5117 41.8239 12.1036 41.159 11.7088L39.2245 10.5602C38.9472 10.3955 38.602 10.3955 38.3247 10.5602L36.3903 11.7088C35.7253 12.1036 34.9106 11.5117 35.0806 10.7573L35.5753 8.56261C35.6462 8.24794 35.5395 7.91967 35.2972 7.70679L33.607 6.22199C33.0261 5.71162 33.3373 4.75386 34.1073 4.68245L36.3474 4.47468C36.6686 4.44489 36.9478 4.24201 37.0754 3.94576L37.9652 1.87948Z" fill="var(--fill-0, #FFD400)"/>
<path id="STAR_4" d="M53.8285 1.87948C54.1344 1.16922 55.1414 1.16922 55.4473 1.87948L56.3371 3.94576C56.4647 4.24201 56.7439 4.44489 57.0651 4.47468L59.3052 4.68245C60.0752 4.75386 60.3864 5.71162 59.8055 6.222L58.1153 7.70679C57.873 7.91967 57.7663 8.24794 57.8372 8.56261L58.3319 10.7573C58.5019 11.5117 57.6872 12.1036 57.0222 11.7088L55.0878 10.5602C54.8105 10.3955 54.4653 10.3955 54.188 10.5602L52.2535 11.7088C51.5886 12.1036 50.7739 11.5117 50.9439 10.7573L51.4386 8.56261C51.5095 8.24794 51.4028 7.91967 51.1605 7.70679L49.4703 6.22199C48.8893 5.71162 49.2005 4.75386 49.9705 4.68245L52.2107 4.47468C52.5318 4.44489 52.8111 4.24201 52.9387 3.94576L53.8285 1.87948Z" fill="var(--fill-0, #FFD400)"/>
<path id="STAR_5" d="M69.6898 1.87948C69.9957 1.16922 71.0027 1.16922 71.3086 1.87948L72.1984 3.94576C72.326 4.24201 72.6053 4.44489 72.9264 4.47468L75.1666 4.68245C75.9366 4.75386 76.2478 5.71162 75.6668 6.222L73.9766 7.70679C73.7343 7.91967 73.6276 8.24794 73.6985 8.56261L74.1932 10.7573C74.3632 11.5117 73.5485 12.1036 72.8836 11.7088L70.9492 10.5602C70.6718 10.3955 70.3266 10.3955 70.0493 10.5602L68.1149 11.7088C67.4499 12.1036 66.6352 11.5117 66.8053 10.7573L67.2999 8.56261C67.3708 8.24794 67.2642 7.91967 67.0218 7.70679L65.3316 6.22199C64.7507 5.71162 65.0619 4.75386 65.8319 4.68245L68.072 4.47468C68.3932 4.44489 68.6724 4.24201 68.8 3.94576L69.6898 1.87948Z" fill="var(--fill-0, #FFD400)"/>
</g>
</svg>
