<svg preserveAspectRatio="none" width="100%" height="100%" overflow="visible" style="display: block;" viewBox="0 0 43 43" fill="none" xmlns="http://www.w3.org/2000/svg">
<g id="Tick Square 1">
<g id="Tick Square 1 (Background/Mask)">
</g>
<mask id="mask0_3186_1541" style="mask-type:luminance" maskUnits="userSpaceOnUse" x="0" y="0" width="43" height="43">
<rect id="Tick Square 1 (Background/Mask)_2" width="42.8571" height="42.8571" fill="var(--fill-0, white)"/>
</mask>
<g mask="url(#mask0_3186_1541)">
<path id="Vector (Stroke)" fill-rule="evenodd" clip-rule="evenodd" d="M13.6869 3.96569H29.1672C32.1061 3.96569 34.5615 5.00953 36.2774 6.85232C37.9862 8.6875 38.8912 11.2381 38.8912 14.1361V28.7218C38.8912 31.6197 37.9862 34.1704 36.2771 36.0056C34.561 37.8484 32.1052 38.8921 29.1654 38.8921H13.6869C10.748 38.8921 8.29302 37.8483 6.57754 36.0054C4.86918 34.1702 3.96476 31.6196 3.96476 28.7218V14.1361C3.96476 11.2371 4.87391 8.68662 6.58399 6.85196C8.30095 5.00993 10.7554 3.96569 13.6869 3.96569ZM5.85552 14.1361V28.7218C5.85552 31.2293 6.63413 33.2912 7.96149 34.7171C9.28172 36.1354 11.2151 37.0014 13.6869 37.0014H29.1654C31.6382 37.0014 33.5726 36.1353 34.8935 34.717C36.2214 33.291 37.0004 31.2292 37.0004 28.7218V14.1361C37.0004 11.6286 36.2214 9.56677 34.8937 8.1408C33.5729 6.72243 31.639 5.85644 29.1672 5.85644H13.6869C11.2238 5.85644 9.28986 6.72202 7.96709 8.14115C6.63744 9.56765 5.85552 11.6297 5.85552 14.1361Z" fill="var(--fill-0, #FDB73E)"/>
<path id="Vector (Stroke)_2" fill-rule="evenodd" clip-rule="evenodd" d="M28.455 17.8599L19.98 26.3349C19.6109 26.704 19.0124 26.7041 18.6432 26.335L14.404 22.0975C14.0347 21.7284 14.0346 21.1298 14.4037 20.7605C14.7728 20.3913 15.3714 20.3912 15.7407 20.7603L19.3114 24.3296L27.1181 16.523C27.4873 16.1538 28.0859 16.1538 28.455 16.523C28.8242 16.8922 28.8242 17.4907 28.455 17.8599Z" fill="var(--fill-0, #FDB73E)"/>
</g>
</g>
</svg>
