<svg preserveAspectRatio="none" width="100%" height="100%" overflow="visible" style="display: block;" viewBox="0 0 15 15" fill="none" xmlns="http://www.w3.org/2000/svg">
<g id="Component/icon/ic_Activity">
<path id="Combined Shape" d="M7.38086 0C11.4572 0.000231257 14.7626 3.30445 14.7627 7.38086C14.7626 11.4573 11.4573 14.7625 7.38086 14.7627C3.30431 14.7626 5.74797e-05 11.4574 0 7.38086C0.000117972 3.30435 3.30435 8.05737e-05 7.38086 0ZM7.38184 1.3418C4.04653 1.34186 1.34291 4.04557 1.34277 7.38086C1.34283 10.7162 4.04648 13.4208 7.38184 13.4209C10.717 13.4207 13.4208 10.7161 13.4209 7.38086C13.4208 4.04568 10.717 1.34203 7.38184 1.3418ZM7.37891 2.68359C7.74934 2.68371 8.0497 2.98405 8.0498 3.35449V7.05273L10.8105 9.2002C11.1028 9.42778 11.1552 9.84916 10.9277 10.1416C10.7002 10.434 10.2788 10.4863 9.98633 10.2588L6.9668 7.91016C6.80344 7.78302 6.70801 7.58786 6.70801 7.38086V3.35449C6.70811 2.98398 7.00837 2.68359 7.37891 2.68359Z" fill="var(--fill-0, #252525)" fill-opacity="0.5"/>
</g>
</svg>
