<svg width="41" height="41" viewBox="0 0 41 41" fill="none" xmlns="http://www.w3.org/2000/svg">
<path d="M34.6966 37.2549H5.64197C4.48067 37.2536 3.36731 36.7916 2.54614 35.9705C1.72497 35.1493 1.26305 34.0359 1.26172 32.8746V31.6009C1.26172 31.4337 1.32812 31.2734 1.44632 31.1552C1.56451 31.037 1.72482 30.9706 1.89197 30.9706H38.4466C38.6137 30.9706 38.7741 31.037 38.8922 31.1552C39.0104 31.2734 39.0768 31.4337 39.0768 31.6009V32.8746C39.0755 34.0359 38.6136 35.1493 37.7924 35.9705C36.9713 36.7916 35.8579 37.2536 34.6966 37.2549ZM2.52222 32.2311V32.8746C2.52322 33.7017 2.85223 34.4947 3.43708 35.0795C4.02193 35.6644 4.81487 35.9934 5.64197 35.9944H34.6966C35.5237 35.9934 36.3166 35.6644 36.9015 35.0795C37.4863 34.4947 37.8153 33.7017 37.8163 32.8746V32.2311H2.52222Z" fill="#FDB73E"/>
<path d="M35.6825 32.2311H4.6615C4.49435 32.2311 4.33404 32.1647 4.21585 32.0465C4.09765 31.9284 4.03125 31.768 4.03125 31.6009V13.4685C4.03125 13.3014 4.09765 13.1411 4.21585 13.0229C4.33404 12.9047 4.49435 12.8383 4.6615 12.8383H15.7602C15.9274 12.8383 16.0877 12.9047 16.2059 13.0229C16.3241 13.1411 16.3905 13.3014 16.3905 13.4685C16.3905 13.6357 16.3241 13.796 16.2059 13.9142C16.0877 14.0324 15.9274 14.0988 15.7602 14.0988H5.29175V30.9706H35.0523V14.0988H24.5838C24.4166 14.0988 24.2563 14.0324 24.1381 13.9142C24.0199 13.796 23.9535 13.6357 23.9535 13.4685C23.9535 13.3014 24.0199 13.1411 24.1381 13.0229C24.2563 12.9047 24.4166 12.8383 24.5838 12.8383H35.6825C35.8497 12.8383 36.01 12.9047 36.1282 13.0229C36.2464 13.1411 36.3128 13.3014 36.3128 13.4685V31.6009C36.3128 31.768 36.2464 31.9284 36.1282 32.0465C36.01 32.1647 35.8497 32.2311 35.6825 32.2311Z" fill="#FDB73E"/>
<path d="M15.2906 11.1864H4.224C4.05685 11.1864 3.89654 11.12 3.77835 11.0018C3.66015 10.8836 3.59375 10.7233 3.59375 10.5562V3.71161C3.59375 3.54446 3.66015 3.38415 3.77835 3.26596C3.89654 3.14776 4.05685 3.08136 4.224 3.08136H15.2906C15.4578 3.08136 15.6181 3.14776 15.7363 3.26596C15.8544 3.38415 15.9209 3.54446 15.9209 3.71161V10.5562C15.9209 10.7233 15.8544 10.8836 15.7363 11.0018C15.6181 11.12 15.4578 11.1864 15.2906 11.1864ZM4.85236 9.9259H14.6603V4.34186H4.85425L4.85236 9.9259Z" fill="#FDB73E"/>
<path d="M36.9208 12.2061H25.8529C25.6858 12.2061 25.5254 12.1397 25.4073 12.0215C25.2891 11.9033 25.2227 11.743 25.2227 11.5759V4.73072C25.2227 4.56356 25.2891 4.40326 25.4073 4.28506C25.5254 4.16687 25.6858 4.10046 25.8529 4.10046H36.9208C37.0879 4.10046 37.2482 4.16687 37.3664 4.28506C37.4846 4.40326 37.551 4.56356 37.551 4.73072V11.5759C37.551 11.743 37.4846 11.9033 37.3664 12.0215C37.2482 12.1397 37.0879 12.2061 36.9208 12.2061ZM26.4832 10.9456H36.2905V5.36097H26.4832V10.9456Z" fill="#FDB73E"/>
<path d="M20.1701 24.3946C18.8401 24.3946 17.5399 24.0002 16.434 23.2613C15.3281 22.5223 14.4662 21.4721 13.9572 20.2433C13.4482 19.0145 13.3151 17.6623 13.5745 16.3579C13.834 15.0534 14.4745 13.8551 15.415 12.9147C16.3554 11.9742 17.5537 11.3337 18.8582 11.0742C20.1626 10.8147 21.5148 10.9479 22.7436 11.4569C23.9724 11.9659 25.0226 12.8278 25.7616 13.9337C26.5005 15.0396 26.8949 16.3398 26.8949 17.6698C26.8931 19.4528 26.184 21.1622 24.9232 22.4229C23.6625 23.6837 21.9531 24.3928 20.1701 24.3946ZM20.1701 12.2061C19.0893 12.2061 18.0329 12.5266 17.1342 13.1271C16.2356 13.7275 15.5353 14.581 15.1217 15.5795C14.7081 16.578 14.6 17.6767 14.8109 18.7367C15.0218 19.7967 15.5422 20.7703 16.3065 21.5345C17.0708 22.2987 18.0445 22.819 19.1045 23.0298C20.1645 23.2406 21.2632 23.1323 22.2616 22.7186C23.2601 22.3049 24.1135 21.6044 24.7138 20.7058C25.3141 19.8071 25.6345 18.7506 25.6344 17.6698C25.6326 16.2212 25.0562 14.8325 24.0319 13.8082C23.0075 12.784 21.6187 12.2078 20.1701 12.2061Z" fill="#FDB73E"/>
<path d="M27.5191 32.2311C27.352 32.2311 27.1917 32.1647 27.0735 32.0465C26.9553 31.9283 26.8889 31.768 26.8889 31.6009V31.1093C26.886 29.3289 26.1771 27.6223 24.9176 26.364C23.658 25.1056 21.9508 24.3983 20.1704 24.3971C18.3896 24.3969 16.6816 25.1039 15.4218 26.3625C14.1619 27.6211 13.4534 29.3285 13.4519 31.1093V31.6009C13.4519 31.768 13.3855 31.9283 13.2673 32.0465C13.1491 32.1647 12.9888 32.2311 12.8217 32.2311C12.6545 32.2311 12.4942 32.1647 12.376 32.0465C12.2578 31.9283 12.1914 31.768 12.1914 31.6009V31.1093C12.1931 28.9942 13.0345 26.9663 14.5306 25.4714C16.0268 23.9764 18.0553 23.1366 20.1704 23.1366C22.285 23.1383 24.3125 23.9786 25.8083 25.4732C27.3041 26.9678 28.1461 28.9947 28.1494 31.1093V31.6009C28.1494 31.768 28.083 31.9283 27.9648 32.0465C27.8466 32.1647 27.6863 32.2311 27.5191 32.2311Z" fill="#FDB73E"/>
<path d="M12.6784 6.62775H6.57947C6.41232 6.62775 6.25201 6.56135 6.13382 6.44316C6.01562 6.32496 5.94922 6.16465 5.94922 5.9975C5.94922 5.83035 6.01562 5.67004 6.13382 5.55185C6.25201 5.43365 6.41232 5.36725 6.57947 5.36725H12.6784C12.8456 5.36725 13.0059 5.43365 13.1241 5.55185C13.2423 5.67004 13.3087 5.83035 13.3087 5.9975C13.3087 6.16465 13.2423 6.32496 13.1241 6.44316C13.0059 6.56135 12.8456 6.62775 12.6784 6.62775Z" fill="#FDB73E"/>
<path d="M12.6784 8.78321H6.57947C6.41232 8.78321 6.25201 8.71681 6.13382 8.59861C6.01562 8.48042 5.94922 8.32011 5.94922 8.15296C5.94922 7.9858 6.01562 7.8255 6.13382 7.7073C6.25201 7.58911 6.41232 7.52271 6.57947 7.52271H12.6784C12.8456 7.52271 13.0059 7.58911 13.1241 7.7073C13.2423 7.8255 13.3087 7.9858 13.3087 8.15296C13.3087 8.32011 13.2423 8.48042 13.1241 8.59861C13.0059 8.71681 12.8456 8.78321 12.6784 8.78321Z" fill="#FDB73E"/>
<path d="M34.433 7.70548H28.3334C28.1662 7.70548 28.0059 7.63908 27.8877 7.52088C27.7695 7.40269 27.7031 7.24238 27.7031 7.07523C27.7031 6.90808 27.7695 6.74777 27.8877 6.62957C28.0059 6.51138 28.1662 6.44498 28.3334 6.44498H34.433C34.6001 6.44498 34.7604 6.51138 34.8786 6.62957C34.9968 6.74777 35.0632 6.90808 35.0632 7.07523C35.0632 7.24238 34.9968 7.40269 34.8786 7.52088C34.7604 7.63908 34.6001 7.70548 34.433 7.70548Z" fill="#FDB73E"/>
<path d="M34.433 9.86097H28.3334C28.1662 9.86097 28.0059 9.79457 27.8877 9.67637C27.7695 9.55818 27.7031 9.39787 27.7031 9.23072C27.7031 9.06356 27.7695 8.90326 27.8877 8.78506C28.0059 8.66687 28.1662 8.60046 28.3334 8.60046H34.433C34.6001 8.60046 34.7604 8.66687 34.8786 8.78506C34.9968 8.90326 35.0632 9.06356 35.0632 9.23072C35.0632 9.39787 34.9968 9.55818 34.8786 9.67637C34.7604 9.79457 34.6001 9.86097 34.433 9.86097Z" fill="#FDB73E"/>
<path d="M8.37821 34.7434H6.57947C6.41232 34.7434 6.25201 34.677 6.13382 34.5588C6.01562 34.4406 5.94922 34.2803 5.94922 34.1131C5.94922 33.9459 6.01562 33.7856 6.13382 33.6674C6.25201 33.5493 6.41232 33.4828 6.57947 33.4828H8.37821C8.54536 33.4828 8.70567 33.5493 8.82387 33.6674C8.94206 33.7856 9.00846 33.9459 9.00846 34.1131C9.00846 34.2803 8.94206 34.4406 8.82387 34.5588C8.70567 34.677 8.54536 34.7434 8.37821 34.7434Z" fill="#FDB73E"/>
<path d="M11.6132 34.7434H10.7592C10.592 34.7434 10.4317 34.677 10.3135 34.5588C10.1953 34.4406 10.1289 34.2803 10.1289 34.1131C10.1289 33.9459 10.1953 33.7856 10.3135 33.6674C10.4317 33.5493 10.592 33.4828 10.7592 33.4828H11.6132C11.7803 33.4828 11.9406 33.5493 12.0588 33.6674C12.177 33.7856 12.2434 33.9459 12.2434 34.1131C12.2434 34.2803 12.177 34.4406 12.0588 34.5588C11.9406 34.677 11.7803 34.7434 11.6132 34.7434Z" fill="#FDB73E"/>
</svg>
