<svg preserveAspectRatio="none" width="100%" height="100%" overflow="visible" style="display: block;" viewBox="0 0 41 41" fill="none" xmlns="http://www.w3.org/2000/svg">
<g id="employee_16400242 1">
<path id="Vector" d="M34.6984 37.2549H5.64378C4.48247 37.2535 3.36912 36.7916 2.54795 35.9705C1.72678 35.1493 1.26486 34.0359 1.26353 32.8746V31.6009C1.26353 31.4337 1.32993 31.2734 1.44812 31.1552C1.56632 31.037 1.72663 30.9706 1.89378 30.9706H38.4484C38.6156 30.9706 38.7759 31.037 38.8941 31.1552C39.0123 31.2734 39.0787 31.4337 39.0787 31.6009V32.8746C39.0773 34.0359 38.6154 35.1493 37.7942 35.9705C36.9731 36.7916 35.8597 37.2535 34.6984 37.2549ZM2.52403 32.2311V32.8746C2.52503 33.7017 2.85404 34.4947 3.43889 35.0795C4.02374 35.6644 4.81668 35.9934 5.64378 35.9944H34.6984C35.5255 35.9934 36.3184 35.6644 36.9033 35.0795C37.4881 34.4947 37.8171 33.7017 37.8181 32.8746V32.2311H2.52403Z" fill="var(--fill-0, #775DA6)"/>
<path id="Vector_2" d="M35.6812 32.2311H4.66024C4.49308 32.2311 4.33278 32.1647 4.21458 32.0465C4.09639 31.9283 4.02998 31.768 4.02998 31.6009V13.4685C4.02998 13.3014 4.09639 13.1411 4.21458 13.0229C4.33278 12.9047 4.49308 12.8383 4.66024 12.8383H15.759C15.9261 12.8383 16.0864 12.9047 16.2046 13.0229C16.3228 13.1411 16.3892 13.3014 16.3892 13.4685C16.3892 13.6357 16.3228 13.796 16.2046 13.9142C16.0864 14.0324 15.9261 14.0988 15.759 14.0988H5.29049V30.9706H35.051V14.0988H24.5825C24.4154 14.0988 24.255 14.0324 24.1369 13.9142C24.0187 13.796 23.9523 13.6357 23.9523 13.4685C23.9523 13.3014 24.0187 13.1411 24.1369 13.0229C24.255 12.9047 24.4154 12.8383 24.5825 12.8383H35.6812C35.8484 12.8383 36.0087 12.9047 36.1269 13.0229C36.2451 13.1411 36.3115 13.3014 36.3115 13.4685V31.6009C36.3115 31.768 36.2451 31.9283 36.1269 32.0465C36.0087 32.1647 35.8484 32.2311 35.6812 32.2311Z" fill="var(--fill-0, #775DA6)"/>
<path id="Vector_3" d="M15.2918 11.1864H4.22522C4.05807 11.1864 3.89776 11.12 3.77957 11.0018C3.66137 10.8836 3.59497 10.7233 3.59497 10.5561V3.71161C3.59497 3.54445 3.66137 3.38415 3.77957 3.26595C3.89776 3.14776 4.05807 3.08135 4.22522 3.08135H15.2918C15.459 3.08135 15.6193 3.14776 15.7375 3.26595C15.8557 3.38415 15.9221 3.54445 15.9221 3.71161V10.5561C15.9221 10.7233 15.8557 10.8836 15.7375 11.0018C15.6193 11.12 15.459 11.1864 15.2918 11.1864ZM4.85358 9.92589H14.6616V4.34186H4.85547L4.85358 9.92589Z" fill="var(--fill-0, #775DA6)"/>
<path id="Vector_4" d="M36.9196 12.2061H25.8517C25.6845 12.2061 25.5242 12.1397 25.406 12.0215C25.2878 11.9033 25.2214 11.743 25.2214 11.5759V4.7307C25.2214 4.56355 25.2878 4.40324 25.406 4.28505C25.5242 4.16685 25.6845 4.10045 25.8517 4.10045H36.9196C37.0867 4.10045 37.247 4.16685 37.3652 4.28505C37.4834 4.40324 37.5498 4.56355 37.5498 4.7307V11.5759C37.5498 11.743 37.4834 11.9033 37.3652 12.0215C37.247 12.1397 37.0867 12.2061 36.9196 12.2061ZM26.4819 10.9456H36.2893V5.36096H26.4819V10.9456Z" fill="var(--fill-0, #775DA6)"/>
<path id="Vector_5" d="M20.1708 24.3946C18.8407 24.3946 17.5405 24.0002 16.4347 23.2613C15.3288 22.5223 14.4668 21.4721 13.9579 20.2433C13.4489 19.0145 13.3157 17.6624 13.5752 16.3579C13.8347 15.0534 14.4751 13.8551 15.4156 12.9147C16.3561 11.9742 17.5543 11.3337 18.8588 11.0742C20.1633 10.8148 21.5154 10.9479 22.7442 11.4569C23.973 11.9659 25.0233 12.8278 25.7622 13.9337C26.5011 15.0396 26.8955 16.3398 26.8955 17.6698C26.8937 19.4528 26.1846 21.1622 24.9239 22.4229C23.6631 23.6837 21.9537 24.3928 20.1708 24.3946ZM20.1708 12.2062C19.09 12.2062 18.0335 12.5266 17.1349 13.1271C16.2363 13.7276 15.5359 14.581 15.1224 15.5795C14.7088 16.578 14.6006 17.6767 14.8115 18.7367C15.0224 19.7967 15.5429 20.7703 16.3071 21.5345C17.0714 22.2987 18.0451 22.819 19.1051 23.0298C20.1651 23.2406 21.2638 23.1323 22.2623 22.7186C23.2607 22.3049 24.1141 21.6045 24.7144 20.7058C25.3148 19.8071 25.6352 18.7506 25.635 17.6698C25.6332 16.2212 25.0569 14.8325 24.0325 13.8082C23.0081 12.784 21.6194 12.2078 20.1708 12.2062Z" fill="var(--fill-0, #775DA6)"/>
<path id="Vector_6" d="M27.5188 32.2311C27.3516 32.2311 27.1913 32.1647 27.0731 32.0465C26.9549 31.9283 26.8885 31.768 26.8885 31.6009V31.1093C26.8857 29.3289 26.1767 27.6223 24.9172 26.364C23.6577 25.1056 21.9504 24.3983 20.17 24.3971C18.3892 24.3969 16.6812 25.1039 15.4214 26.3625C14.1616 27.6211 13.453 29.3285 13.4515 31.1093V31.6009C13.4515 31.768 13.3851 31.9283 13.2669 32.0465C13.1487 32.1647 12.9884 32.2311 12.8213 32.2311C12.6541 32.2311 12.4938 32.1647 12.3756 32.0465C12.2574 31.9283 12.191 31.768 12.191 31.6009V31.1093C12.1927 28.9942 13.0341 26.9664 14.5303 25.4714C16.0264 23.9764 18.055 23.1366 20.17 23.1366C22.2846 23.1383 24.3121 23.9786 25.808 25.4732C27.3038 26.9678 28.1457 28.9947 28.149 31.1093V31.6009C28.149 31.768 28.0826 31.9283 27.9644 32.0465C27.8462 32.1647 27.6859 32.2311 27.5188 32.2311Z" fill="var(--fill-0, #775DA6)"/>
<path id="Vector_7" d="M12.6777 6.62776H6.57871C6.41156 6.62776 6.25125 6.56135 6.13306 6.44316C6.01486 6.32496 5.94846 6.16466 5.94846 5.9975C5.94846 5.83035 6.01486 5.67004 6.13306 5.55185C6.25125 5.43365 6.41156 5.36725 6.57871 5.36725H12.6777C12.8448 5.36725 13.0051 5.43365 13.1233 5.55185C13.2415 5.67004 13.3079 5.83035 13.3079 5.9975C13.3079 6.16466 13.2415 6.32496 13.1233 6.44316C13.0051 6.56135 12.8448 6.62776 12.6777 6.62776Z" fill="var(--fill-0, #775DA6)"/>
<path id="Vector_8" d="M12.6777 8.78322H6.57871C6.41156 8.78322 6.25125 8.71682 6.13306 8.59863C6.01486 8.48043 5.94846 8.32013 5.94846 8.15297C5.94846 7.98582 6.01486 7.82551 6.13306 7.70732C6.25125 7.58912 6.41156 7.52272 6.57871 7.52272H12.6777C12.8448 7.52272 13.0051 7.58912 13.1233 7.70732C13.2415 7.82551 13.3079 7.98582 13.3079 8.15297C13.3079 8.32013 13.2415 8.48043 13.1233 8.59863C13.0051 8.71682 12.8448 8.78322 12.6777 8.78322Z" fill="var(--fill-0, #775DA6)"/>
<path id="Vector_9" d="M34.4331 7.70549H28.3335C28.1663 7.70549 28.006 7.63909 27.8878 7.52089C27.7696 7.4027 27.7032 7.24239 27.7032 7.07524C27.7032 6.90808 27.7696 6.74778 27.8878 6.62958C28.006 6.51139 28.1663 6.44499 28.3335 6.44499H34.4331C34.6002 6.44499 34.7605 6.51139 34.8787 6.62958C34.9969 6.74778 35.0633 6.90808 35.0633 7.07524C35.0633 7.24239 34.9969 7.4027 34.8787 7.52089C34.7605 7.63909 34.6002 7.70549 34.4331 7.70549Z" fill="var(--fill-0, #775DA6)"/>
<path id="Vector_10" d="M34.4331 9.86096H28.3335C28.1663 9.86096 28.006 9.79456 27.8878 9.67636C27.7696 9.55817 27.7032 9.39786 27.7032 9.23071C27.7032 9.06355 27.7696 8.90325 27.8878 8.78505C28.006 8.66685 28.1663 8.60045 28.3335 8.60045H34.4331C34.6002 8.60045 34.7605 8.66685 34.8787 8.78505C34.9969 8.90325 35.0633 9.06355 35.0633 9.23071C35.0633 9.39786 34.9969 9.55817 34.8787 9.67636C34.7605 9.79456 34.6002 9.86096 34.4331 9.86096Z" fill="var(--fill-0, #775DA6)"/>
<path id="Vector_11" d="M8.37745 34.7433H6.57871C6.41156 34.7433 6.25125 34.6769 6.13306 34.5587C6.01486 34.4406 5.94846 34.2802 5.94846 34.1131C5.94846 33.9459 6.01486 33.7856 6.13306 33.6674C6.25125 33.5492 6.41156 33.4828 6.57871 33.4828H8.37745C8.54461 33.4828 8.70491 33.5492 8.82311 33.6674C8.9413 33.7856 9.00771 33.9459 9.00771 34.1131C9.00771 34.2802 8.9413 34.4406 8.82311 34.5587C8.70491 34.6769 8.54461 34.7433 8.37745 34.7433Z" fill="var(--fill-0, #775DA6)"/>
<path id="Vector_12" d="M11.6125 34.7433H10.7585C10.5913 34.7433 10.431 34.6769 10.3128 34.5587C10.1946 34.4406 10.1282 34.2802 10.1282 34.1131C10.1282 33.9459 10.1946 33.7856 10.3128 33.6674C10.431 33.5492 10.5913 33.4828 10.7585 33.4828H11.6125C11.7796 33.4828 11.9399 33.5492 12.0581 33.6674C12.1763 33.7856 12.2427 33.9459 12.2427 34.1131C12.2427 34.2802 12.1763 34.4406 12.0581 34.5587C11.9399 34.6769 11.7796 34.7433 11.6125 34.7433Z" fill="var(--fill-0, #775DA6)"/>
</g>
</svg>
