<svg preserveAspectRatio="none" width="100%" height="100%" overflow="visible" style="display: block;" viewBox="0 0 10 10" fill="none" xmlns="http://www.w3.org/2000/svg">
<g id="Group" filter="url(#filter0_d_3186_1364)">
<g id="Group_2">
<path id="Vector" fill-rule="evenodd" clip-rule="evenodd" d="M2.58859 5.0286e-07C2.77511 5.0286e-07 2.92632 0.151209 2.92632 0.33773V1.01319C2.92632 1.19971 2.77511 1.35092 2.58859 1.35092C2.40207 1.35092 2.25086 1.19971 2.25086 1.01319V0.33773C2.25086 0.151209 2.40207 5.0286e-07 2.58859 5.0286e-07Z" fill="var(--fill-0, white)"/>
<path id="Vector_2" fill-rule="evenodd" clip-rule="evenodd" d="M7.09212 5.0286e-07C7.27864 5.0286e-07 7.42985 0.151209 7.42985 0.33773V1.01319C7.42985 1.19971 7.27864 1.35092 7.09212 1.35092C6.9056 1.35092 6.75439 1.19971 6.75439 1.01319V0.33773C6.75439 0.151209 6.9056 5.0286e-07 7.09212 5.0286e-07Z" fill="var(--fill-0, white)"/>
<path id="Vector_3" fill-rule="evenodd" clip-rule="evenodd" d="M9.66284e-05 3.26475C9.66284e-05 3.07823 0.151305 2.92702 0.337826 2.92702H9.34394C9.53046 2.92702 9.68167 3.07823 9.68167 3.26475C9.68167 3.45127 9.53046 3.60248 9.34394 3.60248H0.337826C0.151305 3.60248 9.66284e-05 3.45127 9.66284e-05 3.26475Z" fill="var(--fill-0, white)"/>
</g>
<path id="Vector_4" fill-rule="evenodd" clip-rule="evenodd" d="M3.91477 0.675437H5.7668C6.59437 0.675428 7.24984 0.675423 7.76282 0.744397C8.29076 0.815374 8.7181 0.96493 9.05511 1.30192C9.39208 1.63892 9.54162 2.06623 9.61264 2.59418C9.68158 3.10717 9.68158 3.76264 9.68158 4.59022V5.54162C9.68158 6.36919 9.68158 7.02466 9.61264 7.53765C9.54162 8.06559 9.39208 8.49293 9.05511 8.82994C8.7181 9.1669 8.29076 9.31645 7.76282 9.38746C7.24984 9.4564 6.59437 9.4564 5.7668 9.4564H3.91478C3.08722 9.4564 2.43174 9.4564 1.91874 9.38746C1.3908 9.31645 0.963479 9.1669 0.626484 8.82994C0.289493 8.49293 0.139937 8.06559 0.06896 7.53765C-1.33329e-05 7.02466 -8.80204e-06 6.36919 2.0408e-07 5.54162V4.59022C-8.80204e-06 3.76264 -1.33329e-05 3.10717 0.06896 2.59418C0.139937 2.06623 0.289493 1.63892 0.626484 1.30192C0.963479 0.96493 1.3908 0.815374 1.91874 0.744397C2.43174 0.675423 3.08722 0.675428 3.91477 0.675437ZM2.00875 1.41383C1.5557 1.47474 1.29468 1.58897 1.10411 1.77954C0.913531 1.97012 0.799302 2.23114 0.738394 2.68418C0.676175 3.14695 0.675459 3.75697 0.675459 4.61561V5.51622C0.675459 6.37487 0.676175 6.9849 0.738394 7.44768C0.799302 7.90068 0.913531 8.16173 1.10411 8.3523C1.29468 8.54287 1.5557 8.65711 2.00875 8.71799C2.47151 8.78022 3.08152 8.78094 3.94018 8.78094H5.7414C6.60004 8.78094 7.21007 8.78022 7.67285 8.71799C8.12586 8.65711 8.3869 8.54287 8.57747 8.3523C8.76804 8.16173 8.88228 7.90068 8.94317 7.44768C9.0054 6.9849 9.00612 6.37487 9.00612 5.51622V4.61561C9.00612 3.75697 9.0054 3.14695 8.94317 2.68418C8.88228 2.23114 8.76804 1.97012 8.57747 1.77954C8.3869 1.58897 8.12586 1.47474 7.67285 1.41383C7.21007 1.35161 6.60004 1.3509 5.7414 1.3509H3.94018C3.08152 1.3509 2.47151 1.35161 2.00875 1.41383Z" fill="var(--fill-0, white)"/>
<path id="Vector_5" fill-rule="evenodd" clip-rule="evenodd" d="M6.86798 6.30424C6.68146 6.30424 6.53025 6.45545 6.53025 6.64197C6.53025 6.82849 6.68146 6.9797 6.86798 6.9797C7.05449 6.9797 7.2057 6.82849 7.2057 6.64197C7.2057 6.45545 7.05449 6.30424 6.86798 6.30424ZM5.85479 6.64197C5.85479 6.08242 6.30843 5.62878 6.86798 5.62878C7.42753 5.62878 7.88116 6.08242 7.88116 6.64197C7.88116 7.20152 7.42753 7.65516 6.86798 7.65516C6.30843 7.65516 5.85479 7.20152 5.85479 6.64197Z" fill="var(--fill-0, white)"/>
</g>
<defs>
<filter id="filter0_d_3186_1364" x="0" y="5.0286e-07" width="9.68167" height="9.99427" filterUnits="userSpaceOnUse" color-interpolation-filters="sRGB">
<feFlood flood-opacity="0" result="BackgroundImageFix"/>
<feColorMatrix in="SourceAlpha" type="matrix" values="0 0 0 0 0 0 0 0 0 0 0 0 0 0 0 0 0 0 127 0" result="hardAlpha"/>
<feOffset dy="0.537865"/>
<feComposite in2="hardAlpha" operator="out"/>
<feColorMatrix type="matrix" values="0 0 0 0 0 0 0 0 0 0 0 0 0 0 0 0 0 0 0.15 0"/>
<feBlend mode="normal" in2="BackgroundImageFix" result="effect1_dropShadow_3186_1364"/>
<feBlend mode="normal" in="SourceGraphic" in2="effect1_dropShadow_3186_1364" result="shape"/>
</filter>
</defs>
</svg>
