<svg preserveAspectRatio="none" width="100%" height="100%" overflow="visible" style="display: block;" viewBox="0 0 7 24" fill="none" xmlns="http://www.w3.org/2000/svg">
<g id="Vector 1" filter="url(#filter0_f_3191_1612)">
<path d="M1.74896 2.46145C1.90904 1.25843 4.24472 1.38491 5.25462 1.49708C5.4171 1.51513 5.46629 1.72715 5.33559 1.82535C4.82396 2.20976 3.95054 2.95786 3.73161 3.72565C2.65792 7.49106 2.88341 13.86 3.0686 16.8674C3.13609 17.9633 2.95715 19.0618 2.51195 20.0655L1.74896 21.7857C1.74896 21.7857 1.02802 7.87946 1.74896 2.46145Z" fill="var(--fill-0, white)" fill-opacity="0.3"/>
<path d="M1.74896 2.46145C1.90904 1.25843 4.24472 1.38491 5.25462 1.49708C5.4171 1.51513 5.46629 1.72715 5.33559 1.82535C4.82396 2.20976 3.95054 2.95786 3.73161 3.72565C2.65792 7.49106 2.88341 13.86 3.0686 16.8674C3.13609 17.9633 2.95715 19.0618 2.51195 20.0655L1.74896 21.7857C1.74896 21.7857 1.02802 7.87946 1.74896 2.46145Z" fill="url(#paint0_linear_3191_1612)"/>
</g>
<defs>
<filter id="filter0_f_3191_1612" x="5.51893e-09" y="-5.44695e-08" width="6.83892" height="23.2142" filterUnits="userSpaceOnUse" color-interpolation-filters="sRGB">
<feFlood flood-opacity="0" result="BackgroundImageFix"/>
<feBlend mode="normal" in="SourceGraphic" in2="BackgroundImageFix" result="shape"/>
<feGaussianBlur stdDeviation="0.714273" result="effect1_foregroundBlur_3191_1612"/>
</filter>
<linearGradient id="paint0_linear_3191_1612" x1="1.42855" y1="1.97035" x2="3.23417" y2="3.59217" gradientUnits="userSpaceOnUse">
<stop stop-color="white"/>
<stop offset="1" stop-color="white" stop-opacity="0"/>
</linearGradient>
</defs>
</svg>
