<svg preserveAspectRatio="none" width="100%" height="100%" overflow="visible" style="display: block;" viewBox="0 0 15 15" fill="none" xmlns="http://www.w3.org/2000/svg">
<g id="Component/icon/ic_Activity">
<path id="Combined Shape" d="M7.38086 0C11.4574 9.1466e-05 14.7626 3.30436 14.7627 7.38086C14.7627 11.4575 11.4574 14.7626 7.38086 14.7627C3.30439 14.7625 0 11.4574 0 7.38086C0.000119667 3.30444 3.30447 0.000220385 7.38086 0ZM7.38086 1.3418C4.04551 1.3418 1.34097 4.04554 1.34082 7.38086C1.34082 10.7163 4.04541 13.4209 7.38086 13.4209C10.716 13.4206 13.4199 10.7161 13.4199 7.38086C13.4198 4.04574 10.7159 1.34211 7.38086 1.3418ZM7.37891 2.68359C7.7494 2.68359 8.04962 2.98404 8.0498 3.35449V7.05273L10.8105 9.2002C11.103 9.42769 11.1561 9.84907 10.9287 10.1416C10.7013 10.434 10.2798 10.4869 9.9873 10.2598L6.9668 7.91113C6.80338 7.784 6.70801 7.58791 6.70801 7.38086V3.35449C6.70819 2.98413 7.00854 2.68375 7.37891 2.68359Z" fill="var(--fill-0, #252525)" fill-opacity="0.5"/>
</g>
</svg>
