<svg preserveAspectRatio="none" width="100%" height="100%" overflow="visible" style="display: block;" viewBox="0 0 16 16" fill="none" xmlns="http://www.w3.org/2000/svg">
<g id="Group">
<g id="Group_2">
<path id="Vector" fill-rule="evenodd" clip-rule="evenodd" d="M4.12423 0C4.42128 0 4.66209 0.240813 4.66209 0.537865V1.6136C4.66209 1.91065 4.42128 2.15146 4.12423 2.15146C3.82718 2.15146 3.58636 1.91065 3.58636 1.6136V0.537865C3.58636 0.240813 3.82718 0 4.12423 0Z" fill="var(--fill-0, #939393)"/>
<path id="Vector_2" fill-rule="evenodd" clip-rule="evenodd" d="M11.2943 0C11.5913 0 11.8322 0.240813 11.8322 0.537865V1.6136C11.8322 1.91065 11.5913 2.15146 11.2943 2.15146C10.9972 2.15146 10.7564 1.91065 10.7564 1.6136V0.537865C10.7564 0.240813 10.9972 0 11.2943 0Z" fill="var(--fill-0, #939393)"/>
<path id="Vector_3" fill-rule="evenodd" clip-rule="evenodd" d="M0.000331866 5.19937C0.000331866 4.90232 0.241145 4.6615 0.538197 4.6615H14.8813C15.1783 4.6615 15.4191 4.90232 15.4191 5.19937C15.4191 5.49642 15.1783 5.73724 14.8813 5.73724H0.538197C0.241145 5.73724 0.000331866 5.49642 0.000331866 5.19937Z" fill="var(--fill-0, #939393)"/>
</g>
<path id="Vector_4" fill-rule="evenodd" clip-rule="evenodd" d="M6.23463 1.07572H9.18416C10.5021 1.0757 11.546 1.0757 12.363 1.18554C13.2038 1.29858 13.8844 1.53676 14.4211 2.07345C14.9577 2.61015 15.1959 3.29069 15.309 4.1315C15.4188 4.94849 15.4188 5.99238 15.4188 7.31037V8.82557C15.4188 10.1436 15.4188 11.1874 15.309 12.0044C15.1959 12.8452 14.9577 13.5258 14.4211 14.0625C13.8844 14.5992 13.2038 14.8373 12.363 14.9504C11.546 15.0602 10.5021 15.0602 9.18416 15.0602H6.23464C4.91668 15.0602 3.87277 15.0602 3.05578 14.9504C2.21497 14.8373 1.53443 14.5992 0.997733 14.0625C0.461044 13.5258 0.222863 12.8452 0.109825 12.0044C-2.12339e-05 11.1874 -1.40181e-05 10.1436 3.25016e-07 8.82557V7.31037C-1.40181e-05 5.99238 -2.12339e-05 4.94849 0.109825 4.1315C0.222863 3.29069 0.461044 2.61015 0.997733 2.07345C1.53443 1.53676 2.21497 1.29858 3.05578 1.18554C3.87277 1.0757 4.91668 1.0757 6.23463 1.07572ZM3.19912 2.25168C2.47759 2.34868 2.0619 2.5306 1.75839 2.83411C1.45488 3.13761 1.27296 3.55331 1.17596 4.27483C1.07687 5.01182 1.07573 5.98335 1.07573 7.35081V8.78512C1.07573 10.1526 1.07687 11.1241 1.17596 11.8611C1.27296 12.5826 1.45488 12.9983 1.75839 13.3018C2.0619 13.6053 2.47759 13.7873 3.19912 13.8842C3.93611 13.9833 4.90761 13.9845 6.2751 13.9845H9.14371C10.5112 13.9845 11.4827 13.9833 12.2197 13.8842C12.9412 13.7873 13.3569 13.6053 13.6604 13.3018C13.9639 12.9983 14.1459 12.5826 14.2428 11.8611C14.3419 11.1241 14.3431 10.1526 14.3431 8.78512V7.35081C14.3431 5.98335 14.3419 5.01182 14.2428 4.27483C14.1459 3.55331 13.9639 3.13761 13.6604 2.83411C13.3569 2.5306 12.9412 2.34868 12.2197 2.25168C11.4827 2.15259 10.5112 2.15145 9.14371 2.15145H6.2751C4.90761 2.15145 3.93611 2.15259 3.19912 2.25168Z" fill="var(--fill-0, #939393)"/>
<path id="Vector_5" fill-rule="evenodd" clip-rule="evenodd" d="M10.9345 10.0402C10.6374 10.0402 10.3966 10.281 10.3966 10.578C10.3966 10.8751 10.6374 11.1159 10.9345 11.1159C11.2315 11.1159 11.4723 10.8751 11.4723 10.578C11.4723 10.281 11.2315 10.0402 10.9345 10.0402ZM9.32088 10.578C9.32088 9.68691 10.0433 8.96445 10.9345 8.96445C11.8256 8.96445 12.5481 9.68691 12.5481 10.578C12.5481 11.4692 11.8256 12.1916 10.9345 12.1916C10.0433 12.1916 9.32088 11.4692 9.32088 10.578Z" fill="var(--fill-0, #939393)"/>
</g>
</svg>
