<svg xmlns="http://www.w3.org/2000/svg" width="10" height="40" viewBox="0 0 10 40" fill="none">
  <g filter="url(#filter0_f_151_2844)">
    <path d="M2.84839 4.20661C3.05104 2.15744 5.9989 2.36543 7.2884 2.55664C7.53645 2.59342 7.6217 2.90139 7.44446 3.07879C6.80129 3.72256 5.6506 5.02729 5.36666 6.3671C3.93727 13.1118 4.3207 24.7445 4.55795 29.5271C4.62839 30.9471 4.45094 32.3701 4.00581 33.7203L2.84839 37.2312C2.84839 37.2312 1.93268 13.4659 2.84839 4.20661Z" fill="white" fill-opacity="0.3"/>
    <path d="M2.84839 4.20661C3.05104 2.15744 5.9989 2.36543 7.2884 2.55664C7.53645 2.59342 7.6217 2.90139 7.44446 3.07879C6.80129 3.72256 5.6506 5.02729 5.36666 6.3671C3.93727 13.1118 4.3207 24.7445 4.55795 29.5271C4.62839 30.9471 4.45094 32.3701 4.00581 33.7203L2.84839 37.2312C2.84839 37.2312 1.93268 13.4659 2.84839 4.20661Z" fill="url(#paint0_linear_151_2844)"/>
  </g>
  <defs>
    <filter id="filter0_f_151_2844" x="1.43051e-05" y="1.43051e-05" width="9.98044" height="39.6726" filterUnits="userSpaceOnUse" color-interpolation-filters="sRGB">
      <feFlood flood-opacity="0" result="BackgroundImageFix"/>
      <feBlend mode="normal" in="SourceGraphic" in2="BackgroundImageFix" result="shape"/>
      <feGaussianBlur stdDeviation="1.2207" result="effect1_foregroundBlur_151_2844"/>
    </filter>
    <linearGradient id="paint0_linear_151_2844" x1="2.44141" y1="3.36733" x2="5.30773" y2="5.2808" gradientUnits="userSpaceOnUse">
      <stop stop-color="white"/>
      <stop offset="1" stop-color="white" stop-opacity="0"/>
    </linearGradient>
  </defs>
</svg>