<svg width="30" height="30" viewBox="0 0 30 30" fill="none" xmlns="http://www.w3.org/2000/svg">
<path fill-rule="evenodd" clip-rule="evenodd" d="M5.1664 2.45612H11.546C13.0434 2.45612 14.2573 3.67002 14.2573 5.16744V11.547C14.2573 13.0444 13.0434 14.2583 11.546 14.2583H5.1664C3.66898 14.2583 2.45508 13.0444 2.45508 11.547V5.16744C2.45508 3.67002 3.66898 2.45612 5.1664 2.45612ZM5.16684 4.68898C4.90259 4.68898 4.68837 4.9032 4.68837 5.16745V11.547C4.68837 11.8113 4.90259 12.0255 5.16684 12.0255H11.5464C11.8107 12.0255 12.0249 11.8113 12.0249 11.547V5.16745C12.0249 4.9032 11.8107 4.68898 11.5464 4.68898H5.16684ZM17.9258 15.2153H24.3054C25.8029 15.2153 27.0168 16.4292 27.0168 17.9266V24.3062C27.0168 25.8036 25.8029 27.0175 24.3054 27.0175H17.9258C16.4284 27.0175 15.2145 25.8036 15.2145 24.3062V17.9266C15.2145 16.4292 16.4284 15.2153 17.9258 15.2153ZM17.9261 17.4481C17.6618 17.4481 17.4476 17.6623 17.4476 17.9266V24.3062C17.4476 24.5704 17.6618 24.7846 17.9261 24.7846H24.3056C24.5699 24.7846 24.7841 24.5704 24.7841 24.3062V17.9266C24.7841 17.6623 24.5699 17.4481 24.3056 17.4481H17.9261ZM17.9258 2.45613H24.3054C25.8029 2.45613 27.0168 3.67004 27.0168 5.16746V11.547C27.0168 13.0445 25.8029 14.2584 24.3054 14.2584H17.9258C16.4284 14.2584 15.2145 13.0445 15.2145 11.547V5.16746C15.2145 3.67004 16.4284 2.45613 17.9258 2.45613ZM17.9261 4.68898C17.6618 4.68898 17.4476 4.9032 17.4476 5.16745V11.547C17.4476 11.8113 17.6618 12.0255 17.9261 12.0255H24.3056C24.5699 12.0255 24.7841 11.8113 24.7841 11.547V5.16745C24.7841 4.9032 24.5699 4.68898 24.3056 4.68898H17.9261ZM5.16662 15.2153H11.5462C13.0436 15.2153 14.2575 16.4292 14.2575 17.9266V24.3062C14.2575 25.8036 13.0436 27.0175 11.5462 27.0175H5.16662C3.6692 27.0175 2.4553 25.8036 2.4553 24.3062V17.9266C2.4553 16.4292 3.6692 15.2153 5.16662 15.2153ZM5.16684 17.4481C4.90259 17.4481 4.68837 17.6623 4.68837 17.9266V24.3062C4.68837 24.5704 4.90259 24.7846 5.16684 24.7846H11.5464C11.8107 24.7846 12.0249 24.5704 12.0249 24.3062V17.9266C12.0249 17.6623 11.8107 17.4481 11.5464 17.4481H5.16684Z" fill="#92929D"/>
</svg>
