<svg width="20" height="20" viewBox="0 0 20 20" fill="none" xmlns="http://www.w3.org/2000/svg">
<path d="M18.4209 17.1934C19.0991 17.1934 19.6493 17.7427 19.6494 18.4209C19.6494 19.0991 19.0991 19.6494 18.4209 19.6494H1.22852C0.550271 19.6494 0 19.0991 0 18.4209C8.90918e-05 17.7427 0.550326 17.1934 1.22852 17.1934H18.4209ZM18.4209 8.59668C19.099 8.59668 19.6492 9.14613 19.6494 9.82422C19.6494 10.5025 19.0991 11.0527 18.4209 11.0527H1.22852C0.550271 11.0527 0 10.5025 0 9.82422C0.00018802 9.14613 0.550387 8.59668 1.22852 8.59668H18.4209ZM18.4209 0C19.0991 0 19.6494 0.550271 19.6494 1.22852C19.6492 1.90656 19.099 2.45605 18.4209 2.45605H1.22852C0.55042 2.45605 0.000240695 1.90656 0 1.22852C0 0.550271 0.550271 0 1.22852 0H18.4209Z" fill="#92929D"/>
</svg>
