<svg preserveAspectRatio="none" width="100%" height="100%" overflow="visible" style="display: block;" viewBox="0 0 8 8" fill="none" xmlns="http://www.w3.org/2000/svg">
<g id="Vector">
<path d="M0.296937 6.48659C0.195834 6.5877 0.0970219 6.6903 0 6.79413L1.20701 8.00114C1.30332 7.89688 1.40163 7.79378 1.50287 7.69246L7.73963 1.4557C8.07265 1.12268 8.07265 0.582794 7.73963 0.249769C7.4066 -0.0832562 6.86672 -0.0832562 6.53369 0.249769L0.296937 6.48659Z" fill="url(#paint0_linear_3114_501)"/>
<path d="M6.54492 0.260742C6.87164 -0.0658331 7.40183 -0.0658733 7.72852 0.260742C8.0552 0.587426 8.05511 1.1176 7.72852 1.44434L1.49121 7.68066C1.39392 7.77803 1.29969 7.8775 1.20703 7.97754L0.0214844 6.79297C0.114991 6.69313 0.211311 6.59533 0.308594 6.49805L6.54492 0.260742Z" stroke="var(--stroke-0, #775DA6)" stroke-opacity="0.2" stroke-width="0.0322528"/>
</g>
<defs>
<linearGradient id="paint0_linear_3114_501" x1="3.51277" y1="3.16501" x2="4.90716" y2="4.5594" gradientUnits="userSpaceOnUse">
<stop stop-color="#433F43" stop-opacity="0"/>
<stop offset="1" stop-color="#1A1A1A"/>
</linearGradient>
</defs>
</svg>
