<svg preserveAspectRatio="none" width="100%" height="100%" overflow="visible" style="display: block;" viewBox="0 0 17 27" fill="none" xmlns="http://www.w3.org/2000/svg">
<g id="Group">
<g id="Vector">
<path d="M12.4299 26.6985H11.8629C9.37072 26.6985 7.01656 25.9679 5.05493 24.5855C3.22712 23.2974 1.79871 21.5007 0.924228 19.3896C0.0497418 17.2784 -0.210749 14.9979 0.170894 12.7947C0.580534 10.4301 1.72847 8.24881 3.49076 6.48652L9.72752 0.249769C10.0605 -0.0832562 10.6004 -0.0832562 10.9335 0.249769C11.2665 0.582794 11.2665 1.12268 10.9335 1.4557L4.6967 7.69246C1.74315 10.646 0.901386 14.878 2.49978 18.737C4.09824 22.596 7.68597 24.9932 11.8629 24.9932H12.4298C13.8337 24.9932 14.7104 24.0845 15.0626 23.234C15.4149 22.3836 15.4376 21.1211 14.4449 20.1284L15.6508 18.9225C16.9783 20.25 17.3567 22.1522 16.6382 23.8867C15.9198 25.621 14.3072 26.6985 12.4299 26.6985Z" fill="url(#paint0_linear_3114_514)"/>
<path d="M9.73929 0.260742C10.066 -0.065491 10.5953 -0.065566 10.9219 0.260742C11.2486 0.587469 11.2486 1.11761 10.9219 1.44434L4.68558 7.68066C1.72746 10.6388 0.883608 14.8782 2.48441 18.7432C4.08536 22.6082 7.67991 25.0098 11.8633 25.0098H12.4297C13.8416 25.0098 14.7231 24.0952 15.0772 23.2402C15.4301 22.3884 15.4543 21.1247 14.4668 20.1279L15.6504 18.9443C16.9646 20.2667 17.3371 22.1571 16.6231 23.8809C15.9071 25.609 14.3004 26.6826 12.4297 26.6826H11.8633C9.37436 26.6826 7.02326 25.9526 5.06448 24.5723C3.23936 23.2861 1.81284 21.492 0.939483 19.3838C0.0661996 17.2755 -0.19444 14.9979 0.186554 12.7979C0.595591 10.4368 1.74203 8.25805 3.50198 6.49805L9.73929 0.260742Z" stroke="var(--stroke-0, #775DA6)" stroke-opacity="0.2" stroke-width="0.0322528"/>
</g>
</g>
<defs>
<linearGradient id="paint0_linear_3114_514" x1="-0.834912" y1="6.62543" x2="20.4647" y2="20.582" gradientUnits="userSpaceOnUse">
<stop stop-color="#5A5A5A"/>
<stop offset="1" stop-color="#444444"/>
</linearGradient>
</defs>
</svg>
