<svg preserveAspectRatio="none" width="100%" height="100%" overflow="visible" style="display: block;" viewBox="0 0 33 33" fill="none" xmlns="http://www.w3.org/2000/svg">
<g id="Group">
<g id="Group_2">
<g id="Vector">
<path d="M3.87561 1.84252L1.65219 4.89495C0.900221 5.92747 0.37838 7.11335 0.154334 8.37084C-0.919494 14.3982 3.78231 18.9252 8.91602 24.0589C14.0497 29.1926 18.5768 33.8944 24.6041 32.8206C25.8616 32.5965 27.0474 32.0748 28.08 31.3227L31.1325 29.0993L20.4472 18.4141L19.0422 20.3431C18.2484 21.433 16.6713 21.5634 15.71 20.6177C14.6569 19.5816 13.3933 18.3181 12.3572 17.2649C11.4115 16.3037 11.5419 14.7266 12.6319 13.9327L14.5608 12.5277L3.87561 1.84252C3.87568 1.84252 3.87568 1.84252 3.87561 1.84252Z" fill="url(#paint0_linear_3114_486)"/>
<path d="M14.5352 12.5242L12.6221 13.9197C11.5244 14.7194 11.3932 16.3079 12.3457 17.2761C13.3819 18.3293 14.645 19.5935 15.6982 20.6296C16.6665 21.5822 18.256 21.4502 19.0557 20.3523L20.4482 18.4382L31.1074 29.0974L28.0703 31.3093C27.0398 32.0599 25.8565 32.5808 24.6016 32.8044C21.5933 33.3404 18.9583 32.4351 16.4336 30.7537C13.9086 29.0719 11.4948 26.6147 8.92773 24.0476C6.36045 21.4803 3.90255 19.066 2.2207 16.5408C0.539341 14.0162 -0.365961 11.3819 0.169922 8.37377C0.393515 7.11882 0.914428 5.93469 1.66504 4.90405L3.87695 1.86694L14.5352 12.5242Z" stroke="var(--stroke-0, #775DA6)" stroke-opacity="0.2" stroke-width="0.0322528"/>
</g>
</g>
<g id="Vector_2">
<path d="M19.0489 20.3338C18.2514 21.4286 16.6672 21.5595 15.7017 20.6096C15.5568 20.4671 15.4081 20.3203 15.2565 20.1704L10.1423 25.2847C14.7779 29.902 19.0449 33.7937 24.5732 32.826C25.8418 32.6039 27.0388 32.0809 28.0798 31.3227L31.1323 29.0992L20.4471 18.4141L19.0489 20.3338Z" fill="url(#paint1_linear_3114_486)"/>
<path d="M31.1071 29.0967L28.07 31.3096C27.031 32.0664 25.836 32.588 24.57 32.8096C21.8109 33.2925 19.3658 32.5634 17.0309 31.1358C14.6994 29.7101 12.4786 27.5886 10.1647 25.2842L15.2565 20.1924C15.4043 20.3385 15.5488 20.4821 15.6901 20.6211C16.6627 21.578 18.259 21.4456 19.0622 20.3428L20.4479 18.4385L31.1071 29.0967Z" stroke="var(--stroke-0, #775DA6)" stroke-opacity="0.2" stroke-width="0.0322528"/>
</g>
<g id="Vector_3">
<path d="M17.1107 21.9779C15.6485 20.5862 12.3892 17.3269 10.9975 15.8647L1.02465 5.89196C0.607276 6.66599 0.309766 7.50124 0.154817 8.37092C-0.919011 14.3982 3.78279 18.9253 8.9165 24.059C14.0502 29.1927 18.5772 33.8944 24.6045 32.8206C25.4742 32.6656 26.3094 32.3681 27.0835 31.9508L17.1107 21.9779Z" fill="url(#paint2_linear_3114_486)"/>
<path d="M10.9858 15.8763C12.3778 17.3387 15.6368 20.5977 17.0991 21.9896L27.0561 31.9466C26.2891 32.3577 25.4625 32.6517 24.602 32.805C21.5938 33.341 18.9588 32.4357 16.4341 30.7543C13.9089 29.0724 11.4954 26.6145 8.92822 24.0472C6.36099 21.48 3.90303 19.0666 2.22119 16.5414C0.539705 14.0167 -0.365549 11.3817 0.170405 8.37341C0.323781 7.51273 0.61667 6.68546 1.02783 5.91833L10.9858 15.8763Z" stroke="var(--stroke-0, #775DA6)" stroke-opacity="0.2" stroke-width="0.0322528"/>
</g>
<g id="Group_3">
<g id="Vector_4">
<path d="M15.9421 11.7224L14.8655 12.7991C13.867 13.7976 12.248 13.7976 11.2495 12.7991L3.89189 5.44151C2.89339 4.44301 2.89339 2.82407 3.89189 1.82557L4.96858 0.748877C5.96708 -0.249626 7.58602 -0.249626 8.58452 0.748877L15.9421 8.1065C16.9407 9.105 16.9407 10.7239 15.9421 11.7224Z" fill="url(#paint3_linear_3114_486)"/>
<path d="M4.97992 0.760742C5.97213 -0.231462 7.58049 -0.231462 8.5727 0.760742L15.9311 8.11816C16.923 9.11032 16.923 10.7188 15.9311 11.7109L14.8539 12.7881C13.8618 13.78 12.2533 13.7799 11.2612 12.7881L3.90375 5.42969C2.91155 4.43748 2.91155 2.82912 3.90375 1.83691L4.97992 0.760742Z" stroke="var(--stroke-0, #775DA6)" stroke-opacity="0.2" stroke-width="0.0322528"/>
</g>
<g id="Vector_5">
<path d="M14.6387 10.3464L14.3068 10.6783C13.6448 11.3404 12.5714 11.3404 11.9093 10.6783L6.01261 4.78154C5.35057 4.1195 5.35057 3.0461 6.01261 2.38406L6.34449 2.05218C7.00653 1.39014 8.07993 1.39014 8.74197 2.05218L14.6387 7.94889C15.3007 8.611 15.3007 9.68433 14.6387 10.3464Z" fill="url(#paint4_linear_3114_486)"/>
<path d="M6.35592 2.06346C7.01167 1.40779 8.0752 1.40774 8.73092 2.06346L14.6274 7.95994C15.2831 8.61572 15.283 9.67912 14.6274 10.3349L14.2954 10.667C13.6396 11.3227 12.5761 11.3227 11.9204 10.667L6.02389 4.77049C5.36817 4.11477 5.36822 3.05124 6.02389 2.39549L6.35592 2.06346Z" stroke="var(--stroke-0, #775DA6)" stroke-opacity="0.2" stroke-width="0.0322528"/>
</g>
<g id="Vector_6">
<path d="M14.6387 10.3464L14.3068 10.6783C13.6448 11.3404 12.5714 11.3404 11.9093 10.6783L6.01261 4.78154C5.35057 4.1195 5.35057 3.0461 6.01261 2.38406L6.34449 2.05218C7.00653 1.39014 8.07993 1.39014 8.74197 2.05218L14.6387 7.94889C15.3007 8.611 15.3007 9.68433 14.6387 10.3464Z" fill="url(#paint5_linear_3114_486)"/>
<path d="M6.35592 2.06346C7.01167 1.40779 8.0752 1.40774 8.73092 2.06346L14.6274 7.95994C15.2831 8.61572 15.283 9.67912 14.6274 10.3349L14.2954 10.667C13.6396 11.3227 12.5761 11.3227 11.9204 10.667L6.02389 4.77049C5.36817 4.11477 5.36822 3.05124 6.02389 2.39549L6.35592 2.06346Z" stroke="var(--stroke-0, #775DA6)" stroke-opacity="0.2" stroke-width="0.0322528"/>
</g>
</g>
<g id="Group_4">
<g id="Vector_7">
<path d="M32.2257 28.0056L31.149 29.0823C30.1505 30.0808 28.5316 30.0808 27.5331 29.0823L20.1754 21.7246C19.1769 20.7261 19.1769 19.1071 20.1754 18.1086L21.2521 17.032C22.2506 16.0335 23.8695 16.0335 24.868 17.032L32.2257 24.3896C33.2242 25.3882 33.2242 27.007 32.2257 28.0056Z" fill="url(#paint6_linear_3114_486)"/>
<path d="M21.2634 17.0438C22.2556 16.0516 23.864 16.0516 24.8562 17.0438L32.2146 24.4012C33.2065 25.3935 33.2065 27.0018 32.2146 27.994L31.1375 29.0712C30.1453 30.0631 28.5368 30.0631 27.5447 29.0712L20.1873 21.7128C19.1951 20.7206 19.1951 19.1122 20.1873 18.12L21.2634 17.0438Z" stroke="var(--stroke-0, #775DA6)" stroke-opacity="0.2" stroke-width="0.0322528"/>
</g>
<g id="Vector_8">
<path d="M30.9222 26.6296L30.5903 26.9615C29.9283 27.6235 28.8549 27.6235 28.1928 26.9615L22.2961 21.0648C21.6341 20.4027 21.6341 19.3293 22.2961 18.6673L22.628 18.3354C23.29 17.6734 24.3634 17.6734 25.0255 18.3354L30.9222 24.2321C31.5842 24.8942 31.5842 25.9676 30.9222 26.6296Z" fill="url(#paint7_linear_3114_486)"/>
<path d="M22.6394 18.3467C23.2952 17.691 24.3587 17.691 25.0144 18.3467L30.9109 24.2432C31.5666 24.8989 31.5666 25.9624 30.9109 26.6182L30.5789 26.9502C29.9231 27.6059 28.8596 27.6059 28.2039 26.9502L22.3074 21.0537C21.6517 20.398 21.6517 19.3345 22.3074 18.6787L22.6394 18.3467Z" stroke="var(--stroke-0, #775DA6)" stroke-opacity="0.2" stroke-width="0.0322528"/>
</g>
<g id="Vector_9">
<path d="M30.9222 26.6296L30.5903 26.9615C29.9283 27.6235 28.8549 27.6235 28.1928 26.9615L22.2961 21.0648C21.6341 20.4027 21.6341 19.3293 22.2961 18.6673L22.628 18.3354C23.29 17.6734 24.3634 17.6734 25.0255 18.3354L30.9222 24.2321C31.5842 24.8942 31.5842 25.9676 30.9222 26.6296Z" fill="url(#paint8_linear_3114_486)"/>
<path d="M22.6394 18.3467C23.2952 17.691 24.3587 17.691 25.0144 18.3467L30.9109 24.2432C31.5666 24.8989 31.5666 25.9624 30.9109 26.6182L30.5789 26.9502C29.9231 27.6059 28.8596 27.6059 28.2039 26.9502L22.3074 21.0537C21.6517 20.398 21.6517 19.3345 22.3074 18.6787L22.6394 18.3467Z" stroke="var(--stroke-0, #775DA6)" stroke-opacity="0.2" stroke-width="0.0322528"/>
</g>
<g id="Vector_10">
<path d="M32.2259 28.0059L31.1494 29.0825C30.151 30.0808 28.532 30.0808 27.5336 29.0825L22.8506 24.3994L27.3589 19.5225L32.2258 24.3894C33.2243 25.3878 33.2243 27.0068 32.2259 28.0059Z" fill="url(#paint9_linear_3114_486)"/>
<path d="M32.2149 24.4004C33.2069 25.3924 33.2066 27.0013 32.2149 27.9942L31.1377 29.0713C30.1456 30.0631 28.5369 30.0632 27.5449 29.0713L22.8731 24.3984L27.3584 19.5449L32.2149 24.4004Z" stroke="var(--stroke-0, #775DA6)" stroke-opacity="0.2" stroke-width="0.0322528"/>
</g>
</g>
</g>
<defs>
<linearGradient id="paint0_linear_3114_486" x1="16.7398" y1="16.1848" x2="11.2562" y2="26.9975" gradientUnits="userSpaceOnUse">
<stop stop-color="#BFA0F5"/>
<stop offset="1" stop-color="#775DA6"/>
</linearGradient>
<linearGradient id="paint1_linear_3114_486" x1="20.0069" y1="26.3176" x2="28.0006" y2="33.848" gradientUnits="userSpaceOnUse">
<stop stop-color="#775DA6" stop-opacity="0"/>
<stop offset="0.2761" stop-color="#775DA6" stop-opacity="0.28"/>
<stop offset="0.5628" stop-color="#775DA6" stop-opacity="0.56"/>
<stop offset="0.8535" stop-color="#775DA6" stop-opacity="0.85"/>
<stop offset="1" stop-color="#1F3596"/>
</linearGradient>
<linearGradient id="paint2_linear_3114_486" x1="12.2355" y1="21.1966" x2="8.87585" y2="25.4058" gradientUnits="userSpaceOnUse">
<stop stop-color="#775DA6" stop-opacity="0"/>
<stop offset="0.2761" stop-color="#775DA6" stop-opacity="0.28"/>
<stop offset="0.5628" stop-color="#775DA6" stop-opacity="0.56"/>
<stop offset="0.8535" stop-color="#775DA6" stop-opacity="0.85"/>
<stop offset="1" stop-color="#775DA6"/>
</linearGradient>
<linearGradient id="paint3_linear_3114_486" x1="10.0951" y1="2.96203" x2="9.67035" y2="12.1143" gradientUnits="userSpaceOnUse">
<stop stop-color="#BFA0F5"/>
<stop offset="1" stop-color="#775DA6"/>
</linearGradient>
<linearGradient id="paint4_linear_3114_486" x1="11.1676" y1="5.36897" x2="7.89032" y2="9.24698" gradientUnits="userSpaceOnUse">
<stop stop-color="#BFA0F5"/>
<stop offset="1" stop-color="#775DA6"/>
</linearGradient>
<linearGradient id="paint5_linear_3114_486" x1="8.7313" y1="4.77094" x2="5.34484" y2="1.38441" gradientUnits="userSpaceOnUse">
<stop stop-color="#775DA6" stop-opacity="0"/>
<stop offset="0.2761" stop-color="#775DA6" stop-opacity="0.276"/>
<stop offset="0.5628" stop-color="#775DA6" stop-opacity="0.563"/>
<stop offset="0.8535" stop-color="#775DA6" stop-opacity="0.854"/>
<stop offset="1" stop-color="#775DA6"/>
</linearGradient>
<linearGradient id="paint6_linear_3114_486" x1="26.8118" y1="19.6358" x2="25.3443" y2="27.8226" gradientUnits="userSpaceOnUse">
<stop stop-color="#BFA0F5"/>
<stop offset="1" stop-color="#775DA6"/>
</linearGradient>
<linearGradient id="paint7_linear_3114_486" x1="27.9169" y1="21.3348" x2="24.7503" y2="24.5013" gradientUnits="userSpaceOnUse">
<stop stop-color="#BFA0F5"/>
<stop offset="1" stop-color="#775DA6"/>
</linearGradient>
<linearGradient id="paint8_linear_3114_486" x1="26.4552" y1="20.1089" x2="26.2368" y2="16.504" gradientUnits="userSpaceOnUse">
<stop stop-color="#775DA6" stop-opacity="0"/>
<stop offset="0.2761" stop-color="#775DA6" stop-opacity="0.28"/>
<stop offset="0.5628" stop-color="#775DA6" stop-opacity="0.56"/>
<stop offset="0.8535" stop-color="#775DA6" stop-opacity="0.85"/>
<stop offset="1" stop-color="#775DA6"/>
</linearGradient>
<linearGradient id="paint9_linear_3114_486" x1="28.7399" y1="25.6647" x2="31.5802" y2="28.6688" gradientUnits="userSpaceOnUse">
<stop stop-color="#775DA6" stop-opacity="0"/>
<stop offset="0.2761" stop-color="#775DA6" stop-opacity="0.276"/>
<stop offset="0.5628" stop-color="#775DA6" stop-opacity="0.563"/>
<stop offset="0.8535" stop-color="#775DA6" stop-opacity="0.854"/>
<stop offset="1" stop-color="#775DA6"/>
</linearGradient>
</defs>
</svg>
