<svg preserveAspectRatio="none" width="100%" height="100%" overflow="visible" style="display: block;" viewBox="0 0 16 6" fill="none" xmlns="http://www.w3.org/2000/svg">
<g id="Vector">
<path d="M13.4678 2.4766C13.1156 3.3271 12.2389 4.23581 10.835 4.23581H10.2681C6.87868 4.23581 3.87737 2.65718 2.01204 0H0C0.865178 1.52156 2.04161 2.82853 3.46014 3.82817C5.42177 5.21054 7.77593 5.94118 10.2681 5.94118H10.8351C12.7124 5.94118 14.325 4.8637 15.0435 3.12926C15.4726 2.09324 15.5101 0.9975 15.1881 0H13.3324C13.8195 0.856943 13.7489 1.79788 13.4678 2.4766Z" fill="url(#paint0_linear_3114_475)"/>
<path d="M2.00488 0.0166016C3.87366 2.67345 6.87727 4.25195 10.2686 4.25195H10.835C12.2468 4.25195 13.1283 3.33743 13.4824 2.48242C13.7623 1.8065 13.8344 0.872106 13.3594 0.0166016H15.1768C15.4935 1.00725 15.4543 2.09456 15.0283 3.12305C14.3123 4.85142 12.7058 5.9248 10.835 5.9248H10.2686C7.77971 5.9248 5.42845 5.19562 3.46973 3.81543C2.06087 2.82259 0.891018 1.52559 0.0283203 0.0166016H2.00488Z" stroke="var(--stroke-0, #775DA6)" stroke-opacity="0.2" stroke-width="0.0322528"/>
</g>
<defs>
<linearGradient id="paint0_linear_3114_475" x1="7.0874" y1="4.03955" x2="6.82805" y2="5.36871" gradientUnits="userSpaceOnUse">
<stop stop-color="#433F43" stop-opacity="0"/>
<stop offset="1" stop-color="#1A1A1A"/>
</linearGradient>
</defs>
</svg>
