<svg preserveAspectRatio="none" width="100%" height="100%" overflow="visible" style="display: block;" viewBox="0 0 13 13" fill="none" xmlns="http://www.w3.org/2000/svg">
<g id="Group">
<path id="Vector" d="M4.89522 0.0114898L4.89421 0.0124816" stroke="var(--stroke-0, #775DA6)" stroke-opacity="0.2" stroke-width="0.0322528"/>
<g id="Vector_2">
<path d="M7.67031 7.23021L4.89427 4.45417C3.66757 3.22747 3.6675 1.23856 4.8942 0.0117843L2.67308 2.2329L0 4.90598L7.21857 12.1246L9.89165 9.45148L12.1129 7.23021C10.8861 8.45691 8.89709 8.45691 7.67031 7.23021Z" fill="url(#paint0_linear_3114_470)"/>
<path d="M4.58789 0.339909C3.65915 1.57674 3.7575 3.34057 4.88281 4.46589L7.65918 7.24128C8.78463 8.36667 10.5473 8.46418 11.7842 7.53522L9.87988 9.4405L7.21777 12.1016L0.0224609 4.90534L2.68457 2.24421L4.58789 0.339909Z" stroke="var(--stroke-0, #775DA6)" stroke-opacity="0.2" stroke-width="0.0322528"/>
</g>
<g id="Vector_3">
<path d="M7.67031 7.23021L4.89427 4.45417C3.66757 3.22747 3.6675 1.23856 4.8942 0.0117843L2.67308 2.2329L0 4.90598L7.21857 12.1246L9.89165 9.45148L12.1129 7.23021C10.8861 8.45691 8.89709 8.45691 7.67031 7.23021Z" fill="url(#paint1_linear_3114_470)"/>
<path d="M4.58789 0.339909C3.65915 1.57674 3.7575 3.34057 4.88281 4.46589L7.65918 7.24128C8.78463 8.36667 10.5473 8.46418 11.7842 7.53522L9.87988 9.4405L7.21777 12.1016L0.0224609 4.90534L2.68457 2.24421L4.58789 0.339909Z" stroke="var(--stroke-0, #775DA6)" stroke-opacity="0.2" stroke-width="0.0322528"/>
</g>
</g>
<defs>
<linearGradient id="paint0_linear_3114_470" x1="7.08339" y1="5.04103" x2="3.3488" y2="8.77562" gradientUnits="userSpaceOnUse">
<stop stop-color="#BFA0F5"/>
<stop offset="1" stop-color="#775DA6"/>
</linearGradient>
<linearGradient id="paint1_linear_3114_470" x1="7.21191" y1="6.93807" x2="10.4527" y2="9.3778" gradientUnits="userSpaceOnUse">
<stop stop-color="#775DA6" stop-opacity="0"/>
<stop offset="0.2761" stop-color="#775DA6" stop-opacity="0.276"/>
<stop offset="0.5628" stop-color="#775DA6" stop-opacity="0.563"/>
<stop offset="0.8535" stop-color="#775DA6" stop-opacity="0.854"/>
<stop offset="1" stop-color="#775DA6"/>
</linearGradient>
</defs>
</svg>
