<svg preserveAspectRatio="none" width="100%" height="100%" overflow="visible" style="display: block;" viewBox="0 0 9 8" fill="none" xmlns="http://www.w3.org/2000/svg">
<g id="Vector">
<path d="M5.94662 1.20586C6.93932 2.19857 6.91662 3.461 6.56434 4.31142C6.21212 5.16192 5.33542 6.07064 3.93157 6.07064H3.36462C2.18561 6.07064 1.05364 5.87945 0 5.5185V7.30893C1.07454 7.61754 2.20458 7.77607 3.36462 7.77607H3.93157C5.80893 7.77607 7.4215 6.69859 8.13996 4.96416C8.85842 3.22965 8.48007 1.32752 7.15255 0L5.94662 1.20586Z" fill="url(#paint0_linear_3114_507)"/>
<path d="M7.15234 0.0224609C8.46625 1.34485 8.83896 3.23437 8.125 4.95801C7.40903 6.68637 5.80243 7.75974 3.93164 7.75977H3.36426C2.21009 7.75973 1.086 7.60181 0.0166016 7.2959V5.54004C1.06574 5.8968 2.19163 6.08688 3.36426 6.08691H3.93164C5.34347 6.08688 6.22503 5.17237 6.5791 4.31738C6.93194 3.4655 6.95626 2.20176 5.96875 1.20508L7.15234 0.0224609Z" stroke="var(--stroke-0, #775DA6)" stroke-opacity="0.2" stroke-width="0.0322528"/>
</g>
<defs>
<linearGradient id="paint0_linear_3114_507" x1="5.44783" y1="4.43651" x2="7.61991" y2="5.34429" gradientUnits="userSpaceOnUse">
<stop stop-color="#433F43" stop-opacity="0"/>
<stop offset="1" stop-color="#1A1A1A"/>
</linearGradient>
</defs>
</svg>
