<svg preserveAspectRatio="none" width="100%" height="100%" overflow="visible" style="display: block;" viewBox="0 0 17 13" fill="none" xmlns="http://www.w3.org/2000/svg">
<g id="Vector">
<path d="M0.0387613 0C-0.113896 1.87313 0.185117 3.77361 0.922484 5.55388C1.79697 7.66502 3.2253 9.46174 5.05318 10.7498C7.01481 12.1322 9.36897 12.8628 11.8612 12.8628H12.4281C14.3055 12.8628 15.9181 11.7853 16.6365 10.0509C17.355 8.31639 16.9766 6.41426 15.6491 5.08674L14.4432 6.29267C15.4359 7.28538 15.4132 8.54781 15.0609 9.39823C14.7087 10.2487 13.832 11.1574 12.4281 11.1574H11.8612C7.68423 11.1574 4.0965 8.76018 2.49811 4.90121C1.8317 3.29237 1.59097 1.61887 1.74907 0H0.0387613Z" fill="url(#paint0_linear_3114_477)"/>
<path d="M1.73145 0.0166016C1.57665 1.63248 1.8185 3.302 2.4834 4.90723C4.08429 8.77222 7.67785 11.1738 11.8613 11.1738H12.4277C13.8396 11.1738 14.7221 10.2593 15.0762 9.4043C15.429 8.55237 15.4525 7.28867 14.4648 6.29199L15.6484 5.1084C16.9629 6.43082 17.3361 8.32101 16.6221 10.0449C15.9061 11.7733 14.2986 12.8467 12.4277 12.8467H11.8613C9.37231 12.8467 7.0213 12.1167 5.0625 10.7363C3.23728 9.4501 1.81083 7.65612 0.9375 5.54785C0.203104 3.77476 -0.0958705 1.8822 0.0537109 0.0166016H1.73145Z" stroke="var(--stroke-0, #775DA6)" stroke-opacity="0.2" stroke-width="0.0322528"/>
</g>
<defs>
<linearGradient id="paint0_linear_3114_477" x1="7.06121" y1="9.27021" x2="8.16347" y2="5.63923" gradientUnits="userSpaceOnUse">
<stop stop-color="#433F43" stop-opacity="0"/>
<stop offset="1" stop-color="#1A1A1A"/>
</linearGradient>
</defs>
</svg>
