<svg preserveAspectRatio="none" width="100%" height="100%" overflow="visible" style="display: block;" viewBox="0 0 13 14" fill="none" xmlns="http://www.w3.org/2000/svg">
<g id="Component/icon/ic_File">
<path id="Shape" fill-rule="evenodd" clip-rule="evenodd" d="M2.45516 0H8.30556C8.66988 0 9.01538 0.161823 9.24861 0.441702L11.9913 3.73287C12.1751 3.95348 12.2758 4.23157 12.2758 4.51874V11.0482C12.2758 12.4041 11.1766 13.5034 9.82062 13.5034H2.45516C1.09921 13.5034 0 12.4041 0 11.0482V2.45516C0 1.09921 1.09921 0 2.45516 0ZM11.0493 11.0482V4.91027H9.20789C8.52992 4.91027 7.98031 4.36067 7.98031 3.68269V1.22754H2.45621C1.77824 1.22754 1.22863 1.77714 1.22863 2.45512V11.0482C1.22863 11.7261 1.77824 12.2757 2.45621 12.2757H9.82168C10.4997 12.2757 11.0493 11.7261 11.0493 11.0482ZM10.3528 3.68289L9.20812 2.30927V3.68289H10.3528ZM3.68397 7.97929C3.34499 7.97929 3.07018 7.70448 3.07018 7.3655C3.07018 7.02651 3.34499 6.75171 3.68397 6.75171H8.59428C8.93327 6.75171 9.20807 7.02651 9.20807 7.3655C9.20807 7.70448 8.93327 7.97929 8.59428 7.97929H3.68397ZM3.68397 10.4344C3.34499 10.4344 3.07018 10.1596 3.07018 9.82058C3.07018 9.48159 3.34499 9.20679 3.68397 9.20679H7.36671C7.70569 9.20679 7.98049 9.48159 7.98049 9.82058C7.98049 10.1596 7.70569 10.4344 7.36671 10.4344H3.68397ZM3.68397 5.52421C3.34499 5.52421 3.07018 5.24941 3.07018 4.91042C3.07018 4.57143 3.34499 4.29663 3.68397 4.29663H5.52534C5.86432 4.29663 6.13913 4.57143 6.13913 4.91042C6.13913 5.24941 5.86432 5.52421 5.52534 5.52421H3.68397Z" fill="var(--fill-0, #775DA6)"/>
</g>
</svg>
