<svg preserveAspectRatio="none" width="100%" height="100%" overflow="visible" style="display: block;" viewBox="0 0 13 14" fill="none" xmlns="http://www.w3.org/2000/svg">
<g id="Component/icon/ic_File">
<path id="Shape" fill-rule="evenodd" clip-rule="evenodd" d="M2.45516 0H8.30556C8.66988 0 9.01538 0.161823 9.24861 0.441702L11.9913 3.73287C12.1751 3.95348 12.2758 4.23157 12.2758 4.51874V11.0482C12.2758 12.4041 11.1766 13.5034 9.82062 13.5034H2.45516C1.09921 13.5034 0 12.4041 0 11.0482V2.45516C0 1.09921 1.09921 0 2.45516 0ZM11.0492 11.0482V4.91027H9.20787C8.5299 4.91027 7.98029 4.36067 7.98029 3.68269V1.22754H2.45619C1.77822 1.22754 1.22861 1.77714 1.22861 2.45512V11.0482C1.22861 11.7261 1.77822 12.2757 2.45619 12.2757H9.82166C10.4996 12.2757 11.0492 11.7261 11.0492 11.0482ZM10.3528 3.68289L9.2081 2.30927V3.68289H10.3528ZM3.68395 7.97929C3.34496 7.97929 3.07016 7.70448 3.07016 7.3655C3.07016 7.02651 3.34496 6.75171 3.68395 6.75171H8.59426C8.93325 6.75171 9.20805 7.02651 9.20805 7.3655C9.20805 7.70448 8.93325 7.97929 8.59426 7.97929H3.68395ZM3.68395 10.4344C3.34496 10.4344 3.07016 10.1596 3.07016 9.82058C3.07016 9.48159 3.34496 9.20679 3.68395 9.20679H7.36668C7.70567 9.20679 7.98047 9.48159 7.98047 9.82058C7.98047 10.1596 7.70567 10.4344 7.36668 10.4344H3.68395ZM3.68395 5.52421C3.34496 5.52421 3.07016 5.24941 3.07016 4.91042C3.07016 4.57143 3.34496 4.29663 3.68395 4.29663H5.52532C5.8643 4.29663 6.13911 4.57143 6.13911 4.91042C6.13911 5.24941 5.8643 5.52421 5.52532 5.52421H3.68395Z" fill="var(--fill-0, #775DA6)"/>
</g>
</svg>
