<svg preserveAspectRatio="none" width="100%" height="100%" overflow="visible" style="display: block;" viewBox="0 0 12 12" fill="none" xmlns="http://www.w3.org/2000/svg">
<g id="icon Verified">
<path id="Star 8" d="M5.32684 0.594989C5.5472 0.359213 5.9211 0.359213 6.14147 0.594989L7.16132 1.68618C7.27122 1.80378 7.42659 1.86813 7.58746 1.8627L9.0802 1.81225C9.40273 1.80135 9.66712 2.06574 9.65622 2.38828L9.60577 3.88101C9.60034 4.04188 9.66469 4.19725 9.78229 4.30715L10.8735 5.32701C11.1093 5.54737 11.1093 5.92127 10.8735 6.14163L9.78229 7.16148C9.66469 7.27139 9.60034 7.42676 9.60577 7.58762L9.65622 9.08036C9.66712 9.4029 9.40273 9.66728 9.0802 9.65638L7.58746 9.60594C7.42659 9.6005 7.27122 9.66486 7.16132 9.78245L6.14147 10.8736C5.92111 11.1094 5.5472 11.1094 5.32684 10.8736L4.30699 9.78245C4.19708 9.66486 4.04172 9.6005 3.88085 9.60594L2.38811 9.65638C2.06558 9.66728 1.80119 9.4029 1.81209 9.08036L1.86253 7.58762C1.86797 7.42676 1.80362 7.27139 1.68602 7.16148L0.594826 6.14163C0.35905 5.92127 0.35905 5.54737 0.594826 5.32701L1.68602 4.30715C1.80362 4.19725 1.86797 4.04188 1.86253 3.88101L1.81209 2.38828C1.80119 2.06574 2.06558 1.80135 2.38811 1.81225L3.88085 1.8627C4.04172 1.86813 4.19708 1.80378 4.30699 1.68618L5.32684 0.594989Z" fill="url(#paint0_linear_3244_1444)"/>
<path id="Star 8 (Stroke)" fill-rule="evenodd" clip-rule="evenodd" d="M5.0215 0.309476C5.40713 -0.103132 6.06146 -0.103133 6.44709 0.309475L7.46694 1.40067C7.49442 1.43007 7.53326 1.44616 7.57348 1.4448L9.06621 1.39435C9.63065 1.37528 10.0933 1.83796 10.0743 2.4024L10.0238 3.89513C10.0225 3.93535 10.0385 3.97419 10.0679 4.00167L11.1591 5.02152C11.5717 5.40715 11.5717 6.06148 11.1591 6.44711L10.0679 7.46696C10.0385 7.49444 10.0225 7.53328 10.0238 7.5735L10.0743 9.06623C10.0933 9.63067 9.63065 10.0934 9.06621 10.0743L7.57348 10.0238C7.53326 10.0225 7.49442 10.0386 7.46694 10.068L6.44709 11.1592C6.06146 11.5718 5.40713 11.5718 5.0215 11.1592L4.00165 10.068C3.97417 10.0386 3.93533 10.0225 3.89511 10.0238L2.40238 10.0743C1.83794 10.0934 1.37526 9.63067 1.39433 9.06623L1.44478 7.5735C1.44614 7.53328 1.43005 7.49444 1.40065 7.46696L0.309456 6.44711C-0.103152 6.06148 -0.103152 5.40715 0.309456 5.02152L1.40065 4.00167C1.43005 3.97419 1.44614 3.93535 1.44478 3.89513L1.39433 2.4024C1.37526 1.83796 1.83794 1.37528 2.40238 1.39435L3.89511 1.4448C3.93533 1.44616 3.97417 1.43007 4.00165 1.40067L5.0215 0.309476ZM5.83612 0.880498C5.78103 0.821554 5.68756 0.821554 5.63247 0.880498L4.61262 1.97169C4.42028 2.17748 4.14839 2.29011 3.86687 2.28059L2.37413 2.23014C2.2935 2.22742 2.2274 2.29352 2.23012 2.37415L2.28057 3.86689C2.29009 4.14841 2.17746 4.4203 1.97167 4.61264L0.880478 5.63249C0.821534 5.68758 0.821534 5.78105 0.880478 5.83614L1.97167 6.85599C2.17746 7.04833 2.29009 7.32022 2.28057 7.60174L2.23012 9.09448C2.2274 9.17511 2.2935 9.24121 2.37413 9.23849L3.86687 9.18804C4.14839 9.17852 4.42028 9.29115 4.61262 9.49694L5.63247 10.5881C5.68756 10.6471 5.78103 10.6471 5.83612 10.5881L6.85598 9.49694C7.04831 9.29115 7.32021 9.17852 7.60172 9.18804L9.09446 9.23849C9.17509 9.24121 9.24119 9.17511 9.23847 9.09448L9.18802 7.60174C9.1785 7.32022 9.29113 7.04833 9.49692 6.85599L10.5881 5.83614C10.6471 5.78105 10.6471 5.68758 10.5881 5.63249L9.49692 4.61264C9.29113 4.4203 9.1785 4.14841 9.18802 3.86689L9.23847 2.37415C9.24119 2.29352 9.17509 2.22742 9.09446 2.23014L7.60172 2.28059C7.3202 2.29011 7.04831 2.17748 6.85598 1.97169L5.83612 0.880498Z" fill="url(#paint1_linear_3244_1444)"/>
<path id="Vector 239 (Stroke)" fill-rule="evenodd" clip-rule="evenodd" d="M8.15495 3.58795C8.3397 3.72651 8.37714 3.9886 8.23858 4.17334L5.89202 7.30209C5.7085 7.54678 5.34468 7.5561 5.14886 7.32113L3.60143 5.4642C3.45359 5.2868 3.47756 5.02314 3.65496 4.8753C3.83237 4.72746 4.09603 4.75143 4.24387 4.92884L5.49795 6.43373L7.56956 3.67158C7.70812 3.48684 7.97021 3.4494 8.15495 3.58795Z" fill="var(--fill-0, white)"/>
</g>
<defs>
<linearGradient id="paint0_linear_3244_1444" x1="0.417994" y1="5.73432" x2="11.0503" y2="5.73432" gradientUnits="userSpaceOnUse">
<stop stop-color="#049A0E"/>
<stop offset="1" stop-color="#02B346"/>
</linearGradient>
<linearGradient id="paint1_linear_3244_1444" x1="-4.15457e-09" y1="5.73432" x2="11.4686" y2="5.73432" gradientUnits="userSpaceOnUse">
<stop stop-color="#049A0E"/>
<stop offset="1" stop-color="#02B346"/>
</linearGradient>
</defs>
</svg>
