<svg preserveAspectRatio="none" width="100%" height="100%" overflow="visible" style="display: block;" viewBox="0 0 14 14" fill="none" xmlns="http://www.w3.org/2000/svg">
<g id="Component/icon/ic_Activity">
<path id="Combined Shape" d="M6.75195 0C10.4806 8.90661e-05 13.5037 3.02233 13.5039 6.75098C13.5039 10.4798 10.4807 13.5028 6.75195 13.5029C3.02316 13.5029 0 10.4798 0 6.75098C0.000168714 3.02231 3.02326 5.96918e-05 6.75195 0ZM6.75293 1.22754C3.70222 1.2276 1.2287 3.70029 1.22852 6.75098C1.22852 9.80182 3.7021 12.2753 6.75293 12.2754C9.80373 12.2753 12.2764 9.80179 12.2764 6.75098C12.2762 3.70031 9.80361 1.22763 6.75293 1.22754ZM6.75 2.45508C7.08893 2.45508 7.36416 2.72946 7.36426 3.06836V6.45117L9.88867 8.41504C10.1562 8.6231 10.205 9.0088 9.99707 9.27637C9.78899 9.54389 9.40332 9.59176 9.13574 9.38379L6.37305 7.23535C6.22374 7.11906 6.13672 6.94025 6.13672 6.75098V3.06836C6.13682 2.72948 6.41111 2.45512 6.75 2.45508Z" fill="var(--fill-0, #775DA6)"/>
</g>
</svg>
