<svg preserveAspectRatio="none" width="100%" height="100%" overflow="visible" style="display: block;" viewBox="0 0 13 14" fill="none" xmlns="http://www.w3.org/2000/svg">
<g id="Component/icon/ic_File">
<path id="Shape" fill-rule="evenodd" clip-rule="evenodd" d="M2.45516 0H8.30556C8.66988 0 9.01538 0.161823 9.24861 0.441702L11.9913 3.73287C12.1751 3.95348 12.2758 4.23157 12.2758 4.51874V11.0482C12.2758 12.4041 11.1766 13.5034 9.82062 13.5034H2.45516C1.09921 13.5034 0 12.4041 0 11.0482V2.45516C0 1.09921 1.09921 0 2.45516 0ZM11.0493 11.0482V4.91027H9.20791C8.52994 4.91027 7.98033 4.36067 7.98033 3.68269V1.22754H2.45623C1.77826 1.22754 1.22865 1.77714 1.22865 2.45512V11.0482C1.22865 11.7261 1.77826 12.2757 2.45623 12.2757H9.8217C10.4997 12.2757 11.0493 11.7261 11.0493 11.0482ZM10.3528 3.68289L9.20814 2.30927V3.68289H10.3528ZM3.68399 7.97929C3.345 7.97929 3.0702 7.70448 3.0702 7.3655C3.0702 7.02651 3.345 6.75171 3.68399 6.75171H8.5943C8.93329 6.75171 9.20809 7.02651 9.20809 7.3655C9.20809 7.70448 8.93329 7.97929 8.5943 7.97929H3.68399ZM3.68399 10.4344C3.345 10.4344 3.0702 10.1596 3.0702 9.82058C3.0702 9.48159 3.345 9.20679 3.68399 9.20679H7.36672C7.70571 9.20679 7.98051 9.48159 7.98051 9.82058C7.98051 10.1596 7.70571 10.4344 7.36672 10.4344H3.68399ZM3.68399 5.52421C3.345 5.52421 3.0702 5.24941 3.0702 4.91042C3.0702 4.57143 3.345 4.29663 3.68399 4.29663H5.52536C5.86434 4.29663 6.13915 4.57143 6.13915 4.91042C6.13915 5.24941 5.86434 5.52421 5.52536 5.52421H3.68399Z" fill="var(--fill-0, #775DA6)"/>
</g>
</svg>
