<svg preserveAspectRatio="none" width="100%" height="100%" overflow="visible" style="display: block;" viewBox="0 0 13 14" fill="none" xmlns="http://www.w3.org/2000/svg">
<g id="Component/icon/ic_File">
<path id="Shape" fill-rule="evenodd" clip-rule="evenodd" d="M2.45516 0H8.30556C8.66988 0 9.01538 0.161823 9.24861 0.441702L11.9913 3.73287C12.1751 3.95348 12.2758 4.23157 12.2758 4.51874V11.0482C12.2758 12.4041 11.1766 13.5034 9.82062 13.5034H2.45516C1.09921 13.5034 0 12.4041 0 11.0482V2.45516C0 1.09921 1.09921 0 2.45516 0ZM11.0492 11.0482V4.91027H9.20783C8.52985 4.91027 7.98025 4.36067 7.98025 3.68269V1.22754H2.45615C1.77818 1.22754 1.22857 1.77714 1.22857 2.45512V11.0482C1.22857 11.7261 1.77818 12.2757 2.45615 12.2757H9.82162C10.4996 12.2757 11.0492 11.7261 11.0492 11.0482ZM10.3527 3.68289L9.20806 2.30927V3.68289H10.3527ZM3.68391 7.97929C3.34492 7.97929 3.07012 7.70448 3.07012 7.3655C3.07012 7.02651 3.34492 6.75171 3.68391 6.75171H8.59422C8.93321 6.75171 9.20801 7.02651 9.20801 7.3655C9.20801 7.70448 8.93321 7.97929 8.59422 7.97929H3.68391ZM3.68391 10.4344C3.34492 10.4344 3.07012 10.1596 3.07012 9.82058C3.07012 9.48159 3.34492 9.20679 3.68391 9.20679H7.36664C7.70563 9.20679 7.98043 9.48159 7.98043 9.82058C7.98043 10.1596 7.70563 10.4344 7.36664 10.4344H3.68391ZM3.68391 5.52421C3.34492 5.52421 3.07012 5.24941 3.07012 4.91042C3.07012 4.57143 3.34492 4.29663 3.68391 4.29663H5.52527C5.86426 4.29663 6.13906 4.57143 6.13906 4.91042C6.13906 5.24941 5.86426 5.52421 5.52527 5.52421H3.68391Z" fill="var(--fill-0, #775DA6)"/>
</g>
</svg>
