<svg preserveAspectRatio="none" width="100%" height="100%" overflow="visible" style="display: block;" viewBox="0 0 8 25" fill="none" xmlns="http://www.w3.org/2000/svg">
<g id="Vector 1" filter="url(#filter0_f_3244_1539)">
<path d="M1.87202 2.63017C2.04269 1.35004 4.53092 1.48337 5.61018 1.60276C5.78433 1.62203 5.83712 1.8494 5.69698 1.95456C5.15066 2.36453 4.22107 3.16012 3.98779 3.9766C2.84356 7.98149 3.08198 14.7517 3.27946 17.9601C3.35184 19.136 3.1595 20.3144 2.68101 21.391L1.87202 23.2113C1.87202 23.2113 1.10267 8.40058 1.87202 2.63017Z" fill="var(--fill-0, white)" fill-opacity="0.3"/>
<path d="M1.87202 2.63017C2.04269 1.35004 4.53092 1.48337 5.61018 1.60276C5.78433 1.62203 5.83712 1.8494 5.69698 1.95456C5.15066 2.36453 4.22107 3.16012 3.98779 3.9766C2.84356 7.98149 3.08198 14.7517 3.27946 17.9601C3.35184 19.136 3.1595 20.3144 2.68101 21.391L1.87202 23.2113C1.87202 23.2113 1.10267 8.40058 1.87202 2.63017Z" fill="url(#paint0_linear_3244_1539)"/>
</g>
<defs>
<filter id="filter0_f_3244_1539" x="7.72651e-09" y="4.6157e-08" width="7.30724" height="24.7414" filterUnits="userSpaceOnUse" color-interpolation-filters="sRGB">
<feFlood flood-opacity="0" result="BackgroundImageFix"/>
<feBlend mode="normal" in="SourceGraphic" in2="BackgroundImageFix" result="shape"/>
<feGaussianBlur stdDeviation="0.765042" result="effect1_foregroundBlur_3244_1539"/>
</filter>
<linearGradient id="paint0_linear_3244_1539" x1="1.53008" y1="2.10713" x2="3.45355" y2="3.83821" gradientUnits="userSpaceOnUse">
<stop stop-color="white"/>
<stop offset="1" stop-color="white" stop-opacity="0"/>
</linearGradient>
</defs>
</svg>
