<svg preserveAspectRatio="none" width="100%" height="100%" overflow="visible" style="display: block;" viewBox="0 0 669 309" fill="none" xmlns="http://www.w3.org/2000/svg">
<path id="Vector" opacity="0.5" d="M336.033 304.743C309.273 298.69 295.255 293.593 270.725 281.487L248.743 270.337L235.044 277.345C198.088 295.823 157.31 290.088 109.523 259.823C68.1078 233.381 38.4799 196.745 10.4448 138.763C1.20602 119.011 -1.6612 110.409 0.887442 107.861C4.39182 104.356 13.6306 117.1 39.7542 163.612C85.6297 245.169 181.204 296.141 226.123 263.328C231.858 259.186 231.539 258.23 218.477 243.576C200 222.55 192.354 206.621 190.442 184.639C188.85 167.117 189.168 165.524 198.726 155.966C207.964 147.046 210.194 146.09 223.575 147.683C242.371 149.595 261.804 163.294 271.68 181.771C278.052 193.559 279.008 199.293 277.733 214.585C276.778 224.78 273.273 237.841 269.45 244.213C265.627 250.266 263.397 256.956 264.672 258.549C267.857 263.965 290.477 273.841 319.149 282.761C344.317 290.407 351.962 291.363 394.971 291.363C437.66 291.044 445.625 290.088 471.43 282.443C487.04 277.664 511.252 267.788 525.588 260.461C572.738 235.93 621.8 178.904 642.189 124.746C646.012 114.551 650.79 86.516 654.295 55.2951C657.799 26.6229 661.303 2.09229 662.259 1.13655C667.357 -3.96072 668.949 7.50815 668.312 47.3306C667.994 79.5072 666.082 97.3477 661.622 115.188C643.144 185.276 592.172 247.399 526.544 280.213C508.385 289.133 485.129 298.69 474.616 301.557C449.129 308.566 360.564 310.478 336.033 304.743ZM256.388 232.107C264.034 215.222 264.353 203.435 257.663 189.099C248.105 169.347 219.752 155.966 209.239 166.479C203.504 172.214 204.779 191.01 211.469 205.983C217.84 220.001 240.459 245.487 246.513 245.487C248.743 245.487 253.203 239.434 256.388 232.107Z" fill="var(--fill-0, #BFA0F5)"/>
</svg>
