<svg preserveAspectRatio="none" width="100%" height="100%" overflow="visible" style="display: block;" viewBox="0 0 10 34" fill="none" xmlns="http://www.w3.org/2000/svg">
<g id="Vector 1" filter="url(#filter0_f_3198_1633)">
<path d="M2.50689 3.52811C2.73633 1.80379 6.08412 1.98507 7.53165 2.14585C7.76454 2.17172 7.83505 2.47562 7.64771 2.61638C6.91438 3.16737 5.66248 4.23965 5.34868 5.34014C3.80973 10.7372 4.13292 19.866 4.39836 24.1766C4.4951 25.7475 4.23861 27.322 3.60049 28.7607L2.50689 31.2262C2.50689 31.2262 1.47354 11.2939 2.50689 3.52811Z" fill="var(--fill-0, white)" fill-opacity="0.3"/>
<path d="M2.50689 3.52811C2.73633 1.80379 6.08412 1.98507 7.53165 2.14585C7.76454 2.17172 7.83505 2.47562 7.64771 2.61638C6.91438 3.16737 5.66248 4.23965 5.34868 5.34014C3.80973 10.7372 4.13292 19.866 4.39836 24.1766C4.4951 25.7475 4.23861 27.322 3.60049 28.7607L2.50689 31.2262C2.50689 31.2262 1.47354 11.2939 2.50689 3.52811Z" fill="url(#paint0_linear_3198_1633)"/>
</g>
<defs>
<filter id="filter0_f_3198_1633" x="2.53871e-08" y="5.66671e-08" width="9.80253" height="33.2738" filterUnits="userSpaceOnUse" color-interpolation-filters="sRGB">
<feFlood flood-opacity="0" result="BackgroundImageFix"/>
<feBlend mode="normal" in="SourceGraphic" in2="BackgroundImageFix" result="shape"/>
<feGaussianBlur stdDeviation="1.02381" result="effect1_foregroundBlur_3198_1633"/>
</filter>
<linearGradient id="paint0_linear_3198_1633" x1="2.04762" y1="2.8242" x2="4.63568" y2="5.14882" gradientUnits="userSpaceOnUse">
<stop stop-color="white"/>
<stop offset="1" stop-color="white" stop-opacity="0"/>
</linearGradient>
</defs>
</svg>
