<svg preserveAspectRatio="none" width="100%" height="100%" overflow="visible" style="display: block;" viewBox="0 0 32 32" fill="none" xmlns="http://www.w3.org/2000/svg">
<g id="Play">
<path id="Play_2" fill-rule="evenodd" clip-rule="evenodd" d="M0 15.8689C0 7.11507 7.1185 0 15.8597 0C24.6009 0 31.7194 7.11507 31.7194 15.8689C31.7194 24.6044 24.6009 31.7194 15.8597 31.7194C7.1185 31.7194 0 24.6044 0 15.8689ZM21.6769 17.4741C21.8453 17.3058 22.0596 17.0457 22.1055 16.9845C22.3505 16.6631 22.4729 16.2653 22.4729 15.869C22.4729 15.4237 22.3352 15.0106 22.0749 14.674C22.0536 14.6527 22.0118 14.6072 21.9574 14.548C21.8556 14.4371 21.7094 14.278 21.5697 14.1384C20.3144 12.7919 17.0384 10.5886 15.3238 9.91531C15.0636 9.80973 14.4053 9.57868 14.0532 9.56338C13.7164 9.56338 13.3949 9.63989 13.0888 9.7929C12.7061 10.0071 12.3999 10.3437 12.2315 10.7416C12.1243 11.017 11.9559 11.8433 11.9559 11.8586C11.7875 12.7613 11.6957 14.2303 11.6957 15.8522C11.6957 17.3991 11.7875 18.8053 11.9253 19.7234C11.9291 19.7272 11.9423 19.7928 11.9627 19.8948C12.0249 20.205 12.1545 20.851 12.2927 21.1158C12.6295 21.7585 13.2878 22.1563 13.992 22.1563H14.0532C14.5125 22.141 15.4769 21.7432 15.4769 21.7278C17.0996 21.0546 20.2991 18.9583 21.585 17.5659L21.6769 17.4741Z" fill="url(#paint0_linear_3244_1395)"/>
</g>
<defs>
<linearGradient id="paint0_linear_3244_1395" x1="15.8597" y1="30.4506" x2="15.8597" y2="0" gradientUnits="userSpaceOnUse">
<stop stop-color="white"/>
<stop offset="1" stop-color="white" stop-opacity="0.8"/>
</linearGradient>
</defs>
</svg>
