<svg preserveAspectRatio="none" width="100%" height="100%" overflow="visible" style="display: block;" viewBox="0 0 14 14" fill="none" xmlns="http://www.w3.org/2000/svg">
<g id="Component/icon/ic_Activity">
<path id="Combined Shape" d="M6.75195 0C10.4806 8.90661e-05 13.5037 3.02233 13.5039 6.75098C13.5039 10.4798 10.4807 13.5028 6.75195 13.5029C3.02316 13.5029 0 10.4798 0 6.75098C0.000168714 3.02231 3.02326 5.96918e-05 6.75195 0ZM6.75293 1.22754C3.70222 1.2276 1.2287 3.70029 1.22852 6.75098C1.22852 9.80182 3.7021 12.2753 6.75293 12.2754C9.80374 12.2753 12.2773 9.80181 12.2773 6.75098C12.2772 3.7003 9.80363 1.22761 6.75293 1.22754ZM6.75 2.45508C7.08893 2.45508 7.36416 2.72946 7.36426 3.06836V6.45117L9.88867 8.41504C10.1563 8.62316 10.2042 9.00879 9.99609 9.27637C9.78794 9.54375 9.40227 9.59185 9.13477 9.38379L6.37305 7.23535C6.22371 7.11906 6.13574 6.94027 6.13574 6.75098V3.06836C6.13584 2.72946 6.41107 2.45508 6.75 2.45508Z" fill="var(--fill-0, #775DA6)"/>
</g>
</svg>
