<svg preserveAspectRatio="none" width="100%" height="100%" overflow="visible" style="display: block;" viewBox="0 0 32 32" fill="none" xmlns="http://www.w3.org/2000/svg">
<g id="Play">
<path id="Play_2" fill-rule="evenodd" clip-rule="evenodd" d="M0 15.8689C0 7.11507 7.1185 0 15.8597 0C24.6009 0 31.7194 7.11507 31.7194 15.8689C31.7194 24.6044 24.6009 31.7194 15.8597 31.7194C7.1185 31.7194 0 24.6044 0 15.8689ZM21.6771 17.4741C21.8455 17.3058 22.0598 17.0457 22.1057 16.9845C22.3507 16.6631 22.4731 16.2653 22.4731 15.869C22.4731 15.4237 22.3353 15.0106 22.0751 14.674C22.0538 14.6527 22.012 14.6072 21.9576 14.548C21.8558 14.4371 21.7096 14.278 21.5699 14.1384C20.3146 12.7919 17.0386 10.5886 15.324 9.91531C15.0638 9.80973 14.4055 9.57868 14.0534 9.56338C13.7166 9.56338 13.3951 9.63989 13.0889 9.7929C12.7062 10.0071 12.4001 10.3437 12.2317 10.7416C12.1245 11.017 11.9561 11.8433 11.9561 11.8586C11.7877 12.7613 11.6959 14.2303 11.6959 15.8522C11.6959 17.3991 11.7877 18.8053 11.9255 19.7234C11.9293 19.7272 11.9425 19.7928 11.9629 19.8948C12.0251 20.205 12.1547 20.851 12.2929 21.1158C12.6297 21.7585 13.288 22.1563 13.9922 22.1563H14.0534C14.5126 22.141 15.4771 21.7432 15.4771 21.7278C17.0998 21.0546 20.2993 18.9583 21.5852 17.5659L21.6771 17.4741Z" fill="url(#paint0_linear_3244_1400)"/>
</g>
<defs>
<linearGradient id="paint0_linear_3244_1400" x1="15.8597" y1="30.4506" x2="15.8597" y2="0" gradientUnits="userSpaceOnUse">
<stop stop-color="white"/>
<stop offset="1" stop-color="white" stop-opacity="0.8"/>
</linearGradient>
</defs>
</svg>
