<svg preserveAspectRatio="none" width="100%" height="100%" overflow="visible" style="display: block;" viewBox="0 0 22 21" fill="none" xmlns="http://www.w3.org/2000/svg">
<g id="Group">
<g id="Group_2">
<path id="Vector" fill-rule="evenodd" clip-rule="evenodd" d="M5.75 0C6.16421 0 6.5 0.33579 6.5 0.75V2.25C6.5 2.66421 6.16421 3 5.75 3C5.33579 3 5 2.66421 5 2.25V0.75C5 0.33579 5.33579 0 5.75 0Z" fill="var(--fill-0, #898989)"/>
<path id="Vector_2" fill-rule="evenodd" clip-rule="evenodd" d="M15.75 0C16.1642 0 16.5 0.33579 16.5 0.75V2.25C16.5 2.66421 16.1642 3 15.75 3C15.3358 3 15 2.66421 15 2.25V0.75C15 0.33579 15.3358 0 15.75 0Z" fill="var(--fill-0, #898989)"/>
<path id="Vector_3" fill-rule="evenodd" clip-rule="evenodd" d="M4.7684e-07 7.25C4.7684e-07 6.83579 0.33579 6.5 0.75 6.5H20.75C21.1642 6.5 21.5 6.83579 21.5 7.25C21.5 7.66421 21.1642 8 20.75 8H0.75C0.33579 8 4.7684e-07 7.66421 4.7684e-07 7.25Z" fill="var(--fill-0, #898989)"/>
</g>
<path id="Vector_4" fill-rule="evenodd" clip-rule="evenodd" d="M8.69358 1.5H12.8064C14.6442 1.49998 16.0998 1.49997 17.239 1.65314C18.4114 1.81076 19.3604 2.14288 20.1088 2.89124C20.8571 3.63961 21.1892 4.58856 21.3469 5.76098C21.5 6.90019 21.5 8.3558 21.5 10.1936V12.3064C21.5 14.1442 21.5 15.5998 21.3469 16.739C21.1892 17.9114 20.8571 18.8604 20.1088 19.6088C19.3604 20.3571 18.4114 20.6892 17.239 20.8469C16.0998 21 14.6442 21 12.8064 21H8.69359C6.85583 21 5.40019 21 4.26098 20.8469C3.08856 20.6892 2.13961 20.3571 1.39124 19.6088C0.64288 18.8604 0.31076 17.9114 0.15314 16.739C-2.96086e-05 15.5998 -1.95468e-05 14.1442 4.53205e-07 12.3064V10.1936C-1.95468e-05 8.3558 -2.96086e-05 6.90019 0.15314 5.76098C0.31076 4.58856 0.64288 3.63961 1.39124 2.89124C2.13961 2.14288 3.08856 1.81076 4.26098 1.65314C5.40019 1.49997 6.85582 1.49998 8.69358 1.5ZM4.46085 3.13976C3.45476 3.27502 2.87511 3.52869 2.4519 3.9519C2.02869 4.37511 1.77502 4.95476 1.63976 5.96085C1.50159 6.98851 1.5 8.3432 1.5 10.25V12.25C1.5 14.1568 1.50159 15.5115 1.63976 16.5392C1.77502 17.5452 2.02869 18.1249 2.4519 18.5481C2.87511 18.9713 3.45476 19.225 4.46085 19.3602C5.48851 19.4984 6.84318 19.5 8.75 19.5H12.75C14.6568 19.5 16.0115 19.4984 17.0392 19.3602C18.0452 19.225 18.6249 18.9713 19.0481 18.5481C19.4713 18.1249 19.725 17.5452 19.8602 16.5392C19.9984 15.5115 20 14.1568 20 12.25V10.25C20 8.3432 19.9984 6.98851 19.8602 5.96085C19.725 4.95476 19.4713 4.37511 19.0481 3.9519C18.6249 3.52869 18.0452 3.27502 17.0392 3.13976C16.0115 3.00159 14.6568 3 12.75 3H8.75C6.84318 3 5.48851 3.00159 4.46085 3.13976Z" fill="var(--fill-0, #898989)"/>
<path id="Vector_5" fill-rule="evenodd" clip-rule="evenodd" d="M15.25 14C14.8358 14 14.5 14.3358 14.5 14.75C14.5 15.1642 14.8358 15.5 15.25 15.5C15.6642 15.5 16 15.1642 16 14.75C16 14.3358 15.6642 14 15.25 14ZM13 14.75C13 13.5074 14.0074 12.5 15.25 12.5C16.4926 12.5 17.5 13.5074 17.5 14.75C17.5 15.9926 16.4926 17 15.25 17C14.0074 17 13 15.9926 13 14.75Z" fill="var(--fill-0, #898989)"/>
</g>
</svg>
