<svg preserveAspectRatio="none" width="100%" height="100%" overflow="visible" style="display: block;" viewBox="0 0 20 16" fill="none" xmlns="http://www.w3.org/2000/svg">
<g id="camera">
<path id="Vector" d="M10.0156 6.06152C8.35547 6.0459 6.96484 7.39355 6.94922 9.03809C6.93359 10.7412 8.27344 12.1436 9.9375 12.1631C11.6211 12.1826 13.0352 10.8389 13.0547 9.19434C13.0781 7.45215 11.7461 6.08105 10.0156 6.06152Z" fill="var(--fill-0, #898989)"/>
<path id="Vector_2" d="M19.9922 5.89355C19.9883 4.88184 19.5469 4.06543 18.7539 3.44824C18.1914 3.01074 17.5469 2.81152 16.8359 2.81152C16.0234 2.81543 15.2148 2.81152 14.3789 2.81152C14.2969 2.35059 14.2266 1.91309 14.1406 1.47559C13.9727 0.643555 13.1992 0.00292969 12.3555 0.00292969C10.8047 -0.000976562 9.25391 -0.000976562 7.69922 0.00292969C6.78906 -0.00488281 6.00391 0.647461 5.84375 1.5459C5.78516 1.8623 5.72656 2.18262 5.68359 2.50293C5.65234 2.74121 5.55859 2.83105 5.30469 2.82324C4.55469 2.80762 3.80469 2.81543 3.05469 2.82324C1.37891 2.83887 0 4.2334 0 5.90918V12.8154C0 14.5107 1.375 15.9131 3.06641 15.917C7.69141 15.9287 12.3164 15.9287 16.9375 15.9209C18.6094 15.917 19.9883 14.5068 19.9922 12.8311C20 10.5146 20.0039 8.20215 19.9922 5.89355ZM10.0156 13.7139C7.43359 13.7139 5.38672 11.6475 5.39453 9.0498C5.40234 6.54199 7.49609 4.49902 10.043 4.51074C12.5742 4.52637 14.6055 6.58887 14.6016 9.13965C14.5977 11.6475 12.5234 13.7139 10.0156 13.7139ZM16.6133 6.7373C16.1523 6.74121 15.7734 6.37012 15.7695 5.90527C15.7695 5.90137 15.7695 5.89746 15.7695 5.88965C15.7852 5.43652 16.1484 5.07715 16.6016 5.06934C17.0898 5.06152 17.4453 5.40918 17.4492 5.89355C17.4531 6.37793 17.0977 6.7373 16.6133 6.7373Z" fill="var(--fill-0, #898989)"/>
</g>
</svg>
