<svg preserveAspectRatio="none" width="100%" height="100%" overflow="visible" style="display: block;" viewBox="0 0 10 10" fill="none" xmlns="http://www.w3.org/2000/svg">
<g id="Component/icon/ic_Activity">
<path id="Combined Shape" d="M4.59766 0C7.13713 0.000109974 9.19626 2.05914 9.19629 4.59863C9.19616 7.13805 7.13707 9.19618 4.59766 9.19629C2.05836 9.19603 0.00012763 7.13796 0 4.59863C3.29816e-05 2.05923 2.0583 0.000257161 4.59766 0ZM4.59766 0.835938C2.51999 0.836129 0.83597 2.52093 0.835938 4.59863C0.835983 6.67632 2.52 8.36016 4.59766 8.36035C6.67538 8.36024 8.36031 6.67637 8.36035 4.59863C8.36032 2.52088 6.67539 0.836047 4.59766 0.835938ZM4.59766 1.67188C4.82833 1.67195 5.01541 1.8592 5.01562 2.08984V4.39355L6.73535 5.73145C6.91759 5.87319 6.95034 6.13612 6.80859 6.31836C6.66683 6.50048 6.40387 6.53331 6.22168 6.3916L4.34082 4.92871C4.23905 4.84956 4.17975 4.72756 4.17969 4.59863V2.08984C4.1799 1.85915 4.36692 1.67188 4.59766 1.67188Z" fill="var(--fill-0, #775DA6)"/>
</g>
</svg>
