<svg preserveAspectRatio="none" width="100%" height="100%" overflow="visible" style="display: block;" viewBox="0 0 10 10" fill="none" xmlns="http://www.w3.org/2000/svg">
<g id="Component/icon/ic_Activity">
<path id="Combined Shape" d="M4.59863 0C7.13822 0 9.19727 2.05904 9.19727 4.59863C9.19702 7.13802 7.13807 9.19629 4.59863 9.19629C2.05939 9.19606 0.000243045 7.13787 0 4.59863C0 2.05919 2.05924 0.000233985 4.59863 0ZM4.59863 0.835938C2.52095 0.836135 0.835937 2.52091 0.835938 4.59863C0.836099 6.67622 2.52105 8.36015 4.59863 8.36035C6.67636 8.36032 8.36117 6.67632 8.36133 4.59863C8.36133 2.5208 6.67646 0.835967 4.59863 0.835938ZM4.59863 1.67188C4.82946 1.67188 5.01751 1.85903 5.01758 2.08984V4.39355L6.7373 5.73145C6.91923 5.87325 6.95219 6.13624 6.81055 6.31836C6.66884 6.50043 6.40583 6.53311 6.22363 6.3916L4.34277 4.92773C4.24107 4.84863 4.18081 4.72745 4.18066 4.59863V2.08984C4.18073 1.85917 4.368 1.67211 4.59863 1.67188Z" fill="var(--fill-0, #775DA6)"/>
</g>
</svg>
