<svg preserveAspectRatio="none" width="100%" height="100%" overflow="visible" style="display: block;" viewBox="0 0 50 50" fill="none" xmlns="http://www.w3.org/2000/svg">
<g id="united-states_206626 1">
<path id="Vector" d="M49.1378 41.3793H0.862108C0.386034 41.3793 0 40.9933 0 40.5172V9.48279C0 9.00672 0.386034 8.62069 0.862108 8.62069H49.1379C49.614 8.62069 50 9.00672 50 9.48279V40.5172C49.9999 40.9934 49.6139 41.3793 49.1378 41.3793Z" fill="var(--fill-0, #F5F5F5)"/>
<g id="Group">
<path id="Vector_2" d="M49.9999 11.1407H0V9.48279C0 9.00672 0.386034 8.62069 0.862108 8.62069H49.1379C49.614 8.62069 50 9.00672 50 9.48279L49.9999 11.1407Z" fill="var(--fill-0, #FF4B55)"/>
<path id="Vector_3" d="M49.9999 18.7003H0V21.2202H49.9999V18.7003Z" fill="var(--fill-0, #FF4B55)"/>
<path id="Vector_4" d="M49.9999 13.6602H0V16.1801H49.9999V13.6602Z" fill="var(--fill-0, #FF4B55)"/>
<path id="Vector_5" d="M49.9999 26.26H0.862108C0.386034 26.26 0 25.874 0 25.3979V23.74H49.9999V26.26Z" fill="var(--fill-0, #FF4B55)"/>
<path id="Vector_6" d="M49.9999 33.8203H0V36.3403H49.9999V33.8203Z" fill="var(--fill-0, #FF4B55)"/>
<path id="Vector_7" d="M49.1378 41.3793H0.862108C0.386034 41.3793 0 40.9933 0 40.5172V38.8594H49.9999V40.5173C49.9999 40.9934 49.6139 41.3793 49.1378 41.3793Z" fill="var(--fill-0, #FF4B55)"/>
<path id="Vector_8" d="M49.9999 28.7803H0V31.3002H49.9999V28.7803Z" fill="var(--fill-0, #FF4B55)"/>
</g>
<path id="Vector_9" d="M22.4137 8.62078H0.862108C0.386034 8.62078 0 9.00672 0 9.48279V25.3978C0 25.8739 0.386034 26.2599 0.862108 26.2599H22.4138C22.8899 26.2599 23.2759 25.8739 23.2759 25.3978V9.48279C23.2758 9.00672 22.8898 8.62078 22.4137 8.62078Z" fill="var(--fill-0, #41479B)"/>
<g id="Group_2">
<path id="Vector_10" d="M2.4208 10.5995L2.61162 11.1718L3.21484 11.1764C3.29296 11.177 3.32529 11.2767 3.26249 11.323L2.77724 11.6814L2.95927 12.2565C2.9829 12.331 2.89804 12.3927 2.83447 12.3472L2.34375 11.9965L1.85302 12.3473C1.78945 12.3927 1.70478 12.3311 1.72822 12.2566L1.91025 11.6815L1.425 11.3231C1.3622 11.2767 1.39453 11.1771 1.47265 11.1765L2.07588 11.1719L2.26669 10.5996C2.2913 10.5254 2.39599 10.5254 2.4208 10.5995Z" fill="var(--fill-0, #F5F5F5)"/>
<path id="Vector_11" d="M2.4208 13.5929L2.61162 14.1652L3.21484 14.1698C3.29296 14.1705 3.32529 14.2701 3.26249 14.3165L2.77724 14.6749L2.95927 15.25C2.9829 15.3244 2.89804 15.3861 2.83447 15.3406L2.34375 14.9899L1.85302 15.3407C1.78945 15.3861 1.70478 15.3245 1.72822 15.2501L1.91025 14.675L1.425 14.3166C1.3622 14.2701 1.39453 14.1706 1.47265 14.1699L2.07588 14.1653L2.26669 13.593C2.2913 13.5189 2.39599 13.5189 2.4208 13.5929Z" fill="var(--fill-0, #F5F5F5)"/>
<path id="Vector_12" d="M2.4208 16.5865L2.61162 17.1588L3.21484 17.1633C3.29296 17.164 3.32529 17.2636 3.26249 17.31L2.77724 17.6684L2.95927 18.2435C2.9829 18.3179 2.89804 18.3797 2.83447 18.3341L2.34375 17.9835L1.85302 18.3342C1.78945 18.3797 1.70478 18.318 1.72822 18.2436L1.91025 17.6685L1.425 17.3101C1.3622 17.2636 1.39453 17.1641 1.47265 17.1634L2.07588 17.1589L2.26669 16.5866C2.2913 16.5125 2.39599 16.5125 2.4208 16.5865Z" fill="var(--fill-0, #F5F5F5)"/>
<path id="Vector_13" d="M2.4208 19.5801L2.61162 20.1524L3.21484 20.157C3.29296 20.1577 3.32529 20.2573 3.26249 20.3037L2.77724 20.6621L2.95927 21.2372C2.9829 21.3116 2.89804 21.3733 2.83447 21.3278L2.34375 20.9771L1.85302 21.3279C1.78945 21.3733 1.70478 21.3117 1.72822 21.2373L1.91025 20.6622L1.425 20.3038C1.3622 20.2573 1.39453 20.1578 1.47265 20.1571L2.07588 20.1525L2.26669 19.5802C2.2913 19.506 2.39599 19.506 2.4208 19.5801Z" fill="var(--fill-0, #F5F5F5)"/>
<path id="Vector_14" d="M2.4208 22.5737L2.61162 23.146L3.21484 23.1505C3.29296 23.1512 3.32529 23.2508 3.26249 23.2972L2.77724 23.6556L2.95927 24.2307C2.9829 24.3051 2.89804 24.3668 2.83447 24.3213L2.34375 23.9707L1.85302 24.3214C1.78945 24.3668 1.70478 24.3052 1.72822 24.2308L1.91025 23.6557L1.425 23.2973C1.3622 23.2508 1.39453 23.1513 1.47265 23.1506L2.07588 23.1461L2.26669 22.5738C2.2913 22.4995 2.39599 22.4995 2.4208 22.5737Z" fill="var(--fill-0, #F5F5F5)"/>
<path id="Vector_15" d="M4.74433 12.0671L4.93515 12.6393L5.53837 12.6439C5.61649 12.6446 5.64882 12.7442 5.58602 12.7906L5.10077 13.149L5.2828 13.7241C5.30644 13.7985 5.22157 13.8602 5.158 13.8147L4.66728 13.4639L4.17655 13.8147C4.11298 13.8601 4.02831 13.7985 4.05175 13.7241L4.23378 13.149L3.74853 12.7906C3.68573 12.7441 3.71806 12.6446 3.79618 12.6439L4.39941 12.6393L4.59023 12.0671C4.61474 11.993 4.71962 11.993 4.74433 12.0671Z" fill="var(--fill-0, #F5F5F5)"/>
<path id="Vector_16" d="M4.74433 15.0607L4.93515 15.633L5.53837 15.6376C5.61649 15.6383 5.64882 15.7379 5.58602 15.7842L5.10077 16.1426L5.2828 16.7177C5.30644 16.7922 5.22157 16.8539 5.158 16.8084L4.66728 16.4576L4.17655 16.8084C4.11298 16.8538 4.02831 16.7923 4.05175 16.7177L4.23378 16.1426L3.74853 15.7842C3.68573 15.7378 3.71806 15.6383 3.79618 15.6376L4.39941 15.633L4.59023 15.0607C4.61474 14.9866 4.71962 14.9866 4.74433 15.0607Z" fill="var(--fill-0, #F5F5F5)"/>
<path id="Vector_17" d="M4.74433 18.0543L4.93515 18.6265L5.53837 18.6311C5.61649 18.6318 5.64882 18.7314 5.58602 18.7778L5.10077 19.1362L5.2828 19.7113C5.30644 19.7857 5.22157 19.8474 5.158 19.8019L4.66728 19.4511L4.17655 19.8019C4.11298 19.8473 4.02831 19.7857 4.05175 19.7113L4.23378 19.1362L3.74853 18.7778C3.68573 18.7313 3.71806 18.6318 3.79618 18.6311L4.39941 18.6265L4.59023 18.0543C4.61474 17.9801 4.71962 17.9801 4.74433 18.0543Z" fill="var(--fill-0, #F5F5F5)"/>
<path id="Vector_18" d="M4.74433 21.0478L4.93515 21.6201L5.53837 21.6247C5.61649 21.6253 5.64882 21.725 5.58602 21.7713L5.10077 22.1297L5.2828 22.7048C5.30644 22.7793 5.22157 22.841 5.158 22.7955L4.66728 22.4447L4.17655 22.7955C4.11298 22.8409 4.02831 22.7793 4.05175 22.7048L4.23378 22.1297L3.74853 21.7713C3.68573 21.7249 3.71806 21.6253 3.79618 21.6247L4.39941 21.6201L4.59023 21.0478C4.61474 20.9738 4.71962 20.9738 4.74433 21.0478Z" fill="var(--fill-0, #F5F5F5)"/>
<path id="Vector_19" d="M7.06786 10.5994L7.25868 11.1717L7.8619 11.1762C7.94002 11.1769 7.97235 11.2765 7.90956 11.3229L7.4243 11.6813L7.60633 12.2564C7.62997 12.3308 7.5451 12.3926 7.48153 12.347L6.99081 11.9963L6.50009 12.347C6.43651 12.3925 6.35184 12.3308 6.37528 12.2564L6.55731 11.6813L6.07206 11.3229C6.00927 11.2764 6.04159 11.1769 6.11972 11.1762L6.72294 11.1717L6.91376 10.5994C6.93837 10.5253 7.04315 10.5253 7.06786 10.5994Z" fill="var(--fill-0, #F5F5F5)"/>
<path id="Vector_20" d="M7.06786 13.5929L7.25868 14.1652L7.8619 14.1698C7.94002 14.1705 7.97235 14.2701 7.90956 14.3165L7.4243 14.6749L7.60633 15.25C7.62997 15.3244 7.5451 15.3861 7.48153 15.3406L6.99081 14.9898L6.50009 15.3406C6.43651 15.386 6.35184 15.3244 6.37528 15.25L6.55731 14.6749L6.07206 14.3165C6.00927 14.27 6.04159 14.1705 6.11972 14.1698L6.72294 14.1652L6.91376 13.5929C6.93837 13.5189 7.04315 13.5189 7.06786 13.5929Z" fill="var(--fill-0, #F5F5F5)"/>
<path id="Vector_21" d="M7.06786 16.5865L7.25868 17.1588L7.8619 17.1633C7.94002 17.164 7.97235 17.2636 7.90956 17.31L7.4243 17.6684L7.60633 18.2435C7.62997 18.3179 7.5451 18.3797 7.48153 18.3341L6.99081 17.9834L6.50009 18.3341C6.43651 18.3796 6.35184 18.3179 6.37528 18.2435L6.55731 17.6684L6.07206 17.31C6.00927 17.2635 6.04159 17.164 6.11972 17.1633L6.72294 17.1588L6.91376 16.5865C6.93837 16.5125 7.04315 16.5125 7.06786 16.5865Z" fill="var(--fill-0, #F5F5F5)"/>
<path id="Vector_22" d="M7.06786 19.5801L7.25868 20.1524L7.8619 20.157C7.94002 20.1577 7.97235 20.2573 7.90956 20.3037L7.4243 20.6621L7.60633 21.2372C7.62997 21.3116 7.5451 21.3733 7.48153 21.3278L6.99081 20.977L6.50009 21.3278C6.43651 21.3732 6.35184 21.3116 6.37528 21.2372L6.55731 20.6621L6.07206 20.3037C6.00927 20.2572 6.04159 20.1577 6.11972 20.157L6.72294 20.1524L6.91376 19.5801C6.93837 19.506 7.04315 19.506 7.06786 19.5801Z" fill="var(--fill-0, #F5F5F5)"/>
<path id="Vector_23" d="M7.06786 22.5737L7.25868 23.146L7.8619 23.1505C7.94002 23.1512 7.97235 23.2508 7.90956 23.2972L7.4243 23.6556L7.60633 24.2307C7.62997 24.3051 7.5451 24.3668 7.48153 24.3213L6.99081 23.9706L6.50009 24.3213C6.43651 24.3667 6.35184 24.3051 6.37528 24.2307L6.55731 23.6556L6.07206 23.2972C6.00927 23.2507 6.04159 23.1512 6.11972 23.1505L6.72294 23.146L6.91376 22.5737C6.93837 22.4995 7.04315 22.4995 7.06786 22.5737Z" fill="var(--fill-0, #F5F5F5)"/>
<path id="Vector_24" d="M9.39149 12.0671L9.58231 12.6393L10.1855 12.6439C10.2637 12.6446 10.296 12.7442 10.2332 12.7906L9.74793 13.149L9.92996 13.7241C9.95359 13.7985 9.86873 13.8602 9.80516 13.8147L9.31444 13.4639L8.82371 13.8147C8.76014 13.8601 8.67547 13.7985 8.69891 13.7241L8.88094 13.149L8.39569 12.7906C8.33289 12.7441 8.36522 12.6446 8.44334 12.6439L9.04657 12.6393L9.23739 12.0671C9.2619 11.993 9.36678 11.993 9.39149 12.0671Z" fill="var(--fill-0, #F5F5F5)"/>
<path id="Vector_25" d="M9.39149 15.0607L9.58231 15.633L10.1855 15.6376C10.2637 15.6383 10.296 15.7379 10.2332 15.7842L9.74793 16.1426L9.92996 16.7177C9.95359 16.7922 9.86873 16.8539 9.80516 16.8084L9.31444 16.4576L8.82371 16.8084C8.76014 16.8538 8.67547 16.7923 8.69891 16.7177L8.88094 16.1426L8.39569 15.7842C8.33289 15.7378 8.36522 15.6383 8.44334 15.6376L9.04657 15.633L9.23739 15.0607C9.2619 14.9866 9.36678 14.9866 9.39149 15.0607Z" fill="var(--fill-0, #F5F5F5)"/>
<path id="Vector_26" d="M9.39149 18.0543L9.58231 18.6265L10.1855 18.6311C10.2637 18.6318 10.296 18.7314 10.2332 18.7778L9.74793 19.1362L9.92996 19.7113C9.95359 19.7857 9.86873 19.8474 9.80516 19.8019L9.31444 19.4511L8.82371 19.8019C8.76014 19.8473 8.67547 19.7857 8.69891 19.7113L8.88094 19.1362L8.39569 18.7778C8.33289 18.7313 8.36522 18.6318 8.44334 18.6311L9.04657 18.6265L9.23739 18.0543C9.2619 17.9801 9.36678 17.9801 9.39149 18.0543Z" fill="var(--fill-0, #F5F5F5)"/>
<path id="Vector_27" d="M9.39149 21.0478L9.58231 21.6201L10.1855 21.6247C10.2637 21.6253 10.296 21.725 10.2332 21.7713L9.74793 22.1297L9.92996 22.7048C9.95359 22.7793 9.86873 22.841 9.80516 22.7955L9.31444 22.4447L8.82371 22.7955C8.76014 22.8409 8.67547 22.7793 8.69891 22.7048L8.88094 22.1297L8.39569 21.7713C8.33289 21.7249 8.36522 21.6253 8.44334 21.6247L9.04657 21.6201L9.23739 21.0478C9.2619 20.9738 9.36678 20.9738 9.39149 21.0478Z" fill="var(--fill-0, #F5F5F5)"/>
<path id="Vector_28" d="M11.715 10.5994L11.9058 11.1717L12.5091 11.1762C12.5872 11.1769 12.6195 11.2765 12.5567 11.3229L12.0715 11.6813L12.2535 12.2564C12.2771 12.3308 12.1923 12.3926 12.1287 12.347L11.6379 11.9963L11.1471 12.347C11.0836 12.3925 10.9989 12.3308 11.0223 12.2564L11.2044 11.6813L10.7191 11.3229C10.6563 11.2764 10.6887 11.1769 10.7668 11.1762L11.37 11.1717L11.5608 10.5994C11.5855 10.5253 11.6903 10.5253 11.715 10.5994Z" fill="var(--fill-0, #F5F5F5)"/>
<path id="Vector_29" d="M11.715 13.5929L11.9058 14.1652L12.5091 14.1698C12.5872 14.1705 12.6195 14.2701 12.5567 14.3165L12.0715 14.6749L12.2535 15.25C12.2771 15.3244 12.1923 15.3861 12.1287 15.3406L11.6379 14.9898L11.1471 15.3406C11.0836 15.386 10.9989 15.3244 11.0223 15.25L11.2044 14.6749L10.7191 14.3165C10.6563 14.27 10.6887 14.1705 10.7668 14.1698L11.37 14.1652L11.5608 13.5929C11.5855 13.5189 11.6903 13.5189 11.715 13.5929Z" fill="var(--fill-0, #F5F5F5)"/>
<path id="Vector_30" d="M11.715 16.5865L11.9058 17.1588L12.5091 17.1633C12.5872 17.164 12.6195 17.2636 12.5567 17.31L12.0715 17.6684L12.2535 18.2435C12.2771 18.3179 12.1923 18.3797 12.1287 18.3341L11.6379 17.9834L11.1471 18.3341C11.0836 18.3796 10.9989 18.3179 11.0223 18.2435L11.2044 17.6684L10.7191 17.31C10.6563 17.2635 10.6887 17.164 10.7668 17.1633L11.37 17.1588L11.5608 16.5865C11.5855 16.5125 11.6903 16.5125 11.715 16.5865Z" fill="var(--fill-0, #F5F5F5)"/>
<path id="Vector_31" d="M11.715 19.5801L11.9058 20.1524L12.5091 20.157C12.5872 20.1577 12.6195 20.2573 12.5567 20.3037L12.0715 20.6621L12.2535 21.2372C12.2771 21.3116 12.1923 21.3733 12.1287 21.3278L11.6379 20.977L11.1471 21.3278C11.0836 21.3732 10.9989 21.3116 11.0223 21.2372L11.2044 20.6621L10.7191 20.3037C10.6563 20.2572 10.6887 20.1577 10.7668 20.157L11.37 20.1524L11.5608 19.5801C11.5855 19.506 11.6903 19.506 11.715 19.5801Z" fill="var(--fill-0, #F5F5F5)"/>
<path id="Vector_32" d="M11.715 22.5737L11.9058 23.146L12.5091 23.1505C12.5872 23.1512 12.6195 23.2508 12.5567 23.2972L12.0715 23.6556L12.2535 24.2307C12.2771 24.3051 12.1923 24.3668 12.1287 24.3213L11.6379 23.9706L11.1471 24.3213C11.0836 24.3667 10.9989 24.3051 11.0223 24.2307L11.2044 23.6556L10.7191 23.2972C10.6563 23.2507 10.6887 23.1512 10.7668 23.1505L11.37 23.146L11.5608 22.5737C11.5855 22.4995 11.6903 22.4995 11.715 22.5737Z" fill="var(--fill-0, #F5F5F5)"/>
<path id="Vector_33" d="M14.0385 12.0671L14.2294 12.6393L14.8326 12.6439C14.9107 12.6446 14.943 12.7442 14.8802 12.7906L14.395 13.149L14.577 13.7241C14.6007 13.7985 14.5158 13.8602 14.4522 13.8147L13.9615 13.4639L13.4708 13.8147C13.4072 13.8601 13.3225 13.7985 13.346 13.7241L13.528 13.149L13.0427 12.7906C12.98 12.7441 13.0123 12.6446 13.0904 12.6439L13.6936 12.6393L13.8844 12.0671C13.9092 11.993 14.0138 11.993 14.0385 12.0671Z" fill="var(--fill-0, #F5F5F5)"/>
<path id="Vector_34" d="M14.0385 15.0607L14.2294 15.633L14.8326 15.6376C14.9107 15.6383 14.943 15.7379 14.8802 15.7842L14.395 16.1426L14.577 16.7177C14.6007 16.7922 14.5158 16.8539 14.4522 16.8084L13.9615 16.4576L13.4708 16.8084C13.4072 16.8538 13.3225 16.7923 13.346 16.7177L13.528 16.1426L13.0427 15.7842C12.98 15.7378 13.0123 15.6383 13.0904 15.6376L13.6936 15.633L13.8844 15.0607C13.9092 14.9866 14.0138 14.9866 14.0385 15.0607Z" fill="var(--fill-0, #F5F5F5)"/>
<path id="Vector_35" d="M14.0385 18.0543L14.2294 18.6265L14.8326 18.6311C14.9107 18.6318 14.943 18.7314 14.8802 18.7778L14.395 19.1362L14.577 19.7113C14.6007 19.7857 14.5158 19.8474 14.4522 19.8019L13.9615 19.4511L13.4708 19.8019C13.4072 19.8473 13.3225 19.7857 13.346 19.7113L13.528 19.1362L13.0427 18.7778C12.98 18.7313 13.0123 18.6318 13.0904 18.6311L13.6936 18.6265L13.8844 18.0543C13.9092 17.9801 14.0138 17.9801 14.0385 18.0543Z" fill="var(--fill-0, #F5F5F5)"/>
<path id="Vector_36" d="M14.0385 21.0478L14.2294 21.6201L14.8326 21.6247C14.9107 21.6253 14.943 21.725 14.8802 21.7713L14.395 22.1297L14.577 22.7048C14.6007 22.7793 14.5158 22.841 14.4522 22.7955L13.9615 22.4447L13.4708 22.7955C13.4072 22.8409 13.3225 22.7793 13.346 22.7048L13.528 22.1297L13.0427 21.7713C12.98 21.7249 13.0123 21.6253 13.0904 21.6247L13.6936 21.6201L13.8844 21.0478C13.9092 20.9738 14.0138 20.9738 14.0385 21.0478Z" fill="var(--fill-0, #F5F5F5)"/>
<path id="Vector_37" d="M16.3622 10.5994L16.553 11.1717L17.1562 11.1762C17.2343 11.1769 17.2667 11.2765 17.2039 11.3229L16.7186 11.6813L16.9007 12.2564C16.9243 12.3308 16.8394 12.3926 16.7758 12.347L16.2851 11.9963L15.7944 12.347C15.7308 12.3925 15.6462 12.3308 15.6696 12.2564L15.8516 11.6813L15.3664 11.3229C15.3036 11.2764 15.3359 11.1769 15.414 11.1762L16.0173 11.1717L16.2081 10.5994C16.2326 10.5253 16.3375 10.5253 16.3622 10.5994Z" fill="var(--fill-0, #F5F5F5)"/>
<path id="Vector_38" d="M16.3622 13.5929L16.553 14.1652L17.1562 14.1698C17.2343 14.1705 17.2667 14.2701 17.2039 14.3165L16.7186 14.6749L16.9007 15.25C16.9243 15.3244 16.8394 15.3861 16.7758 15.3406L16.2851 14.9898L15.7944 15.3406C15.7308 15.386 15.6462 15.3244 15.6696 15.25L15.8516 14.6749L15.3664 14.3165C15.3036 14.27 15.3359 14.1705 15.414 14.1698L16.0173 14.1652L16.2081 13.5929C16.2326 13.5189 16.3375 13.5189 16.3622 13.5929Z" fill="var(--fill-0, #F5F5F5)"/>
<path id="Vector_39" d="M16.3622 16.5865L16.553 17.1588L17.1562 17.1633C17.2343 17.164 17.2667 17.2636 17.2039 17.31L16.7186 17.6684L16.9007 18.2435C16.9243 18.3179 16.8394 18.3797 16.7758 18.3341L16.2851 17.9834L15.7944 18.3341C15.7308 18.3796 15.6462 18.3179 15.6696 18.2435L15.8516 17.6684L15.3664 17.31C15.3036 17.2635 15.3359 17.164 15.414 17.1633L16.0173 17.1588L16.2081 16.5865C16.2326 16.5125 16.3375 16.5125 16.3622 16.5865Z" fill="var(--fill-0, #F5F5F5)"/>
<path id="Vector_40" d="M16.3622 19.5801L16.553 20.1524L17.1562 20.157C17.2343 20.1577 17.2667 20.2573 17.2039 20.3037L16.7186 20.6621L16.9007 21.2372C16.9243 21.3116 16.8394 21.3733 16.7758 21.3278L16.2851 20.977L15.7944 21.3278C15.7308 21.3732 15.6462 21.3116 15.6696 21.2372L15.8516 20.6621L15.3664 20.3037C15.3036 20.2572 15.3359 20.1577 15.414 20.157L16.0173 20.1524L16.2081 19.5801C16.2326 19.506 16.3375 19.506 16.3622 19.5801Z" fill="var(--fill-0, #F5F5F5)"/>
<path id="Vector_41" d="M16.3622 22.5737L16.553 23.146L17.1562 23.1505C17.2343 23.1512 17.2667 23.2508 17.2039 23.2972L16.7186 23.6556L16.9007 24.2307C16.9243 24.3051 16.8394 24.3668 16.7758 24.3213L16.2851 23.9706L15.7944 24.3213C15.7308 24.3667 15.6462 24.3051 15.6696 24.2307L15.8516 23.6556L15.3664 23.2972C15.3036 23.2507 15.3359 23.1512 15.414 23.1505L16.0173 23.146L16.2081 22.5737C16.2326 22.4995 16.3375 22.4995 16.3622 22.5737Z" fill="var(--fill-0, #F5F5F5)"/>
<path id="Vector_42" d="M18.6857 12.0671L18.8765 12.6393L19.4798 12.6439C19.5579 12.6446 19.5902 12.7442 19.5274 12.7906L19.0422 13.149L19.2242 13.7241C19.2478 13.7985 19.163 13.8602 19.0994 13.8147L18.6087 13.4639L18.1179 13.8147C18.0544 13.8601 17.9697 13.7985 17.9931 13.7241L18.1752 13.149L17.6899 12.7906C17.6271 12.7441 17.6594 12.6446 17.7376 12.6439L18.3408 12.6393L18.5316 12.0671C18.5562 11.993 18.6611 11.993 18.6857 12.0671Z" fill="var(--fill-0, #F5F5F5)"/>
<path id="Vector_43" d="M18.6857 15.0607L18.8765 15.633L19.4798 15.6376C19.5579 15.6383 19.5902 15.7379 19.5274 15.7842L19.0422 16.1426L19.2242 16.7177C19.2478 16.7922 19.163 16.8539 19.0994 16.8084L18.6087 16.4576L18.1179 16.8084C18.0544 16.8538 17.9697 16.7923 17.9931 16.7177L18.1752 16.1426L17.6899 15.7842C17.6271 15.7378 17.6594 15.6383 17.7376 15.6376L18.3408 15.633L18.5316 15.0607C18.5562 14.9866 18.6611 14.9866 18.6857 15.0607Z" fill="var(--fill-0, #F5F5F5)"/>
<path id="Vector_44" d="M18.6857 18.0543L18.8765 18.6265L19.4798 18.6311C19.5579 18.6318 19.5902 18.7314 19.5274 18.7778L19.0422 19.1362L19.2242 19.7113C19.2478 19.7857 19.163 19.8474 19.0994 19.8019L18.6087 19.4511L18.1179 19.8019C18.0544 19.8473 17.9697 19.7857 17.9931 19.7113L18.1752 19.1362L17.6899 18.7778C17.6271 18.7313 17.6594 18.6318 17.7376 18.6311L18.3408 18.6265L18.5316 18.0543C18.5562 17.9801 18.6611 17.9801 18.6857 18.0543Z" fill="var(--fill-0, #F5F5F5)"/>
<path id="Vector_45" d="M18.6857 21.0478L18.8765 21.6201L19.4798 21.6247C19.5579 21.6253 19.5902 21.725 19.5274 21.7713L19.0422 22.1297L19.2242 22.7048C19.2478 22.7793 19.163 22.841 19.0994 22.7955L18.6087 22.4447L18.1179 22.7955C18.0544 22.8409 17.9697 22.7793 17.9931 22.7048L18.1752 22.1297L17.6899 21.7713C17.6271 21.7249 17.6594 21.6253 17.7376 21.6247L18.3408 21.6201L18.5316 21.0478C18.5562 20.9738 18.6611 20.9738 18.6857 21.0478Z" fill="var(--fill-0, #F5F5F5)"/>
<path id="Vector_46" d="M21.0093 10.5994L21.2002 11.1717L21.8034 11.1762C21.8815 11.1769 21.9138 11.2765 21.851 11.3229L21.3658 11.6813L21.5478 12.2564C21.5714 12.3308 21.4866 12.3926 21.423 12.347L20.9323 11.9963L20.4416 12.347C20.378 12.3925 20.2933 12.3308 20.3168 12.2564L20.4988 11.6813L20.0135 11.3229C19.9507 11.2764 19.9831 11.1769 20.0612 11.1762L20.6644 11.1717L20.8552 10.5994C20.8798 10.5253 20.9845 10.5253 21.0093 10.5994Z" fill="var(--fill-0, #F5F5F5)"/>
<path id="Vector_47" d="M21.0093 13.5929L21.2002 14.1652L21.8034 14.1698C21.8815 14.1705 21.9138 14.2701 21.851 14.3165L21.3658 14.6749L21.5478 15.25C21.5714 15.3244 21.4866 15.3861 21.423 15.3406L20.9323 14.9898L20.4416 15.3406C20.378 15.386 20.2933 15.3244 20.3168 15.25L20.4988 14.6749L20.0135 14.3165C19.9507 14.27 19.9831 14.1705 20.0612 14.1698L20.6644 14.1652L20.8552 13.5929C20.8798 13.5189 20.9845 13.5189 21.0093 13.5929Z" fill="var(--fill-0, #F5F5F5)"/>
<path id="Vector_48" d="M21.0093 16.5865L21.2002 17.1588L21.8034 17.1633C21.8815 17.164 21.9138 17.2636 21.851 17.31L21.3658 17.6684L21.5478 18.2435C21.5714 18.3179 21.4866 18.3797 21.423 18.3341L20.9323 17.9834L20.4416 18.3341C20.378 18.3796 20.2933 18.3179 20.3168 18.2435L20.4988 17.6684L20.0135 17.31C19.9507 17.2635 19.9831 17.164 20.0612 17.1633L20.6644 17.1588L20.8552 16.5865C20.8798 16.5125 20.9845 16.5125 21.0093 16.5865Z" fill="var(--fill-0, #F5F5F5)"/>
<path id="Vector_49" d="M21.0093 19.5801L21.2002 20.1524L21.8034 20.157C21.8815 20.1577 21.9138 20.2573 21.851 20.3037L21.3658 20.6621L21.5478 21.2372C21.5714 21.3116 21.4866 21.3733 21.423 21.3278L20.9323 20.977L20.4416 21.3278C20.378 21.3732 20.2933 21.3116 20.3168 21.2372L20.4988 20.6621L20.0135 20.3037C19.9507 20.2572 19.9831 20.1577 20.0612 20.157L20.6644 20.1524L20.8552 19.5801C20.8798 19.506 20.9845 19.506 21.0093 19.5801Z" fill="var(--fill-0, #F5F5F5)"/>
<path id="Vector_50" d="M21.0093 22.5737L21.2002 23.146L21.8034 23.1505C21.8815 23.1512 21.9138 23.2508 21.851 23.2972L21.3658 23.6556L21.5478 24.2307C21.5714 24.3051 21.4866 24.3668 21.423 24.3213L20.9323 23.9706L20.4416 24.3213C20.378 24.3667 20.2933 24.3051 20.3168 24.2307L20.4988 23.6556L20.0135 23.2972C19.9507 23.2507 19.9831 23.1512 20.0612 23.1505L20.6644 23.146L20.8552 22.5737C20.8798 22.4995 20.9845 22.4995 21.0093 22.5737Z" fill="var(--fill-0, #F5F5F5)"/>
</g>
</g>
</svg>
