<svg preserveAspectRatio="none" width="100%" height="100%" overflow="visible" style="display: block;" viewBox="0 0 10 10" fill="none" xmlns="http://www.w3.org/2000/svg">
<g id="Component/icon/ic_Activity">
<path id="Combined Shape" d="M4.59863 0C7.13822 0 9.19727 2.05904 9.19727 4.59863C9.19702 7.13802 7.13807 9.19629 4.59863 9.19629C2.05945 9.19598 0.000243039 7.13783 0 4.59863C0 2.05923 2.0593 0.000304261 4.59863 0ZM4.59863 0.835938C2.52099 0.836176 0.835937 2.52093 0.835938 4.59863C0.836099 6.6762 2.52109 8.36011 4.59863 8.36035C6.67638 8.36035 8.36117 6.67634 8.36133 4.59863C8.36133 2.52079 6.67648 0.835937 4.59863 0.835938ZM4.59863 1.67188C4.82924 1.67213 5.01654 1.85919 5.0166 2.08984V4.39355L6.73633 5.73145C6.91829 5.87325 6.95123 6.13623 6.80957 6.31836C6.66785 6.50042 6.40484 6.53314 6.22266 6.3916L4.3418 4.92773C4.2401 4.84863 4.17984 4.72745 4.17969 4.59863V2.08984C4.17975 1.85903 4.3678 1.67188 4.59863 1.67188Z" fill="var(--fill-0, #775DA6)"/>
</g>
</svg>
