<svg preserveAspectRatio="none" width="100%" height="100%" overflow="visible" style="display: block;" viewBox="0 0 35 35" fill="none" xmlns="http://www.w3.org/2000/svg">
<g id="Group 1000003673">
<path id="Vector" d="M17.5 35C27.165 35 35 27.165 35 17.5C35 7.83502 27.165 0 17.5 0C7.83502 0 0 7.83502 0 17.5C0 27.165 7.83502 35 17.5 35Z" fill="var(--fill-0, white)"/>
<g id="alert-circle">
<path id="Vector_2" d="M17.4993 25.8334C22.1017 25.8334 25.8327 22.1025 25.8327 17.5001C25.8327 12.8977 22.1017 9.16675 17.4993 9.16675C12.897 9.16675 9.16602 12.8977 9.16602 17.5001C9.16602 22.1025 12.897 25.8334 17.4993 25.8334Z" stroke="var(--stroke-0, #FDB73E)" stroke-width="2" stroke-linecap="round" stroke-linejoin="round"/>
<path id="Vector_3" d="M17.5 14.1667V17.5" stroke="var(--stroke-0, #FDB73E)" stroke-width="2" stroke-linecap="round" stroke-linejoin="round"/>
<path id="Vector_4" d="M17.5 20.8333H17.5088" stroke="var(--stroke-0, #FDB73E)" stroke-width="2" stroke-linecap="round" stroke-linejoin="round"/>
</g>
</g>
</svg>
