<svg preserveAspectRatio="none" width="100%" height="100%" overflow="visible" style="display: block;" viewBox="0 0 16 16" fill="none" xmlns="http://www.w3.org/2000/svg">
<g id="icon Verified">
<path id="Star 8" d="M7.35507 0.821453C7.65932 0.495916 8.17557 0.495915 8.47982 0.821453L9.88794 2.32807C10.0397 2.49044 10.2542 2.57929 10.4763 2.57179L12.5373 2.50213C12.9827 2.48708 13.3477 2.85213 13.3327 3.29746L13.263 5.35849C13.2555 5.5806 13.3444 5.79511 13.5067 5.94686L15.0134 7.35498C15.3389 7.65923 15.3389 8.17548 15.0134 8.47974L13.5067 9.88785C13.3444 10.0396 13.2555 10.2541 13.263 10.4762L13.3327 12.5373C13.3477 12.9826 12.9827 13.3476 12.5373 13.3326L10.4763 13.2629C10.2542 13.2554 10.0397 13.3443 9.88794 13.5066L8.47983 15.0133C8.17557 15.3388 7.65932 15.3388 7.35507 15.0133L5.94695 13.5066C5.7952 13.3443 5.58069 13.2554 5.35858 13.2629L3.29755 13.3326C2.85222 13.3476 2.48717 12.9826 2.50222 12.5373L2.57188 10.4762C2.57938 10.2541 2.49053 10.0396 2.32816 9.88785L0.821542 8.47974C0.496005 8.17548 0.496005 7.65923 0.821542 7.35498L2.32816 5.94686C2.49053 5.79511 2.57938 5.5806 2.57188 5.35849L2.50222 3.29746C2.48717 2.85213 2.85222 2.48708 3.29755 2.50213L5.35858 2.57179C5.58069 2.57929 5.7952 2.49044 5.94695 2.32807L7.35507 0.821453Z" fill="url(#paint0_linear_3207_1824)"/>
<path id="Star 8 (Stroke)" fill-rule="evenodd" clip-rule="evenodd" d="M6.93322 0.427268C7.46566 -0.142422 8.3691 -0.142423 8.90154 0.427268L10.3097 1.93389C10.3476 1.97448 10.4012 1.99669 10.4568 1.99482L12.5178 1.92516C13.2971 1.89883 13.9359 2.53765 13.9096 3.31698L13.8399 5.37801C13.8381 5.43354 13.8603 5.48717 13.9009 5.5251L15.4075 6.93322C15.9772 7.46566 15.9772 8.3691 15.4075 8.90154L13.9009 10.3097C13.8603 10.3476 13.8381 10.4012 13.8399 10.4568L13.9096 12.5178C13.9359 13.2971 13.2971 13.9359 12.5178 13.9096L10.4568 13.8399C10.4012 13.8381 10.3476 13.8603 10.3097 13.9009L8.90154 15.4075C8.3691 15.9772 7.46566 15.9772 6.93322 15.4075L5.5251 13.9009C5.48717 13.8603 5.43354 13.8381 5.37801 13.8399L3.31698 13.9096C2.53765 13.9359 1.89883 13.2971 1.92516 12.5178L1.99482 10.4568C1.99669 10.4012 1.97448 10.3476 1.93389 10.3097L0.427268 8.90154C-0.142422 8.3691 -0.142423 7.46566 0.427268 6.93322L1.93389 5.5251C1.97448 5.48717 1.99669 5.43354 1.99482 5.37801L1.92516 3.31698C1.89883 2.53765 2.53765 1.89883 3.31698 1.92516L5.37801 1.99482C5.43354 1.99669 5.48717 1.97448 5.5251 1.93389L6.93322 0.427268ZM8.05798 1.21568C7.98191 1.1343 7.85285 1.1343 7.77679 1.21568L6.36867 2.7223C6.10311 3.00644 5.7277 3.16194 5.33901 3.1488L3.27798 3.07915C3.16665 3.07539 3.07539 3.16665 3.07915 3.27798L3.1488 5.33901C3.16194 5.7277 3.00644 6.10311 2.7223 6.36867L1.21568 7.77679C1.1343 7.85285 1.1343 7.98191 1.21568 8.05798L2.7223 9.46609C3.00644 9.73165 3.16194 10.1071 3.1488 10.4958L3.07915 12.5568C3.07539 12.6681 3.16665 12.7594 3.27798 12.7556L5.33901 12.686C5.7277 12.6728 6.10311 12.8283 6.36867 13.1125L7.77679 14.6191C7.85285 14.7005 7.98191 14.7005 8.05798 14.6191L9.46609 13.1125C9.73165 12.8283 10.1071 12.6728 10.4958 12.686L12.5568 12.7556C12.6681 12.7594 12.7594 12.6681 12.7556 12.5568L12.686 10.4958C12.6728 10.1071 12.8283 9.73165 13.1125 9.46609L14.6191 8.05798C14.7005 7.98191 14.7005 7.85285 14.6191 7.77679L13.1125 6.36867C12.8283 6.10311 12.6728 5.7277 12.686 5.33901L12.7556 3.27798C12.7594 3.16665 12.6681 3.07539 12.5568 3.07915L10.4958 3.1488C10.1071 3.16194 9.73165 3.00644 9.46609 2.7223L8.05798 1.21568Z" fill="url(#paint1_linear_3207_1824)"/>
<path id="Vector 239 (Stroke)" fill-rule="evenodd" clip-rule="evenodd" d="M11.259 4.95387C11.5141 5.14517 11.5658 5.50704 11.3745 5.76212L8.1346 10.082C7.88121 10.4198 7.37888 10.4327 7.10852 10.1083L4.97196 7.54441C4.76784 7.29947 4.80094 6.93543 5.04588 6.73131C5.29082 6.52719 5.65486 6.56028 5.85898 6.80523L7.5905 8.88305L10.4508 5.06933C10.6421 4.81425 11.004 4.76256 11.259 4.95387Z" fill="var(--fill-0, white)"/>
</g>
<defs>
<linearGradient id="paint0_linear_3207_1824" x1="0.577389" y1="7.91736" x2="15.2575" y2="7.91736" gradientUnits="userSpaceOnUse">
<stop stop-color="#049A0E"/>
<stop offset="1" stop-color="#02B346"/>
</linearGradient>
<linearGradient id="paint1_linear_3207_1824" x1="-5.73345e-09" y1="7.91738" x2="15.8348" y2="7.91738" gradientUnits="userSpaceOnUse">
<stop stop-color="#049A0E"/>
<stop offset="1" stop-color="#02B346"/>
</linearGradient>
</defs>
</svg>
