<svg preserveAspectRatio="none" width="100%" height="100%" overflow="visible" style="display: block;" viewBox="0 0 11 37" fill="none" xmlns="http://www.w3.org/2000/svg">
<g id="Vector 1" filter="url(#filter0_f_3207_1801)">
<path d="M2.75345 3.87512C3.00546 1.9812 6.68252 2.18031 8.27242 2.35691C8.52821 2.38532 8.60566 2.71911 8.3999 2.87371C7.59443 3.4789 6.21941 4.65664 5.87475 5.86536C4.18443 11.7933 4.53941 21.8199 4.83096 26.5545C4.93721 28.2799 4.6555 30.0093 3.95461 31.5894L2.75345 34.2974C2.75345 34.2974 1.61847 12.4047 2.75345 3.87512Z" fill="var(--fill-0, white)" fill-opacity="0.3"/>
<path d="M2.75345 3.87512C3.00546 1.9812 6.68252 2.18031 8.27242 2.35691C8.52821 2.38532 8.60566 2.71911 8.3999 2.87371C7.59443 3.4789 6.21941 4.65664 5.87475 5.86536C4.18443 11.7933 4.53941 21.8199 4.83096 26.5545C4.93721 28.2799 4.6555 30.0093 3.95461 31.5894L2.75345 34.2974C2.75345 34.2974 1.61847 12.4047 2.75345 3.87512Z" fill="url(#paint0_linear_3207_1801)"/>
</g>
<defs>
<filter id="filter0_f_3207_1801" x="2.20755e-09" y="1.60525e-08" width="10.7666" height="36.5464" filterUnits="userSpaceOnUse" color-interpolation-filters="sRGB">
<feFlood flood-opacity="0" result="BackgroundImageFix"/>
<feBlend mode="normal" in="SourceGraphic" in2="BackgroundImageFix" result="shape"/>
<feGaussianBlur stdDeviation="1.12451" result="effect1_foregroundBlur_3207_1801"/>
</filter>
<linearGradient id="paint0_linear_3207_1801" x1="2.24901" y1="3.10197" x2="5.09162" y2="5.65523" gradientUnits="userSpaceOnUse">
<stop stop-color="white"/>
<stop offset="1" stop-color="white" stop-opacity="0"/>
</linearGradient>
</defs>
</svg>
