<svg preserveAspectRatio="none" width="100%" height="100%" overflow="visible" style="display: block;" viewBox="0 0 72 72" fill="none" xmlns="http://www.w3.org/2000/svg">
<g id="whatsapp_2111728 1" clip-path="url(#clip0_3201_1663)">
<path id="Vector" d="M61.56 10.347C54.72 3.735 45.72 0 36.135 0C8.625 0 -8.649 29.805 5.088 53.514L0 72L19.005 67.044C27.285 71.517 34.068 71.121 36.153 71.385C68.052 71.385 83.931 32.793 61.515 10.464L61.56 10.347Z" fill="var(--fill-0, #ECEFF1)"/>
<path id="Vector_2" d="M36.201 65.253L36.183 65.25H36.135C26.589 65.25 20.49 60.729 19.89 60.468L8.64 63.393L11.655 52.458L10.938 51.333C7.968 46.605 6.39 41.16 6.39 35.553C6.39 9.174 38.625 -4.017 57.279 14.628C75.888 33.078 62.823 65.253 36.201 65.253Z" fill="var(--fill-0, #4CAF50)"/>
<path id="Vector_3" d="M52.521 42.921L52.494 43.146C51.591 42.696 47.193 40.545 46.374 40.248C44.535 39.567 45.054 40.14 41.523 44.184C40.998 44.769 40.476 44.814 39.585 44.409C38.685 43.959 35.796 43.014 32.376 39.954C29.712 37.569 27.924 34.644 27.396 33.744C26.517 32.226 28.356 32.01 30.03 28.842C30.33 28.212 30.177 27.717 29.955 27.27C29.73 26.82 27.939 22.41 27.189 20.652C26.469 18.9 25.728 19.122 25.173 19.122C23.445 18.972 22.182 18.996 21.069 20.154C16.227 25.476 17.448 30.966 21.591 36.804C29.733 47.46 34.071 49.422 42.003 52.146C44.145 52.827 46.098 52.731 47.643 52.509C49.365 52.236 52.944 50.346 53.691 48.231C54.456 46.116 54.456 44.361 54.231 43.956C54.009 43.551 53.421 43.326 52.521 42.921Z" fill="var(--fill-0, #FAFAFA)"/>
</g>
<defs>
<clipPath id="clip0_3201_1663">
<rect width="72" height="72" fill="white"/>
</clipPath>
</defs>
</svg>
