<svg preserveAspectRatio="none" width="100%" height="100%" overflow="visible" style="display: block;" viewBox="0 0 10 10" fill="none" xmlns="http://www.w3.org/2000/svg">
<g id="Component/icon/ic_Activity">
<path id="Combined Shape" d="M4.59863 0C7.1382 3.1137e-05 9.19727 2.05906 9.19727 4.59863C9.19702 7.138 7.13805 9.19626 4.59863 9.19629C2.0593 9.19616 0.000243058 7.13794 0 4.59863C0 2.05912 2.05915 0.000129505 4.59863 0ZM4.59863 0.835938C2.5209 0.836067 0.835937 2.52087 0.835938 4.59863C0.836099 6.67626 2.521 8.36022 4.59863 8.36035C6.6763 8.36025 8.36019 6.67628 8.36035 4.59863C8.36035 2.52085 6.6764 0.836034 4.59863 0.835938ZM4.59863 1.67188C4.82946 1.67188 5.01654 1.85903 5.0166 2.08984V4.39355L6.73633 5.73145C6.91857 5.87319 6.95131 6.13612 6.80957 6.31836C6.66781 6.50004 6.40569 6.53294 6.22363 6.3916L4.34277 4.92773C4.24107 4.84863 4.18081 4.72745 4.18066 4.59863V2.08984C4.18073 1.85913 4.36794 1.67204 4.59863 1.67188Z" fill="var(--fill-0, #775DA6)"/>
</g>
</svg>
