<svg preserveAspectRatio="none" width="100%" height="100%" overflow="visible" style="display: block;" viewBox="0 0 9 10" fill="none" xmlns="http://www.w3.org/2000/svg">
<g id="Component/icon/ic_File">
<path id="Shape" fill-rule="evenodd" clip-rule="evenodd" d="M1.67212 0H5.65663C5.90476 0 6.14007 0.110212 6.29891 0.300828L8.16683 2.54233C8.29204 2.69258 8.36061 2.88198 8.36061 3.07756V7.52455C8.36061 8.44804 7.61198 9.19667 6.68849 9.19667H1.67212C0.748635 9.19667 0 8.44804 0 7.52455V1.67212C0 0.748635 0.748635 0 1.67212 0ZM7.52665 7.52458V3.34427H6.27255C5.81081 3.34427 5.43649 2.96996 5.43649 2.50821V0.83609H1.67422C1.21248 0.83609 0.838158 1.21041 0.838158 1.67215V7.52458C0.838158 7.98632 1.21248 8.36064 1.67422 8.36064H6.69058C7.15233 8.36064 7.52665 7.98632 7.52665 7.52458ZM7.05137 2.50841L6.27176 1.57288V2.50841H7.05137ZM2.50807 5.43439C2.2772 5.43439 2.09004 5.24723 2.09004 5.01636C2.09004 4.78549 2.2772 4.59833 2.50807 4.59833H5.85231C6.08318 4.59833 6.27034 4.78549 6.27034 5.01636C6.27034 5.24723 6.08318 5.43439 5.85231 5.43439H2.50807ZM2.50807 7.10654C2.2772 7.10654 2.09004 6.91938 2.09004 6.68851C2.09004 6.45764 2.2772 6.27048 2.50807 6.27048H5.01625C5.24712 6.27048 5.43428 6.45764 5.43428 6.68851C5.43428 6.91938 5.24712 7.10654 5.01625 7.10654H2.50807ZM2.50807 3.76251C2.2772 3.76251 2.09004 3.57536 2.09004 3.34448C2.09004 3.11361 2.2772 2.92645 2.50807 2.92645H3.76216C3.99303 2.92645 4.18019 3.11361 4.18019 3.34448C4.18019 3.57536 3.99303 3.76251 3.76216 3.76251H2.50807Z" fill="var(--fill-0, #775DA6)"/>
</g>
</svg>
