<svg preserveAspectRatio="none" width="100%" height="100%" overflow="visible" style="display: block;" viewBox="0 0 9 10" fill="none" xmlns="http://www.w3.org/2000/svg">
<g id="Component/icon/ic_File">
<path id="Shape" fill-rule="evenodd" clip-rule="evenodd" d="M1.67212 0H5.65663C5.90476 0 6.14007 0.110212 6.29891 0.300828L8.16683 2.54233C8.29204 2.69258 8.36061 2.88198 8.36061 3.07756V7.52455C8.36061 8.44804 7.61198 9.19667 6.68849 9.19667H1.67212C0.748635 9.19667 0 8.44804 0 7.52455V1.67212C0 0.748635 0.748635 0 1.67212 0ZM7.52646 7.52458V3.34427H6.27236C5.81062 3.34427 5.4363 2.96996 5.4363 2.50821V0.83609H1.67403C1.21229 0.83609 0.837968 1.21041 0.837968 1.67215V7.52458C0.837968 7.98632 1.21229 8.36064 1.67403 8.36064H6.69039C7.15214 8.36064 7.52646 7.98632 7.52646 7.52458ZM7.05118 2.50838L6.27157 1.57285V2.50838H7.05118ZM2.50788 5.43439C2.27701 5.43439 2.08985 5.24723 2.08985 5.01636C2.08985 4.78549 2.27701 4.59833 2.50788 4.59833H5.85212C6.08299 4.59833 6.27015 4.78549 6.27015 5.01636C6.27015 5.24723 6.08299 5.43439 5.85212 5.43439H2.50788ZM2.50788 7.10651C2.27701 7.10651 2.08985 6.91935 2.08985 6.68848C2.08985 6.45761 2.27701 6.27045 2.50788 6.27045H5.01606C5.24693 6.27045 5.43409 6.45761 5.43409 6.68848C5.43409 6.91935 5.24693 7.10651 5.01606 7.10651H2.50788ZM2.50788 3.76248C2.27701 3.76248 2.08985 3.57532 2.08985 3.34445C2.08985 3.11358 2.27701 2.92642 2.50788 2.92642H3.76197C3.99284 2.92642 4.18 3.11358 4.18 3.34445C4.18 3.57532 3.99284 3.76248 3.76197 3.76248H2.50788Z" fill="var(--fill-0, #775DA6)"/>
</g>
</svg>
