<svg preserveAspectRatio="none" width="100%" height="100%" overflow="visible" style="display: block;" viewBox="0 0 24 24" fill="none" xmlns="http://www.w3.org/2000/svg">
<g id="more-circle">
<g id="Vector">
<path d="M12 22C17.5 22 22 17.5 22 12C22 6.5 17.5 2 12 2C6.5 2 2 6.5 2 12C2 17.5 6.5 22 12 22Z" fill="url(#paint0_linear_3207_1703)"/>
<path d="M12 2.5C17.2239 2.5 21.5 6.77614 21.5 12C21.5 17.2239 17.2239 21.5 12 21.5C6.77614 21.5 2.5 17.2239 2.5 12C2.5 6.77614 6.77614 2.5 12 2.5Z" stroke="url(#paint1_linear_3207_1703)" stroke-opacity="0.3"/>
</g>
<path id="Vector_2" d="M15.9965 12H16.0054" stroke="url(#paint2_linear_3207_1703)" stroke-width="2" stroke-linecap="round" stroke-linejoin="round"/>
<path id="Vector_3" d="M11.9955 12H12.0045" stroke="url(#paint3_linear_3207_1703)" stroke-width="2" stroke-linecap="round" stroke-linejoin="round"/>
<path id="Vector_4" d="M7.99451 12H8.00349" stroke="url(#paint4_linear_3207_1703)" stroke-width="2" stroke-linecap="round" stroke-linejoin="round"/>
<g id="Vector_5" opacity="0">
</g>
</g>
<defs>
<linearGradient id="paint0_linear_3207_1703" x1="12" y1="2" x2="12" y2="22" gradientUnits="userSpaceOnUse">
<stop stop-color="white"/>
<stop offset="1" stop-color="white"/>
</linearGradient>
<linearGradient id="paint1_linear_3207_1703" x1="12" y1="2" x2="12" y2="22" gradientUnits="userSpaceOnUse">
<stop stop-color="#775DA6"/>
<stop offset="1" stop-color="#513B79" stop-opacity="0.7"/>
</linearGradient>
<linearGradient id="paint2_linear_3207_1703" x1="16.001" y1="11.5" x2="16.001" y2="12.5" gradientUnits="userSpaceOnUse">
<stop stop-color="#775DA6"/>
<stop offset="1" stop-color="#513B79" stop-opacity="0.7"/>
</linearGradient>
<linearGradient id="paint3_linear_3207_1703" x1="12" y1="11.5" x2="12" y2="12.5" gradientUnits="userSpaceOnUse">
<stop stop-color="#775DA6"/>
<stop offset="1" stop-color="#513B79" stop-opacity="0.7"/>
</linearGradient>
<linearGradient id="paint4_linear_3207_1703" x1="7.999" y1="11.5" x2="7.999" y2="12.5" gradientUnits="userSpaceOnUse">
<stop stop-color="#775DA6"/>
<stop offset="1" stop-color="#513B79" stop-opacity="0.7"/>
</linearGradient>
</defs>
</svg>
