<svg preserveAspectRatio="none" width="100%" height="100%" overflow="visible" style="display: block;" viewBox="0 0 18 42" fill="none" xmlns="http://www.w3.org/2000/svg">
<g id="Vector 1" filter="url(#filter0_f_3191_1595)">
<path d="M3.5376 4.3486C4.04601 2.21516 11.4905 2.44846 14.6657 2.64716C15.0027 2.66825 15.0719 3.14534 14.7611 3.27733C13.1289 3.97052 10.4859 5.25975 9.8106 6.58203C6.80487 12.4679 7.0171 21.9545 7.51176 27.7424C7.78501 30.9398 6.96098 34.1786 4.96493 36.6913L3.5376 38.4881C3.5376 38.4881 1.25658 13.9204 3.5376 4.3486Z" fill="var(--fill-0, white)" fill-opacity="0.3"/>
<path d="M3.5376 4.3486C4.04601 2.21516 11.4905 2.44846 14.6657 2.64716C15.0027 2.66825 15.0719 3.14534 14.7611 3.27733C13.1289 3.97052 10.4859 5.25975 9.8106 6.58203C6.80487 12.4679 7.0171 21.9545 7.51176 27.7424C7.78501 30.9398 6.96098 34.1786 4.96493 36.6913L3.5376 38.4881C3.5376 38.4881 1.25658 13.9204 3.5376 4.3486Z" fill="url(#paint0_linear_3191_1595)"/>
</g>
<defs>
<filter id="filter0_f_3191_1595" x="4.41515e-08" y="-3.98672e-08" width="17.484" height="41.0119" filterUnits="userSpaceOnUse" color-interpolation-filters="sRGB">
<feFlood flood-opacity="0" result="BackgroundImageFix"/>
<feBlend mode="normal" in="SourceGraphic" in2="BackgroundImageFix" result="shape"/>
<feGaussianBlur stdDeviation="1.2619" result="effect1_foregroundBlur_3191_1595"/>
</filter>
<linearGradient id="paint0_linear_3191_1595" x1="2.52381" y1="3.48099" x2="5.40089" y2="8.10911" gradientUnits="userSpaceOnUse">
<stop stop-color="white"/>
<stop offset="1" stop-color="white" stop-opacity="0"/>
</linearGradient>
</defs>
</svg>
