<svg preserveAspectRatio="none" width="100%" height="100%" overflow="visible" style="display: block;" viewBox="0 0 10 40" fill="none" xmlns="http://www.w3.org/2000/svg">
<g id="Vector 1" filter="url(#filter0_f_3230_1330)">
<path d="M2.84837 4.2066C3.05103 2.15743 5.99889 2.36542 7.28838 2.55663C7.53643 2.59341 7.62168 2.90138 7.44445 3.07878C6.80127 3.72255 5.65058 5.02728 5.36664 6.36709C3.93725 13.1118 4.32068 24.7445 4.55793 29.5271C4.62838 30.9471 4.45093 32.3701 4.00579 33.7203L2.84837 37.2312C2.84837 37.2312 1.93267 13.4658 2.84837 4.2066Z" fill="var(--fill-0, white)" fill-opacity="0.3"/>
<path d="M2.84837 4.2066C3.05103 2.15743 5.99889 2.36542 7.28838 2.55663C7.53643 2.59341 7.62168 2.90138 7.44445 3.07878C6.80127 3.72255 5.65058 5.02728 5.36664 6.36709C3.93725 13.1118 4.32068 24.7445 4.55793 29.5271C4.62838 30.9471 4.45093 32.3701 4.00579 33.7203L2.84837 37.2312C2.84837 37.2312 1.93267 13.4658 2.84837 4.2066Z" fill="url(#paint0_linear_3230_1330)"/>
</g>
<defs>
<filter id="filter0_f_3230_1330" x="1.5453e-08" y="-2.27703e-08" width="9.97986" height="39.6726" filterUnits="userSpaceOnUse" color-interpolation-filters="sRGB">
<feFlood flood-opacity="0" result="BackgroundImageFix"/>
<feBlend mode="normal" in="SourceGraphic" in2="BackgroundImageFix" result="shape"/>
<feGaussianBlur stdDeviation="1.2207" result="effect1_foregroundBlur_3230_1330"/>
</filter>
<linearGradient id="paint0_linear_3230_1330" x1="2.44139" y1="3.36732" x2="5.30771" y2="5.28079" gradientUnits="userSpaceOnUse">
<stop stop-color="white"/>
<stop offset="1" stop-color="white" stop-opacity="0"/>
</linearGradient>
</defs>
</svg>
