<svg preserveAspectRatio="none" width="100%" height="100%" overflow="visible" style="display: block;" viewBox="0 0 20 20" fill="none" xmlns="http://www.w3.org/2000/svg">
<g id="Play">
<path id="Play_2" fill-rule="evenodd" clip-rule="evenodd" d="M0 9.5814C0 4.29597 4.29804 0 9.57585 0C14.8537 0 19.1517 4.29597 19.1517 9.5814C19.1517 14.8557 14.8537 19.1517 9.57585 19.1517C4.29804 19.1517 0 14.8557 0 9.5814ZM13.0897 10.5505C13.1914 10.4489 13.3208 10.2918 13.3485 10.2549C13.4964 10.0608 13.5703 9.82064 13.5703 9.58136C13.5703 9.31251 13.4872 9.06307 13.33 8.85982C13.3171 8.84694 13.2919 8.8195 13.2591 8.78372C13.1976 8.7168 13.1093 8.62075 13.025 8.53647C12.2671 7.72347 10.289 6.3931 9.25382 5.9866C9.09669 5.92285 8.69923 5.78335 8.48664 5.77411C8.28329 5.77411 8.08919 5.82031 7.90433 5.91269C7.67325 6.04203 7.48839 6.24528 7.38671 6.48549C7.32201 6.65178 7.22034 7.15067 7.22034 7.15991C7.11866 7.70499 7.0632 8.5919 7.0632 9.57119C7.0632 10.5052 7.11866 11.3543 7.20185 11.9086C7.20414 11.9109 7.21209 11.9505 7.22444 12.0121C7.26199 12.1993 7.34022 12.5894 7.42368 12.7493C7.62703 13.1373 8.02449 13.3775 8.44967 13.3775H8.48664C8.76393 13.3683 9.34625 13.1281 9.34625 13.1188C10.326 12.7123 12.2578 11.4466 13.0342 10.6059L13.0897 10.5505Z" fill="url(#paint0_linear_3187_1582)"/>
</g>
<defs>
<linearGradient id="paint0_linear_3187_1582" x1="9.57586" y1="18.3856" x2="9.57586" y2="0" gradientUnits="userSpaceOnUse">
<stop stop-color="white"/>
<stop offset="1" stop-color="white" stop-opacity="0.8"/>
</linearGradient>
</defs>
</svg>
