<svg xmlns="http://www.w3.org/2000/svg" width="11" height="37" viewBox="0 0 11 37" fill="none">
  <g filter="url(#filter0_f_140_6016)">
    <path d="M2.75248 3.87513C3.0045 1.98121 6.68156 2.18032 8.27145 2.35692C8.52725 2.38533 8.6047 2.71912 8.39893 2.87372C7.59347 3.47891 6.21845 4.65665 5.87378 5.86537C4.18347 11.7933 4.53845 21.8199 4.83 26.5545C4.93624 28.2799 4.65454 30.0093 3.95365 31.5894L2.75248 34.2974C2.75248 34.2974 1.6175 12.4047 2.75248 3.87513Z" fill="white" fill-opacity="0.3"/>
    <path d="M2.75248 3.87513C3.0045 1.98121 6.68156 2.18032 8.27145 2.35692C8.52725 2.38533 8.6047 2.71912 8.39893 2.87372C7.59347 3.47891 6.21845 4.65665 5.87378 5.86537C4.18347 11.7933 4.53845 21.8199 4.83 26.5545C4.93624 28.2799 4.65454 30.0093 3.95365 31.5894L2.75248 34.2974C2.75248 34.2974 1.6175 12.4047 2.75248 3.87513Z" fill="url(#paint0_linear_140_6016)"/>
  </g>
  <defs>
    <filter id="filter0_f_140_6016" x="-0.000964403" y="1.21593e-05" width="10.7676" height="36.5464" filterUnits="userSpaceOnUse" color-interpolation-filters="sRGB">
      <feFlood flood-opacity="0" result="BackgroundImageFix"/>
      <feBlend mode="normal" in="SourceGraphic" in2="BackgroundImageFix" result="shape"/>
      <feGaussianBlur stdDeviation="1.12451" result="effect1_foregroundBlur_140_6016"/>
    </filter>
    <linearGradient id="paint0_linear_140_6016" x1="2.24805" y1="3.10199" x2="5.09065" y2="5.65524" gradientUnits="userSpaceOnUse">
      <stop stop-color="white"/>
      <stop offset="1" stop-color="white" stop-opacity="0"/>
    </linearGradient>
  </defs>
</svg>
