<svg preserveAspectRatio="none" width="100%" height="100%" overflow="visible" style="display: block;" viewBox="0 0 45 39" fill="none" xmlns="http://www.w3.org/2000/svg">
<g id="Upload icon">
<path id="Vector" d="M29.829 3.63595C30.1731 3.63615 30.4521 3.91582 30.4521 4.25998C30.452 4.60405 30.1731 4.88283 29.829 4.88302C27.274 4.88302 24.972 6.53892 24.1474 8.93771L24.0722 9.17209C23.9843 9.46903 23.6944 9.64955 23.3954 9.61056L23.3886 9.61935L23.2968 9.59201C22.967 9.49364 22.7784 9.14677 22.8769 8.81662C23.7658 5.82969 26.5346 3.63595 29.829 3.63595Z" fill="var(--fill-0, #775DA6)" stroke="var(--stroke-0, #F9FFF9)" stroke-width="0.3"/>
<path id="Vector_2" d="M36.4577 27.4602H33.6169C33.3555 27.4602 33.1434 27.2481 33.1434 26.9867C33.1434 26.7253 33.3555 26.5132 33.6169 26.5132H36.4577C40.3736 26.5132 43.5598 23.327 43.5598 19.4111C43.5598 15.4952 40.3736 12.309 36.4577 12.309H36.3894C36.2521 12.309 36.1215 12.2495 36.0316 12.1457C35.9416 12.0419 35.9011 11.9042 35.9207 11.7683C35.9629 11.4734 35.9843 11.1771 35.9843 10.8886C35.9843 7.49485 33.2228 4.73344 29.8291 4.73344C28.5088 4.73344 27.2496 5.14603 26.1877 5.92692C25.9543 6.09838 25.6229 6.02229 25.488 5.7656C22.4804 0.0386289 14.625 -0.730444 10.5524 4.25152C8.83675 6.35034 8.16265 9.08058 8.70281 11.7416C8.76233 12.0355 8.53743 12.3094 8.2388 12.3094H8.04908C4.13315 12.3094 0.946991 15.4956 0.946991 19.4115C0.946991 23.3274 4.13315 26.5136 8.04908 26.5136H10.8899C11.1513 26.5136 11.3634 26.7256 11.3634 26.987C11.3634 27.2485 11.1513 27.4605 10.8899 27.4605H8.04908C3.61091 27.4605 0 23.8496 0 19.4114C0 15.0978 3.411 11.5657 7.6774 11.3709C7.27664 8.61014 8.04299 5.82544 9.81916 3.65224C14.1795 -1.68209 22.5358 -1.08419 26.0681 4.86399C27.195 4.15749 28.4845 3.78687 29.8289 3.78687C33.9407 3.78687 37.1989 7.28653 36.9138 11.3753C41.1409 11.6123 44.5066 15.1258 44.5066 19.4111C44.5066 23.8496 40.8957 27.4602 36.4575 27.4602L36.4577 27.4602Z" fill="var(--fill-0, #775DA6)"/>
<path id="Vector_3" d="M22.1899 14.732C28.7996 14.732 34.1771 20.1095 34.1772 26.7193C34.1772 33.329 28.7996 38.7066 22.1899 38.7066C15.5802 38.7065 10.2026 33.329 10.2026 26.7193C10.2026 20.1096 15.5801 14.732 22.1899 14.732ZM22.1899 15.979C16.2681 15.9791 11.4496 20.7976 11.4496 26.7193C11.4496 32.641 16.2682 37.4595 22.1899 37.4595C28.1115 37.4595 32.9301 32.641 32.9301 26.7193C32.9301 20.7975 28.1115 15.979 22.1899 15.979Z" fill="var(--fill-0, #775DA6)" stroke="var(--stroke-0, #F9FFF9)" stroke-width="0.3"/>
<g id="arrow">
<path id="Vector_4" d="M22.4057 21.9748C22.68 21.9748 22.9028 22.1976 22.9028 22.4719V31.4846C22.9027 31.759 22.6798 31.9806 22.4057 31.9806C22.1315 31.9806 21.9087 31.7587 21.9087 31.4846V22.4719C21.9087 22.1976 22.1315 21.9748 22.4057 21.9748Z" fill="var(--fill-0, #775DA6)" stroke="var(--stroke-0, #775DA6)" stroke-width="0.3"/>
<path id="Vector_5" d="M22.0549 22.1221C22.2486 21.928 22.563 21.9274 22.757 22.1211L25.5304 24.8945C25.7001 25.0642 25.721 25.3258 25.5939 25.5185L25.5304 25.5967C25.4333 25.6941 25.3054 25.7422 25.1789 25.7422C25.0522 25.7421 24.9251 25.6934 24.8283 25.5967L22.4054 23.1748L19.9845 25.5967C19.7907 25.7909 19.4754 25.7906 19.2814 25.5967C19.0878 25.4027 19.0877 25.0884 19.2814 24.8945L22.0549 22.1211V22.1221Z" fill="var(--fill-0, #775DA6)" stroke="var(--stroke-0, #775DA6)" stroke-width="0.3"/>
</g>
</g>
</svg>
