<svg preserveAspectRatio="none" width="100%" height="100%" overflow="visible" style="display: block;" viewBox="0 0 14 14" fill="none" xmlns="http://www.w3.org/2000/svg">
<g id="link_1063309 1" clip-path="url(#clip0_3159_407)">
<path id="Vector" d="M0.840927 13.159C1.96213 14.2803 3.78006 14.2803 4.90126 13.159L8.06512 9.99518C6.94756 10.1248 6.27368 9.74823 6.04842 9.69173L3.74118 11.999C3.26138 12.4788 2.4808 12.4788 2.00101 11.999C1.52121 11.5193 1.52121 10.7386 2.00101 10.2589C2.08955 10.1702 5.73364 6.52616 5.6185 6.64141C6.08655 6.17326 6.87845 6.1613 7.35857 6.64141C7.39745 6.68029 7.42671 6.72441 7.45918 6.76681C7.63222 6.75025 7.79735 6.78273 7.93866 6.64141L8.77414 5.80594C8.69318 5.69539 8.61873 5.58142 8.51865 5.48134C7.40652 4.36911 5.54854 4.39112 4.45831 5.48134L0.840927 9.09871C-0.280273 10.2199 -0.280273 12.0378 0.840927 13.159Z" fill="var(--fill-0, #898989)"/>
<path id="Vector_2" d="M13.1591 0.840925C12.0379 -0.280273 10.2199 -0.280273 9.09874 0.840925L6.07202 3.86763C7.18959 3.73796 7.86346 4.11469 8.08873 4.17108L10.2589 2.001C10.7387 1.52121 11.5192 1.52121 11.999 2.001C12.4788 2.4808 12.4788 3.26137 11.999 3.74117L9.1859 6.55426L8.51865 7.2214C8.0506 7.68966 7.2587 7.70162 6.77858 7.2214C6.7397 7.18263 6.71043 7.13851 6.67796 7.09611C6.50493 7.11266 6.3398 7.08009 6.19849 7.2214L5.36301 8.05688C5.44397 8.16743 5.51842 8.2815 5.6185 8.38158C6.73062 9.49381 8.58861 9.4717 9.67883 8.38158L13.1591 4.90125C14.2803 3.78005 14.2803 1.96212 13.1591 0.840925Z" fill="var(--fill-0, #898989)"/>
</g>
<defs>
<clipPath id="clip0_3159_407">
<rect width="14" height="14" fill="white"/>
</clipPath>
</defs>
</svg>
